<svg xmlns="http://www.w3.org/2000/svg" viewBox="0 0 24 24">
    <path fill="white" d="M 8 5 A 3 3 0 0 0 5 8 A 3 3 0 0 0 8 11 A 3 3 0 0 0 11 8 A 3 3 0 0 0 8 5 z M 16 5 A 3 3 0 0 0 13 8 A 3 3 0 0 0 16 11 A 3 3 0 0 0 19 8 A 3 3 0 0 0 16 5 z M 3.7636719 9.0019531 C 3.3255313 9.0187812 2.3722031 9.1317031 1.7519531 9.7519531 C 0.92495313 10.578953 1.0019531 11.998047 1.0019531 11.998047 C 1.0019531 11.998047 2.4210469 12.075047 3.2480469 11.248047 C 4.0750469 10.421047 3.9980469 9.0019531 3.9980469 9.0019531 C 3.9980469 9.0019531 3.9097188 8.9963437 3.7636719 9.0019531 z M 8 13 C 5 13 1 14.464 1 16.5 L 1 19 L 15 19 L 15 16.5 C 15 14.464 11 13 8 13 z M 16 13 C 15.683 13 15.353484 13.019781 15.021484 13.050781 C 16.203484 13.915781 17 15.059 17 16.5 L 17 19 L 23 19 L 23 16.5 C 23 14.464 19 13 16 13 z"></path>
</svg>