<svg xmlns="http://www.w3.org/2000/svg" width="554.625" height="554.625" viewBox="0 0 554.625 554.625"><g fill="#fff"><path d="M181.688 420.75h-143.438v57.375h143.438v-57.375zm-68.133 38.844c-6.598 0-11.953-5.354-11.953-11.953 0-6.598 5.355-11.953 11.953-11.953s11.953 5.355 11.953 11.953-5.355 11.953-11.953 11.953zM181.688 315.562h-143.438v57.375h143.438v-57.375zm-68.133 38.843c-6.598 0-11.953-5.354-11.953-11.953 0-6.598 5.355-11.953 11.953-11.953s11.953 5.355 11.953 11.953c0 6.599-5.355 11.953-11.953 11.953zM219.938 277.312h-219.938v267.751h28.688v-28.688h162.562v28.688h28.688v-191.251h306v191.25h28.688v-267.75h-334.688zm-28.688 210.376h-162.562v-76.5h162.562v76.5zm0-105.188h-162.562v-76.5h162.562v76.5zm334.688-47.812h-306v-28.688h306v28.688zM306 219.938v28.687h-19.125v19.125h143.437v-19.125h-19.124v-28.687zM516.375 9.562h-306v200.812h306v-200.812zm-153 186.469c-6.599 0-11.953-5.354-11.953-11.953 0-6.598 5.354-11.953 11.953-11.953 6.598 0 11.952 5.355 11.952 11.953 0 6.599-5.354 11.953-11.952 11.953zm133.875-43.031h-267.75v-124.312h267.75v124.312z"/></g></svg>