<svg xmlns="http://www.w3.org/2000/svg" width="31.313" height="31.313" viewBox="0 0 31.313 31.313"><g fill="#fff"><path d="M23.695 15.25h5.052v1.878h-5.052zM2.931.463v2.953l1.289-.398v-1.265h25.801v16.448h-20.531l-.067 1.289h21.889v-19.027z"/><circle cx="4.983" cy="7.526" r="3.821"/><path d="M8.227 29.105v-8.314h.243l.355-6.905 6.59-3.415-.554-1.068.161.28 7.061-4.042-.319-.56-7.051 4.036-.164-.317-6.025 3.122h-2.15l-1.457 1.689-1.41-1.689-3.096.575-.198 6.868h1.313l.071 1.426h.199v8.314h-.263l-1.533.333v1.412h1.305l1.524-.248.014.248h1.688v-8.548h.961v8.548h1.688l.014-.248 1.524.248h1.305v-1.412l-1.534-.333z"/></g></svg>