<svg xmlns="http://www.w3.org/2000/svg" viewBox="0 0 50 50">
    <path fill="white" d="M 4 4 C 2.897 4 2 4.897 2 6 L 2 35 C 2 36.103 2.897 37 4 37 L 46 37 C 47.103 37 48 36.103 48 35 L 48 6 C 48 4.897 47.103 4 46 4 L 4 4 z M 4 6 L 46 6 L 46.001953 29 L 4 29 L 4 6 z M 27.949219 8.9882812 A 1.0001 1.0001 0 0 0 27.064453 9.6484375 L 21.064453 25.648438 A 1.0001 1.0001 0 1 0 22.935547 26.351562 L 28.935547 10.351562 A 1.0001 1.0001 0 0 0 27.949219 8.9882812 z M 32.001953 11.988281 A 1.0001 1.0001 0 0 0 31.21875 13.625 L 34.71875 18 L 31.21875 22.375 A 1.0004882 1.0004882 0 1 0 32.78125 23.625 L 36.78125 18.625 A 1.0001 1.0001 0 0 0 36.78125 17.375 L 32.78125 12.375 A 1.0001 1.0001 0 0 0 32.001953 11.988281 z M 17.96875 11.990234 A 1.0001 1.0001 0 0 0 17.21875 12.375 L 13.21875 17.375 A 1.0001 1.0001 0 0 0 13.21875 18.625 L 17.21875 23.625 A 1.0004882 1.0004882 0 1 0 18.78125 22.375 L 15.28125 18 L 18.78125 13.625 A 1.0001 1.0001 0 0 0 17.96875 11.990234 z M 42 32 C 42.552 32 43 32.448 43 33 C 43 33.552 42.552 34 42 34 C 41.448 34 41 33.552 41 33 C 41 32.448 41.448 32 42 32 z M 19 39 L 19 41 L 16 41 C 14.343 41 13 42.343 13 44 L 13 45 C 13 45.552 13.448 46 14 46 L 36 46 C 36.552 46 37 45.552 37 45 L 37 44 C 37 42.343 35.657 41 34 41 L 31 41 L 31 39 L 19 39 z"></path>
</svg>