<svg xmlns="http://www.w3.org/2000/svg" viewBox="0 0 50 50"><path fill="#fff" d="M4 4c-1.103 0-2 .897-2 2v29c0 1.103.897 2 2 2h42c1.103 0 2-.897 2-2v-29c0-1.103-.897-2-2-2h-42zm0 2h42l.002 23h-42.002v-23zm23.949 2.988a1 1 0 0 0-.885.66l-6 16a1 1 0 1 0 1.871.703l6-16a1 1 0 0 0-.986-1.363zm4.053 3a1 1 0 0 0-.783 1.637l3.5 4.375-3.5 4.375a1 1 0 1 0 1.563 1.25l4-5a1 1 0 0 0 0-1.25l-4-5a1 1 0 0 0-.779-.387zm-14.033.002a1 1 0 0 0-.75.385l-4 5a1 1 0 0 0 0 1.25l4 5a1 1 0 1 0 1.563-1.25l-3.5-4.375 3.5-4.375a1 1 0 0 0-.813-1.635zm24.031 20.01c.552 0 1 .448 1 1s-.448 1-1 1-1-.448-1-1 .448-1 1-1zm-23 7v2h-3c-1.657 0-3 1.343-3 3v1c0 .552.448 1 1 1h22c.552 0 1-.448 1-1v-1c0-1.657-1.343-3-3-3h-3v-2h-12z"/></svg>