<svg xmlns="http://www.w3.org/2000/svg" viewBox="0 0 24 24"><path fill="#fff" d="M5 5c-1.682 0-3 1.317-3 3s1.318 3 3 3 3-1.317 3-3-1.318-3-3-3zm7 0c-1.682 0-3 1.317-3 3s1.318 3 3 3 3-1.317 3-3-1.318-3-3-3zm7 0c-1.682 0-3 1.317-3 3s1.318 3 3 3 3-1.317 3-3-1.318-3-3-3zm-7 8c-3.533 0-6 1.324-6 3.219v1.781c0 .552.448 1 1 1h10c.552 0 1-.448 1-1v-1.781c0-1.895-2.467-3.219-6-3.219zm6.527.012c.94.856 1.473 1.946 1.473 3.207v1.781c0 .552.448 1 1 1h2c.552 0 1-.448 1-1v-1.781c0-1.799-2.226-3.081-5.473-3.207zm-13.055.002c-3.247.125-5.473 1.406-5.473 3.205v1.781c0 .552.448 1 1 1h2c.552 0 1-.448 1-1v-1.781c0-1.26.533-2.35 1.473-3.205z"/></svg>