<svg xmlns="http://www.w3.org/2000/svg" viewBox="0 0 24 24">
    <path fill="white" d="M 5 5 C 3.318 5 2 6.317 2 8 C 2 9.683 3.318 11 5 11 C 6.682 11 8 9.683 8 8 C 8 6.317 6.682 5 5 5 z M 12 5 C 10.318 5 9 6.317 9 8 C 9 9.683 10.318 11 12 11 C 13.682 11 15 9.683 15 8 C 15 6.317 13.682 5 12 5 z M 19 5 C 17.318 5 16 6.317 16 8 C 16 9.683 17.318 11 19 11 C 20.682 11 22 9.683 22 8 C 22 6.317 20.682 5 19 5 z M 12 13 C 8.467 13 6 14.32375 6 16.21875 L 6 18 C 6 18.552 6.448 19 7 19 L 17 19 C 17.552 19 18 18.552 18 18 L 18 16.21875 C 18 14.32375 15.533 13 12 13 z M 18.527344 13.011719 C 19.467344 13.867719 20 14.95775 20 16.21875 L 20 18 C 20 18.552 20.448 19 21 19 L 23 19 C 23.552 19 24 18.552 24 18 L 24 16.21875 C 24 14.41975 21.774344 13.137719 18.527344 13.011719 z M 5.4726562 13.013672 C 2.2256563 13.138672 -1.1842379e-15 14.41975 0 16.21875 L 0 18 C 0 18.552 0.448 19 1 19 L 3 19 C 3.552 19 4 18.552 4 18 L 4 16.21875 C 4 14.95875 4.5326563 13.868672 5.4726562 13.013672 z"></path>
</svg>