<svg xmlns="http://www.w3.org/2000/svg" viewBox="0 0 24 24"><path fill="#fff" d="M4 3c-1.105 0-2 .895-2 2v14c0 1.105.895 2 2 2h7c.552 0 1-.448 1-1v-5.855c0-1.734 1.4-3.145 3.121-3.145.528 0 1.054.137 1.518.398l4.451 2.498c.408.228.91-.065.91-.533v-8.363c0-1.105-.895-2-2-2h-16zm.502 2h.998c.276 0 .5.224.5.5v1c0 .276-.224.5-.5.5h-.998c-.276 0-.5-.224-.5-.5v-1c0-.276.224-.5.5-.5zm13.998 0h1c.276 0 .5.224.5.5v1c0 .276-.224.5-.5.5h-1c-.276 0-.5-.224-.5-.5v-1c0-.276.224-.5.5-.5zm-14 4h1c.276 0 .5.224.5.5v1c0 .276-.224.5-.5.5h-1c-.276 0-.5-.224-.5-.5v-1c0-.276.224-.5.5-.5zm14 0h1c.276 0 .5.224.5.5v1c0 .276-.224.5-.5.5h-1c-.276 0-.5-.224-.5-.5v-1c0-.276.224-.5.5-.5zm-14 4h1c.276 0 .5.224.5.5v1c0 .276-.224.5-.5.5h-1c-.276 0-.5-.224-.5-.5v-1c0-.276.224-.5.5-.5zm10.586 0c-.572.019-1.086.492-1.086 1.145v8.711c0 .87.912 1.421 1.658 1.002l7.762-4.355c.774-.435.774-1.57 0-2.004l-7.762-4.355c-.187-.105-.382-.149-.572-.143zm-10.586 4h1c.276 0 .5.224.5.5v1c0 .276-.224.5-.5.5h-1c-.276 0-.5-.224-.5-.5v-1c0-.276.224-.5.5-.5z"/></svg>