<svg xmlns="http://www.w3.org/2000/svg" viewBox="0 0 24 24">
    <path fill="white" d="M 4 3 C 2.895 3 2 3.895 2 5 L 2 19 C 2 20.105 2.895 21 4 21 L 11 21 C 11.552 21 12 20.552 12 20 L 12 14.144531 C 12 12.410531 13.400094 11 15.121094 11 C 15.649094 11 16.174672 11.137437 16.638672 11.398438 L 21.089844 13.896484 C 21.497844 14.124484 22 13.831281 22 13.363281 L 22 5 C 22 3.895 21.105 3 20 3 L 4 3 z M 4.5019531 5 L 5.5 5 C 5.776 5 6 5.224 6 5.5 L 6 6.5 C 6 6.776 5.776 7 5.5 7 L 4.5019531 7 C 4.2259531 7 4.0019531 6.776 4.0019531 6.5 L 4.0019531 5.5 C 4.0019531 5.224 4.2259531 5 4.5019531 5 z M 18.5 5 L 19.5 5 C 19.776 5 20 5.224 20 5.5 L 20 6.5 C 20 6.776 19.776 7 19.5 7 L 18.5 7 C 18.224 7 18 6.776 18 6.5 L 18 5.5 C 18 5.224 18.224 5 18.5 5 z M 4.5 9 L 5.5 9 C 5.776 9 6 9.224 6 9.5 L 6 10.5 C 6 10.776 5.776 11 5.5 11 L 4.5 11 C 4.224 11 4 10.776 4 10.5 L 4 9.5 C 4 9.224 4.224 9 4.5 9 z M 18.5 9 L 19.5 9 C 19.776 9 20 9.224 20 9.5 L 20 10.5 C 20 10.776 19.776 11 19.5 11 L 18.5 11 C 18.224 11 18 10.776 18 10.5 L 18 9.5 C 18 9.224 18.224 9 18.5 9 z M 4.5 13 L 5.5 13 C 5.776 13 6 13.224 6 13.5 L 6 14.5 C 6 14.776 5.776 15 5.5 15 L 4.5 15 C 4.224 15 4 14.776 4 14.5 L 4 13.5 C 4 13.224 4.224 13 4.5 13 z M 15.085938 13 C 14.514437 13.018984 14 13.492031 14 14.144531 L 14 22.855469 C 14 23.725469 14.912203 24.276422 15.658203 23.857422 L 23.419922 19.501953 C 24.193922 19.066953 24.193922 17.932047 23.419922 17.498047 L 15.658203 13.142578 C 15.471703 13.037828 15.276438 12.993672 15.085938 13 z M 4.5 17 L 5.5 17 C 5.776 17 6 17.224 6 17.5 L 6 18.5 C 6 18.776 5.776 19 5.5 19 L 4.5 19 C 4.224 19 4 18.776 4 18.5 L 4 17.5 C 4 17.224 4.224 17 4.5 17 z"></path>
</svg>