<svg xmlns="http://www.w3.org/2000/svg" viewBox="0 0 487.209 487.209" enable-background="new 0 0 487.209 487.209"><g fill="#fff"><path d="M482.749 327.984c-4.608-4.486-11.561-5.501-17.254-2.511-84.865 44.542-192.218 31.155-263.564-40.19-71.348-71.349-84.731-178.707-40.189-263.569 2.992-5.686 1.965-12.65-2.53-17.242-4.478-4.597-11.421-5.789-17.175-2.927-24.167 11.997-46.844 28.03-66.981 48.166-100.071 100.081-100.071 262.352 0 362.433 100.104 100.088 262.36 100.088 362.446 0 20.135-20.136 36.162-42.798 48.16-66.966 2.859-5.758 1.678-12.699-2.913-17.194zM305.553 272.248c-.351.869-.093 1.878.658 2.463.737.583 1.778.614 2.542.072l33.027-23.458 37.503 15.365c.884.351 1.874.088 2.468-.647.589-.736.607-1.775.064-2.545l-23.46-33.042 15.363-37.489c.357-.871.1-1.878-.65-2.464-.737-.583-1.779-.614-2.55-.072l-33.021 23.457-37.51-15.36c-.878-.354-1.865-.092-2.461.645-.595.735-.607 1.778-.063 2.545l23.461 33.042-15.371 37.488zM218.773 94.54l27.255 2.017 12.872 24.093c.431.832 1.377 1.274 2.306 1.074.925-.194 1.594-.978 1.677-1.92l2.017-27.237 24.099-12.884c.832-.448 1.267-1.384 1.076-2.311-.193-.92-.975-1.607-1.921-1.671l-27.254-2.016-12.874-24.094c-.434-.833-1.378-1.273-2.304-1.072-.928.192-1.596.975-1.678 1.919l-2.019 27.238-24.098 12.882c-.833.448-1.264 1.384-1.077 2.312.195.92.979 1.607 1.923 1.67zM391.311 67.296l-.831 15.139c-.045.934.532 1.798 1.426 2.11.878.313 1.873 0 2.411-.768l8.797-12.338 15.164.823c.945.056 1.81-.521 2.11-1.415.319-.888 0-1.88-.765-2.423l-12.347-8.806.815-15.153c.044-.936-.532-1.8-1.41-2.111-.895-.311-1.886 0-2.43.768l-8.813 12.355-15.13-.824c-.944-.055-1.808.529-2.107 1.416-.326.888 0 1.879.762 2.424l12.348 8.803z"/></g></svg>