<svg xmlns="http://www.w3.org/2000/svg" width="595.281" height="841.891" viewBox="0 0 595.281 841.891"><path fill="#fff" d="M580.015 520.578c-5.442-5.297-13.652-6.496-20.374-2.965-100.206 52.594-226.965 36.787-311.208-47.455-84.246-84.247-100.048-211.012-47.454-311.214 3.533-6.713 2.32-14.937-2.987-20.358-5.287-5.428-13.485-6.835-20.279-3.456-28.536 14.166-55.312 33.097-79.089 56.873-118.161 118.172-118.161 309.776 0 427.949 118.2 118.181 309.787 118.181 427.966 0 23.772-23.775 42.696-50.534 56.864-79.071 3.377-6.8 1.981-14.996-3.439-20.303zm-209.228-65.812c-.413 1.025-.109 2.218.777 2.908.87.688 2.1.726 3.002.085l38.997-27.698 44.281 18.143c1.044.415 2.214.104 2.914-.764.696-.869.718-2.097.075-3.005l-27.701-39.016 18.142-44.266c.421-1.028.118-2.217-.767-2.909-.872-.689-2.101-.726-3.013-.086l-38.99 27.697-44.29-18.136c-1.036-.418-2.201-.109-2.905.761-.704.868-.717 2.099-.075 3.005l27.703 39.015-18.15 44.266zm-102.467-209.832l32.181 2.382 15.198 28.449c.51.982 1.627 1.504 2.724 1.268 1.093-.229 1.882-1.154 1.98-2.267l2.382-32.16 28.454-15.213c.983-.528 1.497-1.633 1.272-2.729-.229-1.086-1.151-1.898-2.27-1.973l-32.18-2.38-15.202-28.449c-.514-.983-1.627-1.503-2.72-1.266-1.097.227-1.886 1.15-1.981 2.266l-2.384 32.161-28.454 15.21c-.984.529-1.493 1.634-1.272 2.73.232 1.086 1.157 1.898 2.272 1.971zm203.727-32.169l-.981 17.876c-.053 1.103.629 2.123 1.684 2.491 1.036.37 2.212 0 2.847-.907l10.387-14.568 17.907.971c1.115.067 2.136-.614 2.491-1.67.375-1.049 0-2.22-.904-2.86l-14.58-10.398.963-17.892c.051-1.106-.629-2.126-1.665-2.493-1.057-.367-2.228 0-2.869.907l-10.405 14.588-17.865-.973c-1.116-.065-2.135.625-2.488 1.672-.385 1.049 0 2.219.898 2.862l14.58 10.394z"/></svg>