<?xml version="1.0" encoding="utf-8"?>
<!-- Generator: Adobe Illustrator 16.0.0, SVG Export Plug-In . SVG Version: 6.00 Build 0)  -->
<!DOCTYPE svg PUBLIC "-//W3C//DTD SVG 1.1//EN" "http://www.w3.org/Graphics/SVG/1.1/DTD/svg11.dtd">
<svg version="1.1" id="Layer_1" xmlns="http://www.w3.org/2000/svg" xmlns:xlink="http://www.w3.org/1999/xlink" x="0px" y="0px"
	 width="595.281px" height="841.891px" viewBox="0 0 595.281 841.891" enable-background="new 0 0 595.281 841.891"
	 xml:space="preserve">
<g>
	<path fill="#FFFFFF" d="M580.015,520.578c-5.442-5.297-13.652-6.496-20.374-2.965c-100.206,52.594-226.965,36.787-311.208-47.455
		c-84.246-84.247-100.048-211.012-47.454-311.214c3.533-6.713,2.32-14.937-2.987-20.358c-5.287-5.428-13.485-6.835-20.279-3.456
		c-28.536,14.166-55.312,33.097-79.089,56.873c-118.161,118.172-118.161,309.776,0,427.949c118.2,118.181,309.787,118.181,427.966,0
		c23.772-23.775,42.696-50.534,56.864-79.071C586.831,534.081,585.435,525.885,580.015,520.578L580.015,520.578z M370.787,454.766
		c-0.413,1.025-0.109,2.218,0.777,2.908c0.87,0.688,2.1,0.726,3.002,0.085l38.997-27.698l44.281,18.143
		c1.044,0.415,2.214,0.104,2.914-0.764c0.696-0.869,0.718-2.097,0.075-3.005l-27.701-39.016l18.142-44.266
		c0.421-1.028,0.118-2.217-0.767-2.909c-0.872-0.689-2.101-0.726-3.013-0.086l-38.99,27.697l-44.29-18.136
		c-1.036-0.418-2.201-0.109-2.905,0.761c-0.704,0.868-0.717,2.099-0.075,3.005l27.703,39.015L370.787,454.766L370.787,454.766z
		 M268.32,244.934l32.181,2.382l15.198,28.449c0.51,0.982,1.627,1.504,2.724,1.268c1.093-0.229,1.882-1.154,1.98-2.267l2.382-32.16
		l28.454-15.213c0.983-0.528,1.497-1.633,1.272-2.729c-0.229-1.086-1.151-1.898-2.27-1.973l-32.18-2.38l-15.202-28.449
		c-0.514-0.983-1.627-1.503-2.72-1.266c-1.097,0.227-1.886,1.15-1.981,2.266l-2.384,32.161l-28.454,15.21
		c-0.984,0.529-1.493,1.634-1.272,2.73C266.28,244.049,267.205,244.861,268.32,244.934L268.32,244.934z M472.047,212.765
		l-0.981,17.876c-0.053,1.103,0.629,2.123,1.684,2.491c1.036,0.37,2.212,0,2.847-0.907l10.387-14.568l17.907,0.971
		c1.115,0.067,2.136-0.614,2.491-1.67c0.375-1.049,0-2.22-0.904-2.86L490.898,203.7l0.963-17.892
		c0.051-1.106-0.629-2.126-1.665-2.493c-1.057-0.367-2.228,0-2.869,0.907l-10.405,14.588l-17.865-0.973
		c-1.116-0.065-2.135,0.625-2.488,1.672c-0.385,1.049,0,2.219,0.898,2.862L472.047,212.765z"/>
</g>
</svg>
