<svg xmlns="http://www.w3.org/2000/svg" width="122.854" height="135.674" viewBox="0 0 122.854 135.674"><path fill="#4569AC" d="M111.04 30.783l-42.688-24.649c-2.143-1.235-4.523-1.868-6.915-1.91v-.001h-.019v.001c-2.39.042-4.772.675-6.915 1.911l-42.689 24.645c-4.434 2.561-7.165 7.29-7.165 12.411v49.292c0 5.12 2.731 9.852 7.165 12.409l42.688 24.649c2.143 1.234 4.523 1.867 6.915 1.91h.019c2.39-.043 4.772-.675 6.915-1.911l42.688-24.646c4.434-2.561 7.165-7.29 7.165-12.411v-49.291c.001-5.12-2.73-9.852-7.164-12.409z"/><path opacity=".07" fill="#262626" d="M61.25 131.42c2.396-.039 4.785-.672 6.934-1.912l42.688-24.645c4.434-2.561 7.166-7.291 7.166-12.412v-49.291c0-5.12-2.732-9.852-7.166-12.409l-42.688-24.649c-2.148-1.238-4.535-1.872-6.934-1.911v127.229z"/><path fill="#fff" d="M66.201 54.996v-5.133c0-2.5 1.67-3.084 2.838-3.084h7.205v-10.993l-9.92-.044c-11.01 0-13.51 8.203-13.51 13.455v5.799h-6.365v12.842h6.42v32.094h12.838v-32.094h9.527l.461-5.045.711-7.796h-10.205z"/></svg>