<?xml version="1.0" encoding="utf-8"?>
<!-- Generator: Adobe Illustrator 16.0.0, SVG Export Plug-In . SVG Version: 6.00 Build 0)  -->
<!DOCTYPE svg PUBLIC "-//W3C//DTD SVG 1.1//EN" "http://www.w3.org/Graphics/SVG/1.1/DTD/svg11.dtd">
<svg version="1.1" id="Layer_1" xmlns="http://www.w3.org/2000/svg" xmlns:xlink="http://www.w3.org/1999/xlink" x="0px" y="0px"
	 width="122.854px" height="135.674px" viewBox="0 0 122.854 135.674" enable-background="new 0 0 122.854 135.674"
	 xml:space="preserve">
<path fill="#4569AC" d="M111.04,30.783L68.352,6.134c-2.143-1.235-4.523-1.868-6.915-1.91V4.223c-0.004,0-0.006,0-0.009,0
	s-0.007,0-0.01,0v0.001c-2.39,0.042-4.772,0.675-6.915,1.911L11.814,30.78c-4.434,2.561-7.165,7.29-7.165,12.411v49.292
	c0,5.12,2.731,9.852,7.165,12.409l42.688,24.649c2.143,1.234,4.523,1.867,6.915,1.91l0,0c0.003,0,0.007,0,0.01,0s0.005,0,0.009,0
	l0,0c2.39-0.043,4.772-0.675,6.915-1.911l42.688-24.646c4.434-2.561,7.165-7.29,7.165-12.411V43.192
	C118.205,38.072,115.474,33.34,111.04,30.783z"/>
<path opacity="0.07" fill="#262626" d="M61.25,131.42c2.396-0.039,4.785-0.672,6.934-1.912l42.688-24.645
	c4.434-2.561,7.166-7.291,7.166-12.412V43.16c0-5.12-2.732-9.852-7.166-12.409L68.184,6.102c-2.148-1.238-4.535-1.872-6.934-1.911
	V131.42z"/>
<path id="XMLID_24_" fill="#FFFFFF" d="M66.201,54.996v-5.133c0-2.5,1.67-3.084,2.838-3.084c1.172,0,7.205,0,7.205,0V35.786
	l-9.92-0.044c-11.01,0-13.51,8.203-13.51,13.455v5.799h-6.365v7.759v5.083h6.42c0,14.549,0,32.094,0,32.094h12.838
	c0,0,0-17.723,0-32.094h9.527l0.461-5.045l0.711-7.796H66.201z"/>
</svg>
