<svg xmlns="http://www.w3.org/2000/svg" viewBox="0 0 30 30"><path fill="#fff" d="M15 3a1 1 0 0 0-.473.119l-13.99 6.994v.002a1 1 0 0 0-.537.885 1 1 0 0 0 .537.885v.002l13.984 6.99a1 1 0 0 0 .479.123 1 1 0 0 0 .473-.119l13.98-6.99a1 1 0 0 0 .01-.004v-.002a1 1 0 0 0 .537-.885 1 1 0 0 0-.537-.885v-.002l-13.984-6.99a1 1 0 0 0-.479-.123zm14 11.354l-2 1v8.924c-.596.346-1 .984-1 1.723 0 1.105 2 4 2 4s2-2.895 2-4c0-.739-.404-1.376-1-1.723v-9.924zm-23 2.498v4.148c0 2.761 4.029 5 9 5s9-2.239 9-5v-4.148l-7.635 3.818-.254.105c-.362.149-.734.225-1.111.225-.376 0-.747-.076-1.107-.225l-.258-.107-7.635-3.816z"/></svg>