<svg xmlns="http://www.w3.org/2000/svg" viewBox="0 0 30 30"><path fill="#fff" d="M11.99 2.998c-.258 0-.517.099-.715.297l-2.246 2.246-4.936-.779-.67.67 3.637 2.078-1.734 1.734-1.811-.453-.516.516 3.693 3.693.516-.516-.453-1.811 1.732-1.734 2.078 3.637.67-.67-.777-4.936 2.246-2.246c.395-.395.395-1.035 0-1.43-.197-.197-.456-.297-.715-.297zm3.01.002l-.182.01c.228.647.227 1.353 0 2l.182-.01c2.105 0 4.057.656 5.67 1.771l-.67.229v1h-1l-1 1v2l2-1 3 1-1 2-2-1h-2l-2 2v2l2 2h2l1 2-2.105 4.211c-1.198.508-2.514.789-3.895.789-.368 0-.731-.023-1.088-.063l-1.947-1.902.035-4.035-3-3h-3l-.758 1.162c-.154-.698-.242-1.419-.242-2.162 0-.278.02-.55.043-.822l-1.756-1.756c-.184.831-.287 1.692-.287 2.578 0 6.617 5.383 12 12 12s12-5.383 12-12-5.383-12-12-12z"/></svg>