<svg xmlns="http://www.w3.org/2000/svg" viewBox="0 0 50 50"><path fill="#fff" d="M24.906 3.969l-.125.031c-.465.105-.793.523-.781 1v6c-.004.359.184.695.496.879.313.18.695.18 1.008 0 .313-.184.5-.52.496-.879v-6c.012-.289-.105-.566-.313-.762-.211-.199-.496-.297-.781-.27zm-14.25 5.875c-.375.066-.676.34-.781.703-.105.367.004.758.281 1.016l4.25 4.25c.242.297.629.434 1.004.348.371-.086.664-.379.75-.75.086-.375-.051-.762-.348-1.004l-4.25-4.25c-.207-.223-.508-.336-.813-.313h-.094zm28.375 0c-.227.031-.438.145-.594.313l-4.25 4.25c-.297.242-.434.629-.348 1.004.086.371.379.664.75.75.375.086.762-.051 1.004-.348l4.25-4.25c.313-.297.402-.762.219-1.152-.188-.395-.602-.621-1.031-.566zm-14.031 5.156c-5.516 0-10 4.484-10 10s4.484 10 10 10 10-4.484 10-10-4.484-10-10-10zm-20.281 9c-.551.078-.938.59-.859 1.141.078.551.59.938 1.141.859h6c.359.004.695-.184.879-.496.18-.313.18-.695 0-1.008-.184-.313-.52-.5-.879-.496h-6.282zm34 0c-.551.078-.938.59-.859 1.141.078.551.59.938 1.141.859h6c.359.004.695-.184.879-.496.18-.313.18-.695 0-1.008-.184-.313-.52-.5-.879-.496h-6.282zm-23.719 9.875c-.227.031-.438.145-.594.313l-4.25 4.25c-.297.242-.434.629-.348 1.004.086.371.379.664.75.75.375.086.762-.051 1.004-.348l4.25-4.25c.297-.285.387-.727.227-1.105-.156-.379-.535-.621-.945-.613h-.094zm19.688 0c-.375.066-.676.34-.781.703-.105.367.004.758.281 1.016l4.25 4.25c.242.297.629.434 1.004.348.371-.086.664-.379.75-.75.086-.375-.051-.762-.348-1.004l-4.25-4.25c-.188-.199-.445-.309-.719-.313h-.188zm-9.781 4.094l-.125.031c-.465.105-.793.523-.781 1v6c-.004.359.184.695.496.879.313.18.695.18 1.008 0 .313-.184.5-.52.496-.879v-6c.012-.289-.105-.566-.313-.762-.211-.199-.496-.297-.781-.27z"/></svg>