<?xml version="1.0" encoding="utf-8"?>
<!-- Generator: Adobe Illustrator 16.0.0, SVG Export Plug-In . SVG Version: 6.00 Build 0)  -->
<!DOCTYPE svg PUBLIC "-//W3C//DTD SVG 1.1//EN" "http://www.w3.org/Graphics/SVG/1.1/DTD/svg11.dtd">
<svg version="1.1" xmlns="http://www.w3.org/2000/svg" xmlns:xlink="http://www.w3.org/1999/xlink" x="0px" y="0px"
	 width="122.854px" height="135.674px" viewBox="0 0 122.854 135.674" enable-background="new 0 0 122.854 135.674"
	 xml:space="preserve">
<g id="Layer_1" display="none">
	<path display="inline" fill="#4569AC" d="M111.04,30.783L68.352,6.134c-2.143-1.235-4.523-1.868-6.915-1.91V4.223
		c-0.004,0-0.006,0-0.009,0s-0.007,0-0.01,0v0.001c-2.39,0.042-4.772,0.675-6.915,1.911L11.814,30.78
		c-4.434,2.561-7.165,7.29-7.165,12.411v49.292c0,5.12,2.731,9.852,7.165,12.409l42.688,24.649c2.143,1.234,4.523,1.867,6.915,1.91
		l0,0c0.003,0,0.007,0,0.01,0s0.005,0,0.009,0l0,0c2.39-0.043,4.772-0.675,6.915-1.911l42.688-24.646
		c4.434-2.561,7.165-7.29,7.165-12.411V43.192C118.205,38.072,115.474,33.34,111.04,30.783z"/>
	<path display="inline" opacity="0.07" fill="#262626" d="M61.25,131.42c2.396-0.039,4.785-0.672,6.934-1.912l42.688-24.645
		c4.434-2.561,7.166-7.291,7.166-12.412V43.16c0-5.12-2.732-9.852-7.166-12.409L68.184,6.102c-2.148-1.238-4.535-1.872-6.934-1.911
		V131.42z"/>
	<path id="XMLID_24_" display="inline" fill="#FFFFFF" d="M66.201,54.996v-5.133c0-2.5,1.67-3.084,2.838-3.084
		c1.172,0,7.205,0,7.205,0V35.786l-9.92-0.044c-11.01,0-13.51,8.203-13.51,13.455v5.799h-6.365v7.759v5.083h6.42
		c0,14.549,0,32.094,0,32.094h12.838c0,0,0-17.723,0-32.094h9.527l0.461-5.045l0.711-7.796H66.201z"/>
</g>
<g id="Layer_2">
	<g>
		<path fill="#62ACC7" d="M110.934,30.782L68.244,6.133c-2.143-1.235-4.523-1.868-6.914-1.91V4.222c-0.004,0-0.006,0-0.01,0
			c-0.002,0-0.006,0-0.01,0v0.001c-2.389,0.042-4.772,0.675-6.915,1.911L11.708,30.78c-4.434,2.561-7.165,7.29-7.165,12.411v49.292
			c0,5.119,2.731,9.852,7.165,12.408l42.688,24.648c2.143,1.236,4.524,1.869,6.915,1.91v0.002c0.004,0,0.008,0,0.01,0
			c0.004,0,0.006,0,0.01,0v-0.002c2.389-0.041,4.771-0.674,6.914-1.91l42.689-24.646c4.434-2.559,7.164-7.289,7.164-12.41V43.191
			C118.098,38.071,115.367,33.34,110.934,30.782z"/>
		<path opacity="0.07" fill="#545454" d="M61.525,131.451c2.396-0.039,4.785-0.672,6.934-1.912l42.688-24.646
			c4.434-2.559,7.166-7.289,7.166-12.41V43.191c0-5.12-2.732-9.852-7.166-12.409L68.459,6.133c-2.148-1.238-4.535-1.872-6.934-1.911
			V131.451z"/>
		<polygon fill="#FFFFFF" points="38.514,66.836 38.514,93.172 51.059,93.172 51.059,64.721 51.059,57.32 38.514,57.32 		"/>
		<path fill="#FFFFFF" d="M44.788,39.394c-3.469,0-6.273,2.814-6.273,6.272c0,3.469,2.805,6.276,6.273,6.276
			s6.271-2.807,6.271-6.276C51.059,42.208,48.256,39.394,44.788,39.394z"/>
		<path fill="#FFFFFF" d="M92.016,68.334c-0.844-6.757-3.949-11.014-13.084-11.014c-5.422,0-9.063,2.012-10.549,4.841h-0.154V57.32
			H58.227v6.879v28.973h10.451V75.404c0-4.684,0.889-9.223,6.682-9.223c5.709,0,6.168,5.355,6.168,9.527v17.463h10.762V73.475
			C92.289,71.637,92.215,69.912,92.016,68.334z"/>
	</g>
</g>
</svg>
