<svg xmlns="http://www.w3.org/2000/svg" width="122.854" height="135.674" viewBox="0 0 122.854 135.674"><path fill="#62ACC7" d="M110.934 30.782l-42.69-24.649c-2.143-1.235-4.523-1.868-6.914-1.91v-.001h-.02v.001c-2.389.042-4.772.675-6.915 1.911l-42.687 24.646c-4.434 2.561-7.165 7.29-7.165 12.411v49.292c0 5.119 2.731 9.852 7.165 12.408l42.688 24.648c2.143 1.236 4.524 1.869 6.915 1.91v.002h.02v-.002c2.389-.041 4.771-.674 6.914-1.91l42.689-24.646c4.434-2.559 7.164-7.289 7.164-12.41v-49.292c0-5.12-2.731-9.851-7.164-12.409z"/><path opacity=".07" fill="#545454" d="M61.525 131.451c2.396-.039 4.785-.672 6.934-1.912l42.688-24.646c4.434-2.559 7.166-7.289 7.166-12.41v-49.292c0-5.12-2.732-9.852-7.166-12.409l-42.688-24.649c-2.148-1.238-4.535-1.872-6.934-1.911v127.229z"/><path fill="#fff" d="M38.514 66.836v26.336h12.545v-35.852h-12.545zm6.274-27.442c-3.469 0-6.273 2.814-6.273 6.272 0 3.469 2.805 6.276 6.273 6.276s6.271-2.807 6.271-6.276c0-3.458-2.803-6.272-6.271-6.272zm47.228 28.94c-.844-6.757-3.949-11.014-13.084-11.014-5.422 0-9.063 2.012-10.549 4.841h-.154v-4.841h-10.002v35.852h10.451v-17.768c0-4.684.889-9.223 6.682-9.223 5.709 0 6.168 5.355 6.168 9.527v17.463h10.762v-19.696c-.001-1.838-.075-3.563-.274-5.141z"/></svg>