<svg xmlns="http://www.w3.org/2000/svg" width="181.033" height="93.896" viewBox="0 0 181.033 93.896"><path d="M10.258 83.431l-.13 4.437c-.071 2.699-.183 3.121-1.139 4.06-.752.737-1.896 1.139-3.289 1.139-1.104 0-2.041-.256-2.795-.771-.403-.259-.756-.623-1.013-1.027-.478-.733-.626-1.453-.626-2.998v-4.593c0-1.548-.199-1.896-1.267-2.28v-.366h4.559v.366c-1.471.237-1.781.586-1.781 2.035v4.64c0 1.449.272 2.223 1.011 2.955.643.646 1.431.953 2.333.953.882 0 1.676-.33 2.241-.953.589-.644.754-1.283.754-2.868v-.422l-.127-4.305c-.038-1.465-.276-1.756-1.637-2.035v-.366h4.303v.366c-1.159.363-1.362.659-1.397 2.033m12.997 0l-.259 9.12-.698.662-7.04-9.723.127 6.911c.038 1.525.333 1.841 1.915 2.023v.385h-4.947v-.385c1.472-.222 1.71-.498 1.767-2.023l.256-5.957c0-2.075-.256-2.517-1.764-3.049v-.366h2.74l6.764 9.372-.129-6.971c-.039-1.487-.313-1.798-1.783-2.035v-.366h4.817v.366c-1.454.238-1.731.533-1.766 2.036m2.591 9.379v-.385c1.471-.222 1.767-.569 1.767-2.023v-6.971c0-1.409-.278-1.756-1.639-2.035v-.366h4.948v.366c-1.472.237-1.784.586-1.784 2.035v6.971c0 1.454.313 1.802 1.784 2.023v.385h-5.076zm14.762-9.891l-3.181 8.494c-.239.646-.422.976-1.011 1.71l-3.676-10.514c-.202-.571-.479-.848-1.27-1.213v-.366h3.935v.366c-.808.108-1.03.279-1.03.769 0 .239.129.833.258 1.195l2.408 6.857 2.042-6.214c.165-.513.256-.974.256-1.359 0-.622-.313-.9-1.395-1.248v-.366h4.043v.308c-.828.46-1.067.719-1.379 1.581m10.001 9.891h-8.106v-.385c1.468-.222 1.761-.569 1.761-2.023v-6.726c0-1.548-.183-1.896-1.266-2.28v-.366h7.353l.259 2.769-.388.132c-.751-1.526-1.396-2.078-2.535-2.149l-1.896-.129v4.815l1.784-.054c1.304-.055 1.634-.296 2.021-1.472h.386v3.807h-.386c-.294-1.31-.57-1.525-2.021-1.581l-1.784-.061v3.201c0 1.363.388 1.75 1.821 1.75 1.506 0 2.279-.594 3.253-2.409l.387.108-.643 3.053zm8.935-8.22c0 .959-.334 1.676-1.142 2.449-.403.108-.552.129-.976.129-.606 0-.843-.038-1.432-.257v-5.259c1.048.023 1.489.109 2.021.386.296.147.552.332.773.571.497.512.756 1.212.756 1.981m5.46 9.102v-.311c-.919-.079-1.289-.186-1.786-.516-.237-.167-.456-.332-.624-.497-.678-.68-1.505-1.802-3.679-5.017.976-.938 1.325-1.361 1.639-2.026.257-.512.387-1.099.387-1.67 0-1.653-1.215-2.76-2.979-2.76-.643 0-.957.04-2.226.262l-2.794-.208v.388c1.249.5 1.528.921 1.528 2.339v6.726c0 1.454-.297 1.802-1.768 2.023v.385h5.076v-.385c-1.474-.222-1.784-.569-1.784-2.023v-2.595c.33.04.589.061.751.061.188 0 .424-.021.771-.061 1.527 2.834 2.137 3.734 3.164 4.744.865.848 2.023 1.345 3.125 1.345.408 0 .646-.039 1.199-.204m3.344-.626c-.994 0-1.671-.162-3.179-.771l-.259-3.031.387-.185c.458 1.215.734 1.707 1.268 2.277.588.623 1.342 1.013 1.984 1.013 1.067 0 1.953-.883 1.953-1.986 0-.773-.334-1.229-1.4-1.949-1.6-1.064-2.169-1.488-2.794-2.095-.737-.698-1.011-1.34-1.011-2.354 0-1.91 1.38-3.213 3.438-3.213.788 0 1.377.125 2.646.625l.388 2.666-.388.181c-.29-.53-.586-1.011-.845-1.415-.608-.899-1.36-1.357-2.207-1.357-1.011 0-1.764.737-1.764 1.762 0 .513.241 1.16.625 1.6.479.515.974.885 2.922 2.153.498.308.885.606 1.142.883.478.495.754 1.248.754 2.06-.001 1.813-1.526 3.136-3.66 3.136m5.26-.256v-.385c1.469-.222 1.763-.569 1.763-2.023v-6.971c0-1.409-.276-1.756-1.636-2.035v-.366h4.944v.366c-1.471.237-1.781.586-1.781 2.035v6.971c0 1.454.311 1.802 1.781 2.023v.385h-5.071zm15.642-9.134c-.882-1.397-1.563-1.839-2.795-1.839h-1.269v8.564c0 1.247.589 1.781 2.281 2.023v.385h-5.958v-.385c1.617-.275 2.151-.793 2.151-2.023v-8.564h-1.269c-1.104 0-1.801.459-2.812 1.839l-.35-.205.605-2.7c1.639.44 2.114.495 4.596.495 2.446 0 2.925-.055 4.559-.495l.643 2.66-.382.245zm7.518-5.044l-3.676.754-.132-.237 3.313-1.789.752.518-.257.754zm1.525 14.178h-8.106v-.385c1.47-.222 1.764-.569 1.764-2.023v-6.726c0-1.548-.185-1.896-1.269-2.28v-.366h7.354l.257 2.769-.387.132c-.754-1.526-1.395-2.078-2.535-2.149l-1.894-.129v4.815l1.785-.054c1.304-.055 1.634-.296 2.018-1.472h.388v3.807h-.388c-.293-1.31-.568-1.525-2.018-1.581l-1.785-.061v3.201c0 1.363.388 1.75 1.819 1.75 1.509 0 2.277-.594 3.252-2.409l.388.108-.643 3.053zm15.884-6.061c0 3.192-1.839 5.364-4.542 5.364-1.34 0-1.93-.609-1.93-1.969v-8.619c1.888.051 2.701.219 3.808.827.566.311 1.081.715 1.522 1.208.812.904 1.142 1.826 1.142 3.189m1.764.236c0-3.625-2.797-6.089-6.932-6.089-.788 0-1.692.04-2.702.134l-1.525.128v.367c1.231.256 1.399.497 1.399 2.151v6.726c0 1.454-.296 1.802-1.767 2.023v.385h3.031c1.068.094 1.951.13 2.634.13 3.506 0 5.862-2.406 5.862-5.955m2.612-.959l-.518-.568c.222-.146.387-.274.518-.388.438-.384.751-1.008.751-1.51 0-.308-.145-.584-.385-.695l-.366-.202c-.316-.146-.518-.455-.518-.811 0-.606.48-1.081 1.086-1.081.752 0 1.319.843 1.319 1.98.001.941-.402 1.619-1.887 3.275m9.095 1.967h-3.675l1.782-5.384 1.893 5.384zm3.937 4.817v-.385c-.7-.333-.936-.592-1.141-1.143l-3.679-10.253h-1.139l-3.423 9.372c-.546 1.508-.66 1.634-1.779 2.023v.385h4.151v-.385c-1.032-.148-1.434-.446-1.434-1.049 0-.221.074-.591.205-1.101l.369-1.527h4.188l.753 2.037c.094.223.132.441.132.667 0 .512-.221.771-.885.973v.385h3.682zm7.406-8.22c0 .959-.33 1.676-1.141 2.449-.404.108-.552.129-.973.129-.609 0-.848-.038-1.433-.257v-5.259c1.048.023 1.488.109 2.019.386.295.147.554.332.771.571.499.512.757 1.212.757 1.981m5.458 9.102v-.311c-.919-.079-1.284-.186-1.779-.516-.241-.167-.461-.332-.631-.497-.678-.68-1.505-1.802-3.674-5.017.974-.938 1.321-1.361 1.634-2.026.261-.512.39-1.099.39-1.67 0-1.653-1.212-2.76-2.978-2.76-.643 0-.957.04-2.225.262l-2.796-.208v.388c1.252.5 1.527.921 1.527 2.339v6.726c0 1.454-.293 1.802-1.764 2.023v.385h5.073v-.385c-1.474-.222-1.782-.569-1.782-2.023v-2.595c.331.04.585.061.752.061.185 0 .422-.021.774-.061 1.522 2.834 2.131 3.734 3.158 4.744.863.848 2.022 1.345 3.129 1.345.403 0 .643-.039 1.192-.204m8.917-10.016c-.882-1.397-1.56-1.839-2.794-1.839h-1.269v8.564c0 1.247.589 1.781 2.279 2.023v.385h-5.956v-.385c1.619-.275 2.148-.793 2.148-2.023v-8.564h-1.267c-1.099 0-1.804.459-2.813 1.839l-.348-.205.606-2.7c1.639.44 2.113.495 4.595.495 2.447 0 2.92-.055 4.559-.495l.646 2.66-.386.245zm10.828 3.525c0 3.075-1.433 5.094-3.603 5.094-2.356 0-4.138-2.447-4.138-5.645 0-3.05 1.434-5.125 3.546-5.125 2.411 0 4.195 2.424 4.195 5.676m1.895-.256c0-1.838-.683-3.514-1.895-4.725-1.012-.994-2.263-1.449-3.917-1.449-3.382 0-5.736 2.518-5.736 6.174 0 3.549 2.41 6.121 5.736 6.121 3.438 0 5.812-2.499 5.812-6.121m1.214 5.865v-.385c1.466-.222 1.765-.569 1.765-2.023v-6.971c0-1.409-.276-1.756-1.639-2.035v-.366h4.945v.366c-1.469.237-1.786.586-1.786 2.035v6.971c0 1.454.317 1.802 1.786 2.023v.385h-5.071zm10.074.256c-.997 0-1.677-.162-3.182-.771l-.259-3.031.384-.185c.461 1.215.735 1.707 1.27 2.277.592.623 1.343 1.013 1.985 1.013 1.07 0 1.952-.883 1.952-1.986 0-.773-.333-1.229-1.397-1.949-1.599-1.064-2.171-1.488-2.796-2.095-.737-.698-1.014-1.34-1.014-2.354 0-1.91 1.38-3.213 3.442-3.213.789 0 1.378.125 2.646.625l.385 2.666-.385.181c-.298-.53-.589-1.011-.848-1.415-.608-.899-1.357-1.357-2.208-1.357-1.007 0-1.764.737-1.764 1.762 0 .513.236 1.16.625 1.6.479.515.977.885 2.926 2.153.492.308.88.606 1.136.883.48.495.757 1.248.757 2.06.001 1.813-1.527 3.136-3.655 3.136m-80.008-88.391s-11.32-2.986-17.813 14.654c-4.485 10.118-3.722 9.356-6.325 14.798-2.795 5.841-5.461 7.921-4.66 7.513 0 0 9.78 1.702 17.896-14.74 4.478-9.072 5.871-20.223 11.261-22.237m-31.016 39.808c.578-.621.898-1.038.898-1.038-7.335 3.903-8.602 1.665-9.195-1.064-.589-2.73 3.304-12.876 6.236-22.433 2.933-9.563-.902-12.876-3.478-12.49-2.578.393-7.3 1.563-7.3 1.563s1.589-.194 2.821 3.123c.97 2.606-5.357 20.677-5.357 20.677s-4.09 11.709.175 15.444c5.844 3.969 12.498-1.382 15.2-3.782m113.836-14.676c-25.626-4.698-50.813-1.248-72.401 4.963-.424 1.269-.81 2.43-1.16 3.465 43.947-12.363 73.561-8.428 73.561-8.428m-85.222 9.092c-30.035 10.717-50.451 25.19-50.451 25.19 17.453-9.722 34.053-16.78 49.275-21.889l.278-.784c.305-.852.606-1.689.898-2.517m7.474 23.37c-3.525-3.526 1.15-15.425 2.642-19.53.289-.791.833-2.372 1.545-4.504.351-1.035.736-2.196 1.16-3.465 2.026-6.091 4.805-14.565 7.397-22.519 2.642-8.74.138-12.239-5.256-12.239-3.819 1.177-9.839 2.349-9.839 2.349s6.899.147 4.109 8.957c-1.705 5.394-4.737 14.899-9.232 27.582l-.897 2.518-.278.784c-3.347 9.511-6.771 22.403 2.497 26.029 6.754 2.645 17.46-3.76 23.329-11.245-8.807 6.016-13.653 8.809-17.177 5.283" fill="#ABABAB"/></svg>