<?xml version="1.0" encoding="UTF-8" standalone="no"?>
<!DOCTYPE svg PUBLIC "-//W3C//DTD SVG 1.1//EN" "http://www.w3.org/Graphics/SVG/1.1/DTD/svg11.dtd">
<svg width="100%" height="100%" viewBox="0 0 782 782" version="1.1" xmlns="http://www.w3.org/2000/svg" xmlns:xlink="http://www.w3.org/1999/xlink" xml:space="preserve" xmlns:serif="http://www.serif.com/" style="fill-rule:evenodd;clip-rule:evenodd;stroke-linejoin:round;stroke-miterlimit:1.41421;">
    <rect id="Plan-de-travail1" serif:id="Plan de travail1" x="0" y="0" width="781.111" height="781.111" style="fill:none;"/>
    <g id="Plan-de-travail11" serif:id="Plan de travail1">
        <g id="Calque-1" serif:id="Calque 1" transform="matrix(4.16667,0,0,4.16667,0,0)">
            <g transform="matrix(-1,-0,0,1,113.545,-764.007)">
                <rect x="79.271" y="782.908" width="3.902" height="51.258" style="fill:white;"/>
            </g>
            <g transform="matrix(1,0,0,1,86.0958,35.9527)">
                <path d="M0,17.578C0,20.86 -0.745,23.801 -2.234,26.402C-3.725,29.004 -5.801,31.025 -8.464,32.467C-11.127,33.908 -14.159,34.629 -17.561,34.629C-20.938,34.629 -23.972,33.908 -26.658,32.467C-29.344,31.025 -31.432,29.004 -32.922,26.402C-34.411,23.801 -35.156,20.86 -35.156,17.578L-35.156,-17.051L-31.254,-17.051L-31.254,17.086C-31.254,19.898 -30.687,22.365 -29.551,24.486C-28.416,26.608 -26.807,28.254 -24.724,29.426C-22.641,30.598 -20.253,31.183 -17.561,31.183C-14.916,31.183 -12.546,30.598 -10.451,29.426C-8.355,28.254 -6.74,26.608 -5.605,24.486C-4.471,22.365 -3.902,19.898 -3.902,17.086L-3.902,-17.051L0,-17.051L0,17.578Z" style="fill:white;fill-rule:nonzero;"/>
            </g>
            <g transform="matrix(1,0,0,1,131.52,66.7151)">
                <path d="M0,-44.368L-15.328,-44.368L-15.328,3.445L-19.23,3.445L-19.23,-44.368L-34.488,-44.368L-34.488,-47.813L0,-47.813L0,-44.368Z" style="fill:rgb(255, 255, 255);fill-rule:nonzero;"/>
            </g>
            <g transform="matrix(-1,-0,0,1,344.65,-634.57)">
                <rect x="188.517" y="735.56" width="16.515" height="16.517" style="fill:rgb(2,183,163);"/>
            </g>
            <g transform="matrix(-1,-0,0,1,344.65,-675.506)">
                <rect x="188.517" y="756.027" width="16.515" height="16.519" style="fill:rgb(238,40,124);"/>
            </g>
            <g transform="matrix(-1,-0,0,1,344.65,-716.44)">
                <rect x="188.517" y="776.493" width="16.515" height="16.521" style="fill:rgb(238,139,41);"/>
            </g>
            <g transform="matrix(-1,-0,0,1,344.65,-757.374)">
                <rect x="188.517" y="796.963" width="16.515" height="16.515" style="fill:rgb(206,221,69);"/>
            </g>
            <g transform="matrix(-1,-0,0,1,344.65,-799.03)">
                <rect x="188.517" y="817.791" width="16.515" height="16.515" style="fill:rgb(156,75,157);"/>
            </g>
            <g transform="matrix(1,0,0,1,53.6652,130.664)">
                <path d="M0,37.731L-22.903,37.731L-22.903,0L-20.03,0L-20.03,35.195L0,35.195L0,37.731Z" style="fill:white;fill-rule:nonzero;"/>
            </g>
            <g transform="matrix(1,0,0,1,84.9757,130.664)">
                <path d="M0,37.731L-22.903,37.731L-22.903,0L0,0L0,2.536L-20.03,2.536L-20.03,17.442L-2.976,17.442L-2.976,19.978L-20.03,19.978L-20.03,35.195L0,35.195L0,37.731Z" style="fill:white;fill-rule:nonzero;"/>
            </g>
            <g transform="matrix(1,0,0,1,122.29,130.664)">
                <path d="M0,37.731L-2.873,37.731L-24.637,4.917L-24.637,37.731L-27.51,37.731L-27.51,0L-24.637,0L-2.873,32.685L-2.873,0L0,0L0,37.731Z" style="fill:white;fill-rule:nonzero;"/>
            </g>
            <g transform="matrix(1,0,0,1,157.095,140.782)">
                <path d="M0,17.494C0,19.047 -0.289,20.474 -0.866,21.777C-1.444,23.08 -2.281,24.184 -3.377,25.089C-4.473,25.995 -5.818,26.694 -7.414,27.186C-9.01,27.677 -10.774,27.923 -12.706,27.923C-14.501,27.923 -16.14,27.75 -17.623,27.406C-19.107,27.061 -20.47,26.517 -21.712,25.775C-22.954,25.034 -24.145,24.093 -25.283,22.954L-23.265,20.936C-22.128,22.075 -21.033,22.967 -19.982,23.615C-18.931,24.261 -17.803,24.719 -16.597,24.986C-15.391,25.254 -14.047,25.387 -12.564,25.387C-10.583,25.387 -8.869,25.081 -7.421,24.468C-5.974,23.856 -4.854,22.959 -4.062,21.777C-3.269,20.596 -2.872,19.202 -2.872,17.598C-2.872,15.286 -3.562,13.517 -4.939,12.292C-5.577,11.741 -6.283,11.322 -7.059,11.037C-7.834,10.752 -8.945,10.498 -10.393,10.274L-14.786,9.601C-17.646,9.17 -19.888,8.247 -21.508,6.832C-23.49,5.176 -24.48,2.864 -24.48,-0.104C-24.48,-1.691 -24.201,-3.127 -23.641,-4.413C-23.08,-5.697 -22.3,-6.784 -21.3,-7.673C-20.301,-8.562 -19.067,-9.243 -17.603,-9.717C-16.137,-10.192 -14.525,-10.429 -12.767,-10.429C-10.474,-10.429 -8.5,-10.106 -6.845,-9.459C-5.189,-8.812 -3.543,-7.781 -1.905,-6.366L-3.776,-4.503C-5.104,-5.693 -6.443,-6.573 -7.795,-7.143C-9.147,-7.712 -10.857,-7.997 -12.925,-7.997C-15.647,-7.997 -17.784,-7.298 -19.334,-5.901C-20.885,-4.503 -21.66,-2.605 -21.66,-0.207C-21.66,1.984 -21.015,3.623 -19.722,4.71C-19.016,5.279 -18.15,5.775 -17.125,6.198C-16.1,6.621 -15.088,6.901 -14.088,7.039L-10.031,7.686C-8.285,7.945 -6.921,8.255 -5.936,8.618C-4.95,8.98 -4.069,9.497 -3.291,10.17C-2.221,11.05 -1.404,12.116 -0.842,13.367C-0.28,14.618 0,15.993 0,17.494" style="fill:white;fill-rule:nonzero;"/>
            </g>
            <g transform="matrix(-1,-0,0,1,241.729,-684.542)">
                <rect x="144.989" y="764.533" width="0.65" height="8.543" style="fill:white;"/>
            </g>
            <g transform="matrix(1,0,0,1,103.672,82.6801)">
                <path d="M0,5.854L-0.609,5.854L-0.609,2.268C-0.609,1.709 -0.746,1.282 -1.02,0.985C-1.293,0.688 -1.687,0.54 -2.203,0.54C-2.547,0.54 -2.841,0.607 -3.085,0.742C-3.329,0.876 -3.516,1.074 -3.645,1.333C-3.773,1.593 -3.838,1.905 -3.838,2.268L-3.838,5.854L-4.447,5.854L-4.447,0.071L-3.838,0.071L-3.838,0.756C-3.404,0.252 -2.836,0 -2.133,0C-1.484,0 -0.973,0.184 -0.598,0.551C-0.199,0.93 0,1.465 0,2.157L0,5.854Z" style="fill:white;fill-rule:nonzero;"/>
            </g>
            <g transform="matrix(1,0,0,1,110.023,84.3976)">
                <path d="M0,2.49C0,2.838 -0.095,3.141 -0.285,3.401C-0.474,3.661 -0.744,3.86 -1.094,3.999C-1.444,4.137 -1.852,4.207 -2.317,4.207C-3.303,4.207 -4.085,3.931 -4.664,3.381L-4.241,2.959C-3.791,3.431 -3.157,3.668 -2.34,3.668C-1.777,3.668 -1.346,3.569 -1.046,3.372C-0.747,3.175 -0.598,2.881 -0.598,2.49C-0.598,2.193 -0.687,1.967 -0.867,1.81C-1.047,1.654 -1.326,1.558 -1.705,1.523L-2.666,1.435C-3.83,1.342 -4.412,0.838 -4.412,-0.076C-4.412,-0.405 -4.327,-0.693 -4.157,-0.941C-3.987,-1.189 -3.745,-1.38 -3.432,-1.515C-3.119,-1.65 -2.751,-1.717 -2.329,-1.717C-1.922,-1.717 -1.545,-1.663 -1.197,-1.556C-0.849,-1.448 -0.549,-1.299 -0.299,-1.108L-0.709,-0.698C-1.154,-1.026 -1.693,-1.19 -2.326,-1.19C-2.803,-1.19 -3.168,-1.092 -3.422,-0.897C-3.676,-0.701 -3.803,-0.428 -3.803,-0.076C-3.803,0.228 -3.708,0.458 -3.519,0.612C-3.329,0.766 -3.031,0.861 -2.625,0.896L-1.693,0.978C-1.154,1.025 -0.737,1.158 -0.442,1.377C-0.147,1.595 0,1.967 0,2.49" style="fill:white;fill-rule:nonzero;"/>
            </g>
            <g transform="matrix(1,0,0,1,113.925,80.8991)">
                <path d="M0,7.635L-0.526,7.635C-0.818,7.635 -1.069,7.571 -1.279,7.442C-1.49,7.313 -1.648,7.135 -1.755,6.908C-1.862,6.682 -1.916,6.42 -1.916,6.123L-1.916,2.309L-2.707,2.309L-2.707,1.852L-1.916,1.852L-1.916,0L-1.307,0L-1.307,1.852L0,1.852L0,2.309L-1.307,2.309L-1.307,6.135C-1.307,6.776 -1.012,7.096 -0.422,7.096L0,7.096L0,7.635Z" style="fill:white;fill-rule:nonzero;"/>
            </g>
            <g transform="matrix(1,0,0,1,-48.8993,-684.612)">
                <path d="M165.274,773.146L164.665,773.146L164.665,767.363L165.274,767.363L165.274,773.146ZM165.42,764.975C165.42,765.101 165.377,765.209 165.292,765.299C165.206,765.39 165.1,765.435 164.975,765.435C164.85,765.435 164.743,765.39 164.653,765.299C164.563,765.209 164.518,765.105 164.518,764.987C164.518,764.861 164.562,764.754 164.65,764.665C164.738,764.577 164.842,764.533 164.963,764.533C165.092,764.533 165.201,764.577 165.289,764.665C165.376,764.754 165.42,764.857 165.42,764.975" style="fill:white;fill-rule:nonzero;"/>
            </g>
            <g transform="matrix(1,0,0,1,120.769,80.8991)">
                <path d="M0,7.635L-0.526,7.635C-0.818,7.635 -1.069,7.571 -1.279,7.442C-1.49,7.313 -1.648,7.135 -1.755,6.908C-1.862,6.682 -1.916,6.42 -1.916,6.123L-1.916,2.309L-2.707,2.309L-2.707,1.852L-1.916,1.852L-1.916,0L-1.307,0L-1.307,1.852L0,1.852L0,2.309L-1.307,2.309L-1.307,6.135C-1.307,6.776 -1.012,7.096 -0.422,7.096L0,7.096L0,7.635Z" style="fill:white;fill-rule:nonzero;"/>
            </g>
            <g transform="matrix(1,0,0,1,126.986,82.8211)">
                <path d="M0,5.713L-0.609,5.713L-0.609,5.027C-1.042,5.531 -1.61,5.783 -2.312,5.783C-2.959,5.783 -3.47,5.6 -3.845,5.233C-4.247,4.85 -4.447,4.315 -4.447,3.627L-4.447,-0.07L-3.838,-0.07L-3.838,3.516C-3.838,4.074 -3.701,4.502 -3.428,4.799C-3.154,5.096 -2.76,5.244 -2.244,5.244C-1.9,5.244 -1.606,5.177 -1.362,5.042C-1.118,4.907 -0.932,4.71 -0.803,4.45C-0.674,4.191 -0.609,3.879 -0.609,3.516L-0.609,-0.07L0,-0.07L0,5.713Z" style="fill:white;fill-rule:nonzero;"/>
            </g>
            <g transform="matrix(1,0,0,1,131.381,80.8991)">
                <path d="M0,7.635L-0.526,7.635C-0.818,7.635 -1.069,7.571 -1.279,7.442C-1.49,7.313 -1.648,7.135 -1.755,6.908C-1.862,6.682 -1.916,6.42 -1.916,6.123L-1.916,2.309L-2.707,2.309L-2.707,1.852L-1.916,1.852L-1.916,0L-1.307,0L-1.307,1.852L0,1.852L0,2.309L-1.307,2.309L-1.307,6.135C-1.307,6.776 -1.012,7.096 -0.422,7.096L0,7.096L0,7.635Z" style="fill:white;fill-rule:nonzero;"/>
            </g>
            <g transform="matrix(1,0,0,1,71.6676,97.234)">
                <path d="M0,2.929C0,3.476 -0.124,3.966 -0.373,4.4C-0.621,4.833 -0.967,5.17 -1.411,5.41C-1.854,5.651 -2.36,5.771 -2.927,5.771C-3.49,5.771 -3.995,5.651 -4.443,5.41C-4.891,5.17 -5.239,4.833 -5.487,4.4C-5.735,3.966 -5.859,3.476 -5.859,2.929L-5.859,-2.842L-5.209,-2.842L-5.209,2.847C-5.209,3.316 -5.114,3.727 -4.925,4.08C-4.736,4.434 -4.468,4.708 -4.121,4.904C-3.773,5.099 -3.375,5.197 -2.927,5.197C-2.486,5.197 -2.091,5.099 -1.742,4.904C-1.393,4.708 -1.124,4.434 -0.934,4.08C-0.745,3.727 -0.65,3.316 -0.65,2.847L-0.65,-2.842L0,-2.842L0,2.929Z" style="fill:white;fill-rule:nonzero;"/>
            </g>
            <g transform="matrix(1,0,0,1,78.482,97.0805)">
                <path d="M0,5.854L-0.609,5.854L-0.609,2.268C-0.609,1.709 -0.746,1.282 -1.02,0.985C-1.293,0.688 -1.687,0.54 -2.203,0.54C-2.547,0.54 -2.841,0.607 -3.085,0.742C-3.329,0.876 -3.516,1.074 -3.645,1.333C-3.773,1.593 -3.838,1.905 -3.838,2.268L-3.838,5.854L-4.447,5.854L-4.447,0.071L-3.838,0.071L-3.838,0.756C-3.404,0.252 -2.836,0 -2.133,0C-1.484,0 -0.973,0.184 -0.598,0.551C-0.199,0.93 0,1.465 0,2.157L0,5.854Z" style="fill:white;fill-rule:nonzero;"/>
            </g>
            <g transform="matrix(1,0,0,1,-48.8993,-655.812)">
                <path d="M130.252,758.746L129.643,758.746L129.643,752.963L130.252,752.963L130.252,758.746ZM130.399,750.575C130.399,750.701 130.356,750.81 130.27,750.9C130.184,750.99 130.079,751.035 129.954,751.035C129.829,751.035 129.721,750.99 129.631,750.9C129.542,750.81 129.497,750.705 129.497,750.587C129.497,750.461 129.541,750.354 129.628,750.266C129.716,750.177 129.821,750.133 129.942,750.133C130.071,750.133 130.179,750.177 130.267,750.266C130.355,750.354 130.399,750.457 130.399,750.575" style="fill:white;fill-rule:nonzero;"/>
            </g>
            <g transform="matrix(1,0,0,1,87.5113,102.934)">
                <path d="M0,-5.783L-2.109,0L-2.713,0L-4.822,-5.783L-4.154,-5.783L-2.414,-0.721L-0.674,-5.783L0,-5.783Z" style="fill:white;fill-rule:nonzero;"/>
            </g>
            <g transform="matrix(1,0,0,1,92.527,100.402)">
                <path d="M0,-0.72C-0.012,-1.005 -0.029,-1.211 -0.053,-1.338C-0.076,-1.465 -0.125,-1.622 -0.199,-1.81C-0.32,-2.107 -0.52,-2.343 -0.797,-2.519C-1.074,-2.695 -1.375,-2.783 -1.699,-2.783C-2.031,-2.783 -2.332,-2.696 -2.602,-2.522C-2.871,-2.348 -3.07,-2.111 -3.199,-1.81C-3.273,-1.622 -3.323,-1.458 -3.349,-1.318C-3.374,-1.177 -3.393,-0.978 -3.404,-0.72L0,-0.72ZM0.615,-0.228L-3.404,-0.228C-3.404,0.507 -3.243,1.07 -2.921,1.463C-2.599,1.855 -2.133,2.051 -1.523,2.051C-1.187,2.051 -0.9,1.999 -0.662,1.893C-0.424,1.788 -0.178,1.608 0.076,1.354L0.533,1.718C0.225,2.026 -0.086,2.251 -0.4,2.391C-0.714,2.532 -1.1,2.602 -1.556,2.602C-2.086,2.602 -2.534,2.49 -2.899,2.265C-3.264,2.041 -3.541,1.708 -3.73,1.266C-3.919,0.825 -4.014,0.282 -4.014,-0.363C-4.014,-0.831 -3.961,-1.248 -3.855,-1.614C-3.75,-1.979 -3.599,-2.286 -3.402,-2.536C-3.205,-2.786 -2.96,-2.98 -2.668,-3.116C-2.375,-3.253 -2.051,-3.322 -1.696,-3.322C-1.333,-3.322 -1.012,-3.259 -0.731,-3.134C-0.45,-3.009 -0.208,-2.824 -0.005,-2.58C0.198,-2.336 0.352,-2.04 0.457,-1.693C0.562,-1.345 0.615,-0.949 0.615,-0.503L0.615,-0.228Z" style="fill:white;fill-rule:nonzero;"/>
            </g>
            <g transform="matrix(1,0,0,1,98.8141,102.384)">
                <path d="M0,-4.752L-0.439,-4.307C-0.619,-4.486 -0.785,-4.607 -0.937,-4.67C-1.09,-4.732 -1.289,-4.764 -1.535,-4.764C-1.77,-4.764 -1.985,-4.718 -2.183,-4.626C-2.38,-4.534 -2.546,-4.406 -2.681,-4.242C-2.815,-4.078 -2.916,-3.893 -2.982,-3.686C-3.049,-3.479 -3.082,-3.254 -3.082,-3.012L-3.082,0.551L-3.691,0.551L-3.691,-5.232L-3.082,-5.232L-3.082,-4.465C-2.914,-4.731 -2.676,-4.937 -2.367,-5.083C-2.059,-5.23 -1.732,-5.303 -1.389,-5.303C-1.104,-5.303 -0.851,-5.262 -0.63,-5.18C-0.409,-5.098 -0.199,-4.955 0,-4.752" style="fill:white;fill-rule:nonzero;"/>
            </g>
            <g transform="matrix(1,0,0,1,104.123,98.798)">
                <path d="M0,2.49C0,2.838 -0.095,3.141 -0.285,3.401C-0.474,3.661 -0.744,3.86 -1.094,3.999C-1.444,4.137 -1.852,4.207 -2.317,4.207C-3.303,4.207 -4.085,3.931 -4.664,3.381L-4.241,2.959C-3.791,3.431 -3.157,3.668 -2.34,3.668C-1.777,3.668 -1.346,3.569 -1.046,3.372C-0.747,3.175 -0.598,2.881 -0.598,2.49C-0.598,2.193 -0.687,1.967 -0.867,1.81C-1.047,1.654 -1.326,1.558 -1.705,1.523L-2.666,1.435C-3.83,1.342 -4.412,0.838 -4.412,-0.076C-4.412,-0.405 -4.327,-0.693 -4.157,-0.941C-3.987,-1.189 -3.745,-1.38 -3.432,-1.515C-3.119,-1.65 -2.751,-1.717 -2.329,-1.717C-1.922,-1.717 -1.545,-1.663 -1.197,-1.556C-0.849,-1.448 -0.549,-1.299 -0.299,-1.108L-0.709,-0.698C-1.154,-1.026 -1.693,-1.19 -2.326,-1.19C-2.803,-1.19 -3.168,-1.092 -3.422,-0.897C-3.676,-0.701 -3.803,-0.428 -3.803,-0.076C-3.803,0.228 -3.708,0.458 -3.519,0.612C-3.329,0.766 -3.031,0.861 -2.625,0.896L-1.693,0.978C-1.154,1.025 -0.737,1.158 -0.442,1.377C-0.147,1.595 0,1.967 0,2.49" style="fill:white;fill-rule:nonzero;"/>
            </g>
            <g transform="matrix(1,0,0,1,-48.8993,-655.812)">
                <path d="M155.471,758.746L154.862,758.746L154.862,752.963L155.471,752.963L155.471,758.746ZM155.618,750.575C155.618,750.701 155.575,750.81 155.489,750.9C155.403,750.99 155.297,751.035 155.172,751.035C155.047,751.035 154.94,750.99 154.85,750.9C154.76,750.81 154.715,750.705 154.715,750.587C154.715,750.461 154.759,750.354 154.847,750.266C154.935,750.177 155.04,750.133 155.161,750.133C155.29,750.133 155.398,750.177 155.486,750.266C155.574,750.354 155.618,750.457 155.618,750.575" style="fill:white;fill-rule:nonzero;"/>
            </g>
            <g transform="matrix(1,0,0,1,110.966,95.2995)">
                <path d="M0,7.635L-0.526,7.635C-0.818,7.635 -1.069,7.571 -1.279,7.442C-1.49,7.313 -1.648,7.135 -1.755,6.908C-1.862,6.682 -1.916,6.42 -1.916,6.123L-1.916,2.309L-2.707,2.309L-2.707,1.852L-1.916,1.852L-1.916,0L-1.307,0L-1.307,1.852L0,1.852L0,2.309L-1.307,2.309L-1.307,6.135C-1.307,6.776 -1.012,7.096 -0.422,7.096L0,7.096L0,7.635Z" style="fill:white;fill-rule:nonzero;"/>
            </g>
            <g transform="matrix(1,0,0,1,116.205,99.1669)">
                <path d="M0,1.752L0,1.008L-1.802,1.008C-2.788,1.008 -3.281,1.397 -3.281,2.174C-3.281,2.557 -3.159,2.84 -2.915,3.023C-2.67,3.207 -2.287,3.299 -1.767,3.299C-1.45,3.299 -1.177,3.271 -0.948,3.214C-0.719,3.157 -0.511,3.037 -0.323,2.854C-0.107,2.654 0,2.287 0,1.752M0.609,3.768L0,3.768L0,3.193C-0.243,3.436 -0.495,3.604 -0.757,3.697C-1.019,3.791 -1.355,3.838 -1.766,3.838C-2.044,3.838 -2.291,3.82 -2.506,3.785C-2.721,3.75 -2.906,3.693 -3.061,3.615C-3.215,3.537 -3.353,3.436 -3.474,3.311C-3.752,3.022 -3.891,2.647 -3.891,2.186C-3.891,1.654 -3.711,1.243 -3.354,0.952C-2.996,0.661 -2.502,0.516 -1.872,0.516L0,0.516L0,-0.135C0,-0.611 -0.128,-0.966 -0.385,-1.198C-0.641,-1.431 -1.057,-1.547 -1.632,-1.547C-2.039,-1.547 -2.362,-1.491 -2.601,-1.38C-2.839,-1.269 -3.05,-1.08 -3.234,-0.814L-3.674,-1.201C-3.51,-1.432 -3.332,-1.609 -3.141,-1.734C-2.949,-1.859 -2.729,-1.949 -2.481,-2.004C-2.233,-2.059 -1.951,-2.086 -1.635,-2.086C-0.139,-2.086 0.609,-1.455 0.609,-0.193L0.609,3.768Z" style="fill:white;fill-rule:nonzero;"/>
            </g>
            <g transform="matrix(1,0,0,1,-48.8993,-655.812)">
                <path d="M168.602,758.746L167.993,758.746L167.993,752.963L168.602,752.963L168.602,758.746ZM168.749,750.575C168.749,750.701 168.706,750.81 168.62,750.9C168.534,750.99 168.428,751.035 168.303,751.035C168.178,751.035 168.071,750.99 167.981,750.9C167.891,750.81 167.846,750.705 167.846,750.587C167.846,750.461 167.89,750.354 167.978,750.266C168.066,750.177 168.17,750.133 168.292,750.133C168.42,750.133 168.529,750.177 168.617,750.266C168.705,750.354 168.749,750.457 168.749,750.575" style="fill:white;fill-rule:nonzero;"/>
            </g>
            <g transform="matrix(1,0,0,1,125.726,102.384)">
                <path d="M0,-4.752L-0.439,-4.307C-0.619,-4.486 -0.785,-4.607 -0.937,-4.67C-1.09,-4.732 -1.289,-4.764 -1.535,-4.764C-1.77,-4.764 -1.985,-4.718 -2.183,-4.626C-2.38,-4.534 -2.546,-4.406 -2.681,-4.242C-2.815,-4.078 -2.916,-3.893 -2.982,-3.686C-3.049,-3.479 -3.082,-3.254 -3.082,-3.012L-3.082,0.551L-3.691,0.551L-3.691,-5.232L-3.082,-5.232L-3.082,-4.465C-2.914,-4.731 -2.676,-4.937 -2.367,-5.083C-2.059,-5.23 -1.732,-5.303 -1.389,-5.303C-1.104,-5.303 -0.851,-5.262 -0.63,-5.18C-0.409,-5.098 -0.199,-4.955 0,-4.752" style="fill:white;fill-rule:nonzero;"/>
            </g>
            <g transform="matrix(1,0,0,1,130.625,100.402)">
                <path d="M0,-0.72C-0.012,-1.005 -0.029,-1.211 -0.053,-1.338C-0.076,-1.465 -0.125,-1.622 -0.199,-1.81C-0.32,-2.107 -0.52,-2.343 -0.797,-2.519C-1.074,-2.695 -1.375,-2.783 -1.699,-2.783C-2.031,-2.783 -2.332,-2.696 -2.602,-2.522C-2.871,-2.348 -3.07,-2.111 -3.199,-1.81C-3.273,-1.622 -3.323,-1.458 -3.349,-1.318C-3.374,-1.177 -3.393,-0.978 -3.404,-0.72L0,-0.72ZM0.615,-0.228L-3.404,-0.228C-3.404,0.507 -3.243,1.07 -2.921,1.463C-2.599,1.855 -2.133,2.051 -1.523,2.051C-1.187,2.051 -0.9,1.999 -0.662,1.893C-0.424,1.788 -0.178,1.608 0.076,1.354L0.533,1.718C0.225,2.026 -0.086,2.251 -0.4,2.391C-0.714,2.532 -1.1,2.602 -1.556,2.602C-2.086,2.602 -2.534,2.49 -2.899,2.265C-3.264,2.041 -3.541,1.708 -3.73,1.266C-3.919,0.825 -4.014,0.282 -4.014,-0.363C-4.014,-0.831 -3.961,-1.248 -3.855,-1.614C-3.75,-1.979 -3.599,-2.286 -3.402,-2.536C-3.205,-2.786 -2.96,-2.98 -2.668,-3.116C-2.375,-3.253 -2.051,-3.322 -1.696,-3.322C-1.333,-3.322 -1.012,-3.259 -0.731,-3.134C-0.45,-3.009 -0.208,-2.824 -0.005,-2.58C0.198,-2.336 0.352,-2.04 0.457,-1.693C0.562,-1.345 0.615,-0.949 0.615,-0.503L0.615,-0.228Z" style="fill:white;fill-rule:nonzero;"/>
            </g>
            <g transform="matrix(1,0,0,1,74.316,116.76)">
                <path d="M0,-7.395L-2.555,-7.395L-2.555,0.574L-3.205,0.574L-3.205,-7.395L-5.748,-7.395L-5.748,-7.969L0,-7.969L0,-7.395Z" style="fill:white;fill-rule:nonzero;"/>
            </g>
            <g transform="matrix(1,0,0,1,79.525,114.802)">
                <path d="M0,-0.72C-0.012,-1.005 -0.029,-1.211 -0.053,-1.338C-0.076,-1.465 -0.125,-1.622 -0.199,-1.81C-0.32,-2.107 -0.52,-2.343 -0.797,-2.519C-1.074,-2.695 -1.375,-2.783 -1.699,-2.783C-2.031,-2.783 -2.332,-2.696 -2.602,-2.522C-2.871,-2.348 -3.07,-2.111 -3.199,-1.81C-3.273,-1.622 -3.323,-1.458 -3.349,-1.318C-3.374,-1.177 -3.393,-0.978 -3.404,-0.72L0,-0.72ZM0.615,-0.228L-3.404,-0.228C-3.404,0.507 -3.243,1.07 -2.921,1.463C-2.599,1.855 -2.133,2.051 -1.523,2.051C-1.187,2.051 -0.9,1.999 -0.662,1.893C-0.424,1.788 -0.178,1.608 0.076,1.354L0.533,1.718C0.225,2.026 -0.086,2.251 -0.4,2.391C-0.714,2.532 -1.1,2.602 -1.556,2.602C-2.086,2.602 -2.534,2.49 -2.899,2.265C-3.264,2.041 -3.541,1.708 -3.73,1.266C-3.919,0.825 -4.014,0.282 -4.014,-0.363C-4.014,-0.831 -3.961,-1.248 -3.855,-1.614C-3.75,-1.979 -3.599,-2.286 -3.402,-2.536C-3.205,-2.786 -2.96,-2.98 -2.668,-3.116C-2.375,-3.253 -2.051,-3.322 -1.696,-3.322C-1.333,-3.322 -1.012,-3.259 -0.731,-3.134C-0.45,-3.009 -0.208,-2.824 -0.005,-2.58C0.198,-2.336 0.352,-2.04 0.457,-1.693C0.562,-1.345 0.615,-0.949 0.615,-0.503L0.615,-0.228Z" style="fill:white;fill-rule:nonzero;"/>
            </g>
            <g transform="matrix(1,0,0,1,86.234,112.365)">
                <path d="M0,4.154C-0.308,4.494 -0.603,4.726 -0.884,4.851C-1.165,4.976 -1.506,5.039 -1.908,5.039C-2.294,5.039 -2.642,4.971 -2.952,4.837C-3.262,4.702 -3.531,4.504 -3.757,4.242C-3.983,3.98 -4.155,3.664 -4.272,3.293C-4.389,2.922 -4.447,2.515 -4.447,2.074C-4.447,1.461 -4.345,0.933 -4.14,0.492C-3.936,0.05 -3.642,-0.289 -3.259,-0.528C-2.877,-0.766 -2.427,-0.885 -1.908,-0.885C-1.494,-0.885 -1.148,-0.822 -0.869,-0.695C-0.59,-0.568 -0.3,-0.336 0,0L-0.422,0.386C-0.582,0.203 -0.738,0.057 -0.891,-0.05C-1.043,-0.158 -1.198,-0.234 -1.356,-0.279C-1.515,-0.324 -1.699,-0.346 -1.91,-0.346C-2.578,-0.346 -3.09,-0.09 -3.445,0.422C-3.586,0.625 -3.687,0.856 -3.747,1.116C-3.808,1.376 -3.838,1.695 -3.838,2.074C-3.838,2.453 -3.809,2.77 -3.75,3.026C-3.691,3.282 -3.59,3.517 -3.445,3.732C-3.09,4.244 -2.578,4.5 -1.91,4.5C-1.605,4.5 -1.342,4.446 -1.119,4.339C-0.896,4.231 -0.664,4.041 -0.422,3.767L0,4.154Z" style="fill:white;fill-rule:nonzero;"/>
            </g>
            <g transform="matrix(1,0,0,1,92.486,108.791)">
                <path d="M0,8.543L-0.609,8.543L-0.609,4.957C-0.609,4.398 -0.746,3.971 -1.02,3.674C-1.293,3.377 -1.687,3.229 -2.203,3.229C-2.547,3.229 -2.841,3.296 -3.085,3.431C-3.329,3.565 -3.516,3.763 -3.645,4.022C-3.773,4.282 -3.838,4.594 -3.838,4.957L-3.838,8.543L-4.447,8.543L-4.447,0L-3.838,0L-3.838,3.445C-3.404,2.941 -2.836,2.689 -2.133,2.689C-1.703,2.689 -1.326,2.776 -1.002,2.95C-0.678,3.124 -0.43,3.373 -0.258,3.697C-0.086,4.022 0,4.404 0,4.846L0,8.543Z" style="fill:white;fill-rule:nonzero;"/>
            </g>
            <g transform="matrix(1,0,0,1,99.1949,111.48)">
                <path d="M0,5.854L-0.609,5.854L-0.609,2.268C-0.609,1.709 -0.746,1.282 -1.02,0.985C-1.293,0.688 -1.687,0.54 -2.203,0.54C-2.547,0.54 -2.841,0.607 -3.085,0.742C-3.329,0.876 -3.516,1.074 -3.645,1.333C-3.773,1.593 -3.838,1.905 -3.838,2.268L-3.838,5.854L-4.447,5.854L-4.447,0.071L-3.838,0.071L-3.838,0.756C-3.404,0.252 -2.836,0 -2.133,0C-1.484,0 -0.973,0.184 -0.598,0.551C-0.199,0.93 0,1.465 0,2.157L0,5.854Z" style="fill:white;fill-rule:nonzero;"/>
            </g>
            <g transform="matrix(1,0,0,1,105.166,114.445)">
                <path d="M0,-0.006C0,-0.451 -0.032,-0.83 -0.097,-1.143C-0.162,-1.455 -0.301,-1.719 -0.517,-1.934C-0.837,-2.262 -1.236,-2.426 -1.714,-2.426C-2.195,-2.426 -2.596,-2.262 -2.917,-1.934C-3.132,-1.719 -3.272,-1.45 -3.337,-1.128C-3.401,-0.806 -3.434,-0.432 -3.434,-0.006C-3.434,0.416 -3.401,0.79 -3.337,1.116C-3.272,1.442 -3.132,1.713 -2.917,1.928C-2.588,2.256 -2.188,2.42 -1.714,2.42C-1.244,2.42 -0.845,2.256 -0.517,1.928C-0.301,1.713 -0.162,1.448 -0.097,1.134C-0.032,0.819 0,0.439 0,-0.006M0.609,-0.006C0.609,0.303 0.59,0.596 0.551,0.873C0.512,1.15 0.439,1.414 0.334,1.664C0.229,1.914 0.081,2.135 -0.11,2.326C-0.54,2.748 -1.074,2.959 -1.714,2.959C-2.357,2.959 -2.894,2.748 -3.323,2.326C-3.514,2.135 -3.663,1.915 -3.768,1.667C-3.874,1.419 -3.945,1.158 -3.984,0.885C-4.023,0.611 -4.043,0.314 -4.043,-0.006C-4.043,-0.49 -3.992,-0.93 -3.891,-1.324C-3.79,-1.719 -3.6,-2.055 -3.323,-2.332C-2.902,-2.754 -2.365,-2.965 -1.714,-2.965C-1.066,-2.965 -0.532,-2.754 -0.11,-2.332C0.081,-2.141 0.229,-1.92 0.334,-1.67C0.439,-1.42 0.512,-1.157 0.551,-0.882C0.59,-0.607 0.609,-0.315 0.609,-0.006" style="fill:white;fill-rule:nonzero;"/>
            </g>
            <g transform="matrix(1,0,0,1,109.66,108.791)">
                <path d="M0,8.543L-0.527,8.543C-0.977,8.543 -1.32,8.409 -1.559,8.142C-1.797,7.874 -1.916,7.508 -1.916,7.043L-1.916,0L-1.307,0L-1.307,7.031C-1.307,7.367 -1.24,7.613 -1.107,7.77C-0.975,7.926 -0.744,8.004 -0.416,8.004L0,8.004L0,8.543Z" style="fill:white;fill-rule:nonzero;"/>
            </g>
            <g transform="matrix(1,0,0,1,114.922,114.445)">
                <path d="M0,-0.006C0,-0.451 -0.032,-0.83 -0.097,-1.143C-0.162,-1.455 -0.301,-1.719 -0.517,-1.934C-0.837,-2.262 -1.236,-2.426 -1.714,-2.426C-2.195,-2.426 -2.596,-2.262 -2.917,-1.934C-3.132,-1.719 -3.272,-1.45 -3.337,-1.128C-3.401,-0.806 -3.434,-0.432 -3.434,-0.006C-3.434,0.416 -3.401,0.79 -3.337,1.116C-3.272,1.442 -3.132,1.713 -2.917,1.928C-2.588,2.256 -2.188,2.42 -1.714,2.42C-1.244,2.42 -0.845,2.256 -0.517,1.928C-0.301,1.713 -0.162,1.448 -0.097,1.134C-0.032,0.819 0,0.439 0,-0.006M0.609,-0.006C0.609,0.303 0.59,0.596 0.551,0.873C0.512,1.15 0.439,1.414 0.334,1.664C0.229,1.914 0.081,2.135 -0.11,2.326C-0.54,2.748 -1.074,2.959 -1.714,2.959C-2.357,2.959 -2.894,2.748 -3.323,2.326C-3.514,2.135 -3.663,1.915 -3.768,1.667C-3.874,1.419 -3.945,1.158 -3.984,0.885C-4.023,0.611 -4.043,0.314 -4.043,-0.006C-4.043,-0.49 -3.992,-0.93 -3.891,-1.324C-3.79,-1.719 -3.6,-2.055 -3.323,-2.332C-2.902,-2.754 -2.365,-2.965 -1.714,-2.965C-1.066,-2.965 -0.532,-2.754 -0.11,-2.332C0.081,-2.141 0.229,-1.92 0.334,-1.67C0.439,-1.42 0.512,-1.157 0.551,-0.882C0.59,-0.607 0.609,-0.315 0.609,-0.006" style="fill:white;fill-rule:nonzero;"/>
            </g>
            <g transform="matrix(1,0,0,1,121.062,117.205)">
                <path d="M0,-2.766C0,-3.496 -0.111,-4.082 -0.334,-4.524C-0.557,-4.965 -0.99,-5.186 -1.635,-5.186C-2.275,-5.186 -2.707,-4.965 -2.93,-4.524C-3.152,-4.082 -3.264,-3.496 -3.264,-2.766C-3.264,-2.032 -3.152,-1.444 -2.93,-1.002C-2.707,-0.561 -2.275,-0.34 -1.635,-0.34C-0.99,-0.34 -0.557,-0.561 -0.334,-1.002C-0.111,-1.444 0,-2.032 0,-2.766M0.609,0.451C0.609,0.935 0.516,1.368 0.328,1.749C0.141,2.13 -0.131,2.426 -0.488,2.639C-0.845,2.852 -1.266,2.959 -1.75,2.959C-2.16,2.959 -2.497,2.903 -2.763,2.792C-3.028,2.68 -3.327,2.48 -3.658,2.191L-3.252,1.787C-2.99,2.017 -2.758,2.18 -2.555,2.276C-2.352,2.372 -2.084,2.42 -1.752,2.42C-1.174,2.42 -0.737,2.236 -0.442,1.869C-0.147,1.502 0,1.017 0,0.416L0,-0.616C-0.164,-0.401 -0.334,-0.234 -0.512,-0.115C-0.689,0.005 -0.878,0.087 -1.08,0.131C-1.28,0.176 -1.492,0.199 -1.714,0.199C-2.323,0.199 -2.794,0.031 -3.13,-0.305C-3.625,-0.801 -3.873,-1.621 -3.873,-2.766C-3.873,-3.907 -3.625,-4.725 -3.13,-5.221C-2.974,-5.377 -2.774,-5.5 -2.53,-5.59C-2.287,-5.68 -2.015,-5.725 -1.714,-5.725C-1.355,-5.725 -1.038,-5.667 -0.761,-5.552C-0.484,-5.437 -0.23,-5.223 0,-4.911L0,-5.655L0.609,-5.655L0.609,0.451Z" style="fill:white;fill-rule:nonzero;"/>
            </g>
            <g transform="matrix(1,0,0,1,-48.8993,-627.013)">
                <path d="M173.512,744.347L172.903,744.347L172.903,738.564L173.512,738.564L173.512,744.347ZM173.659,736.176C173.659,736.302 173.616,736.41 173.53,736.5C173.444,736.591 173.338,736.636 173.213,736.636C173.088,736.636 172.981,736.591 172.891,736.5C172.801,736.41 172.756,736.306 172.756,736.187C172.756,736.061 172.8,735.954 172.888,735.866C172.976,735.777 173.081,735.733 173.202,735.733C173.331,735.733 173.439,735.777 173.527,735.866C173.615,735.954 173.659,736.058 173.659,736.176" style="fill:white;fill-rule:nonzero;"/>
            </g>
            <g transform="matrix(1,0,0,1,130.625,114.802)">
                <path d="M0,-0.72C-0.012,-1.005 -0.029,-1.211 -0.053,-1.338C-0.076,-1.465 -0.125,-1.622 -0.199,-1.81C-0.32,-2.107 -0.52,-2.343 -0.797,-2.519C-1.074,-2.695 -1.375,-2.783 -1.699,-2.783C-2.031,-2.783 -2.332,-2.696 -2.602,-2.522C-2.871,-2.348 -3.07,-2.111 -3.199,-1.81C-3.273,-1.622 -3.323,-1.458 -3.349,-1.318C-3.374,-1.177 -3.393,-0.978 -3.404,-0.72L0,-0.72ZM0.615,-0.228L-3.404,-0.228C-3.404,0.507 -3.243,1.07 -2.921,1.463C-2.599,1.855 -2.133,2.051 -1.523,2.051C-1.187,2.051 -0.9,1.999 -0.662,1.893C-0.424,1.788 -0.178,1.608 0.076,1.354L0.533,1.718C0.225,2.026 -0.086,2.251 -0.4,2.391C-0.714,2.532 -1.1,2.602 -1.556,2.602C-2.086,2.602 -2.534,2.49 -2.899,2.265C-3.264,2.041 -3.541,1.708 -3.73,1.266C-3.919,0.825 -4.014,0.282 -4.014,-0.363C-4.014,-0.831 -3.961,-1.248 -3.855,-1.614C-3.75,-1.979 -3.599,-2.286 -3.402,-2.536C-3.205,-2.786 -2.96,-2.98 -2.668,-3.116C-2.375,-3.253 -2.051,-3.322 -1.696,-3.322C-1.333,-3.322 -1.012,-3.259 -0.731,-3.134C-0.45,-3.009 -0.208,-2.824 -0.005,-2.58C0.198,-2.336 0.352,-2.04 0.457,-1.693C0.562,-1.345 0.615,-0.949 0.615,-0.503L0.615,-0.228Z" style="fill:white;fill-rule:nonzero;"/>
            </g>
        </g>
    </g>
</svg>
