<?xml version="1.0" encoding="utf-8"?>
<!-- Generator: Adobe Illustrator 16.0.0, SVG Export Plug-In . SVG Version: 6.00 Build 0)  -->
<!DOCTYPE svg PUBLIC "-//W3C//DTD SVG 1.1//EN" "http://www.w3.org/Graphics/SVG/1.1/DTD/svg11.dtd">
<svg version="1.1"
	 id="svg2606" xmlns:inkscape="http://www.inkscape.org/namespaces/inkscape" xmlns:dc="http://purl.org/dc/elements/1.1/" xmlns:cc="http://creativecommons.org/ns#" xmlns:rdf="http://www.w3.org/1999/02/22-rdf-syntax-ns#" xmlns:svg="http://www.w3.org/2000/svg" xmlns:sodipodi="http://sodipodi.sourceforge.net/DTD/sodipodi-0.dtd" inkscape:output_extension="org.inkscape.output.svg.inkscape" sodipodi:docname="Université d&apos;Artois.svg" inkscape:version="0.46" sodipodi:version="0.32"
	 xmlns="http://www.w3.org/2000/svg" xmlns:xlink="http://www.w3.org/1999/xlink" x="0px" y="0px" width="181.033px"
	 height="93.896px" viewBox="0 0 181.033 93.896" enable-background="new 0 0 181.033 93.896" xml:space="preserve">
<defs>
	
	
		<inkscape:perspective  id="perspective2614" sodipodi:type="inkscape:persp3d" inkscape:vp_z="744.09448 : 526.18109 : 1" inkscape:vp_y="0 : 1000 : 0" inkscape:vp_x="0 : 526.18109 : 1" inkscape:persp3d-origin="372.04724 : 350.78739 : 1">
		</inkscape:perspective>
</defs>
<sodipodi:namedview  id="base" showgrid="false" inkscape:cy="46.948123" inkscape:cx="90.51625" inkscape:zoom="5.1261514" borderopacity="1.0" bordercolor="#666666" pagecolor="#ffffff" inkscape:window-y="-4" inkscape:window-x="-4" inkscape:window-height="712" inkscape:window-width="1024" inkscape:current-layer="layer1" inkscape:document-units="px" inkscape:pageshadow="2" inkscape:pageopacity="0.0">
	</sodipodi:namedview>
<g id="layer1" transform="translate(839.08768,97.443085)" inkscape:label="Calque 1" inkscape:groupmode="layer">
	<path id="path2538" fill="#ABABAB" d="M-828.83-14.012l-0.13,4.437c-0.071,2.699-0.183,3.121-1.139,4.06
		c-0.752,0.737-1.896,1.139-3.289,1.139c-1.104,0-2.041-0.256-2.795-0.771c-0.403-0.259-0.756-0.623-1.013-1.027
		c-0.478-0.733-0.626-1.453-0.626-2.998v-4.593c0-1.548-0.199-1.896-1.267-2.28v-0.366h4.559v0.366
		c-1.471,0.237-1.781,0.586-1.781,2.035v4.64c0,1.449,0.272,2.223,1.011,2.955c0.643,0.646,1.431,0.953,2.333,0.953
		c0.882,0,1.676-0.33,2.241-0.953c0.589-0.644,0.754-1.283,0.754-2.868v-0.422l-0.127-4.305c-0.038-1.465-0.276-1.756-1.637-2.035
		v-0.366h4.303v0.366C-828.592-15.682-828.795-15.386-828.83-14.012"/>
	<path id="path2540" fill="#ABABAB" d="M-815.833-14.012l-0.259,9.12l-0.698,0.662l-7.04-9.723l0.127,6.911
		c0.038,1.525,0.333,1.841,1.915,2.023v0.385h-4.947v-0.385c1.472-0.222,1.71-0.498,1.767-2.023l0.256-5.957
		c0-2.075-0.256-2.517-1.764-3.049v-0.366h2.74l6.764,9.372l-0.129-6.971c-0.039-1.487-0.313-1.798-1.783-2.035v-0.366h4.817v0.366
		C-815.521-15.81-815.798-15.515-815.833-14.012"/>
	<path id="path2542" fill="#ABABAB" d="M-813.242-4.633v-0.385c1.471-0.222,1.767-0.569,1.767-2.023v-6.971
		c0-1.409-0.278-1.756-1.639-2.035v-0.366h4.948v0.366c-1.472,0.237-1.784,0.586-1.784,2.035v6.971c0,1.454,0.313,1.802,1.784,2.023
		v0.385H-813.242z"/>
	<path id="path2544" fill="#ABABAB" d="M-798.48-14.524l-3.181,8.494c-0.239,0.646-0.422,0.976-1.011,1.71l-3.676-10.514
		c-0.202-0.571-0.479-0.848-1.27-1.213v-0.366h3.935v0.366c-0.808,0.108-1.03,0.279-1.03,0.769c0,0.239,0.129,0.833,0.258,1.195
		l2.408,6.857l2.042-6.214c0.165-0.513,0.256-0.974,0.256-1.359c0-0.622-0.313-0.9-1.395-1.248v-0.366h4.043v0.308
		C-797.929-15.645-798.168-15.386-798.48-14.524"/>
	<path id="path2546" fill="#ABABAB" d="M-788.479-4.633h-8.106v-0.385c1.468-0.222,1.761-0.569,1.761-2.023v-6.726
		c0-1.548-0.183-1.896-1.266-2.28v-0.366h7.353l0.259,2.769l-0.388,0.132c-0.751-1.526-1.396-2.078-2.535-2.149l-1.896-0.129v4.815
		l1.784-0.054c1.304-0.055,1.634-0.296,2.021-1.472h0.386v3.807h-0.386c-0.294-1.31-0.57-1.525-2.021-1.581l-1.784-0.061v3.201
		c0,1.363,0.388,1.75,1.821,1.75c1.506,0,2.279-0.594,3.253-2.409l0.387,0.108L-788.479-4.633z"/>
	<path id="path2548" fill="#ABABAB" d="M-779.544-12.853c0,0.959-0.334,1.676-1.142,2.449c-0.403,0.108-0.552,0.129-0.976,0.129
		c-0.606,0-0.843-0.038-1.432-0.257v-5.259c1.048,0.023,1.489,0.109,2.021,0.386c0.296,0.147,0.552,0.332,0.773,0.571
		C-779.803-14.322-779.544-13.622-779.544-12.853 M-774.084-3.751v-0.311c-0.919-0.079-1.289-0.186-1.786-0.516
		c-0.237-0.167-0.456-0.332-0.624-0.497c-0.678-0.68-1.505-1.802-3.679-5.017c0.976-0.938,1.325-1.361,1.639-2.026
		c0.257-0.512,0.387-1.099,0.387-1.67c0-1.653-1.215-2.76-2.979-2.76c-0.643,0-0.957,0.04-2.226,0.262l-2.794-0.208v0.388
		c1.249,0.5,1.528,0.921,1.528,2.339v6.726c0,1.454-0.297,1.802-1.768,2.023v0.385h5.076v-0.385
		c-1.474-0.222-1.784-0.569-1.784-2.023v-2.595c0.33,0.04,0.589,0.061,0.751,0.061c0.188,0,0.424-0.021,0.771-0.061
		c1.527,2.834,2.137,3.734,3.164,4.744c0.865,0.848,2.023,1.345,3.125,1.345C-774.875-3.547-774.637-3.586-774.084-3.751"/>
	<path id="path2550" fill="#ABABAB" d="M-770.74-4.377c-0.994,0-1.671-0.162-3.179-0.771l-0.259-3.031l0.387-0.185
		c0.458,1.215,0.734,1.707,1.268,2.277c0.588,0.623,1.342,1.013,1.984,1.013c1.067,0,1.953-0.883,1.953-1.986
		c0-0.773-0.334-1.229-1.4-1.949c-1.6-1.064-2.169-1.488-2.794-2.095c-0.737-0.698-1.011-1.34-1.011-2.354
		c0-1.91,1.38-3.213,3.438-3.213c0.788,0,1.377,0.125,2.646,0.625l0.388,2.666l-0.388,0.181c-0.29-0.53-0.586-1.011-0.845-1.415
		c-0.608-0.899-1.36-1.357-2.207-1.357c-1.011,0-1.764,0.737-1.764,1.762c0,0.513,0.241,1.16,0.625,1.6
		c0.479,0.515,0.974,0.885,2.922,2.153c0.498,0.308,0.885,0.606,1.142,0.883c0.478,0.495,0.754,1.248,0.754,2.06
		C-767.081-5.7-768.606-4.377-770.74-4.377"/>
	<path id="path2552" fill="#ABABAB" d="M-765.48-4.633v-0.385c1.469-0.222,1.763-0.569,1.763-2.023v-6.971
		c0-1.409-0.276-1.756-1.636-2.035v-0.366h4.944v0.366c-1.471,0.237-1.781,0.586-1.781,2.035v6.971c0,1.454,0.311,1.802,1.781,2.023
		v0.385H-765.48z"/>
	<path id="path2554" fill="#ABABAB" d="M-749.838-13.767c-0.882-1.397-1.563-1.839-2.795-1.839h-1.269v8.564
		c0,1.247,0.589,1.781,2.281,2.023v0.385h-5.958v-0.385c1.617-0.275,2.151-0.793,2.151-2.023v-8.564h-1.269
		c-1.104,0-1.801,0.459-2.812,1.839l-0.35-0.205l0.605-2.7c1.639,0.44,2.114,0.495,4.596,0.495c2.446,0,2.925-0.055,4.559-0.495
		l0.643,2.66L-749.838-13.767z"/>
	<path id="path2556" fill="#ABABAB" d="M-742.32-18.811l-3.676,0.754l-0.132-0.237l3.313-1.789l0.752,0.518L-742.32-18.811z
		 M-740.795-4.633h-8.106v-0.385c1.47-0.222,1.764-0.569,1.764-2.023v-6.726c0-1.548-0.185-1.896-1.269-2.28v-0.366h7.354
		l0.257,2.769l-0.387,0.132c-0.754-1.526-1.395-2.078-2.535-2.149l-1.894-0.129v4.815l1.785-0.054
		c1.304-0.055,1.634-0.296,2.018-1.472h0.388v3.807h-0.388c-0.293-1.31-0.568-1.525-2.018-1.581l-1.785-0.061v3.201
		c0,1.363,0.388,1.75,1.819,1.75c1.509,0,2.277-0.594,3.252-2.409l0.388,0.108L-740.795-4.633z"/>
	<path id="path2558" fill="#ABABAB" d="M-724.911-10.694c0,3.192-1.839,5.364-4.542,5.364c-1.34,0-1.93-0.609-1.93-1.969v-8.619
		c1.888,0.051,2.701,0.219,3.808,0.827c0.566,0.311,1.081,0.715,1.522,1.208C-725.241-12.979-724.911-12.057-724.911-10.694
		 M-723.147-10.458c0-3.625-2.797-6.089-6.932-6.089c-0.788,0-1.692,0.04-2.702,0.134l-1.525,0.128v0.367
		c1.231,0.256,1.399,0.497,1.399,2.151v6.726c0,1.454-0.296,1.802-1.767,2.023v0.385h3.031c1.068,0.094,1.951,0.13,2.634,0.13
		C-725.503-4.503-723.147-6.909-723.147-10.458"/>
	<path id="path2560" fill="#ABABAB" d="M-720.535-11.417l-0.518-0.568c0.222-0.146,0.387-0.274,0.518-0.388
		c0.438-0.384,0.751-1.008,0.751-1.51c0-0.308-0.145-0.584-0.385-0.695l-0.366-0.202c-0.316-0.146-0.518-0.455-0.518-0.811
		c0-0.606,0.48-1.081,1.086-1.081c0.752,0,1.319,0.843,1.319,1.98C-718.647-13.751-719.05-13.073-720.535-11.417"/>
	<path id="path2562" fill="#ABABAB" d="M-711.44-9.45h-3.675l1.782-5.384L-711.44-9.45z M-707.503-4.633v-0.385
		c-0.7-0.333-0.936-0.592-1.141-1.143l-3.679-10.253h-1.139l-3.423,9.372c-0.546,1.508-0.66,1.634-1.779,2.023v0.385h4.151v-0.385
		c-1.032-0.148-1.434-0.446-1.434-1.049c0-0.221,0.074-0.591,0.205-1.101l0.369-1.527h4.188l0.753,2.037
		c0.094,0.223,0.132,0.441,0.132,0.667c0,0.512-0.221,0.771-0.885,0.973v0.385H-707.503z"/>
	<path id="path2564" fill="#ABABAB" d="M-700.097-12.853c0,0.959-0.33,1.676-1.141,2.449c-0.404,0.108-0.552,0.129-0.973,0.129
		c-0.609,0-0.848-0.038-1.433-0.257v-5.259c1.048,0.023,1.488,0.109,2.019,0.386c0.295,0.147,0.554,0.332,0.771,0.571
		C-700.355-14.322-700.097-13.622-700.097-12.853 M-694.639-3.751v-0.311c-0.919-0.079-1.284-0.186-1.779-0.516
		c-0.241-0.167-0.461-0.332-0.631-0.497c-0.678-0.68-1.505-1.802-3.674-5.017c0.974-0.938,1.321-1.361,1.634-2.026
		c0.261-0.512,0.39-1.099,0.39-1.67c0-1.653-1.212-2.76-2.978-2.76c-0.643,0-0.957,0.04-2.225,0.262l-2.796-0.208v0.388
		c1.252,0.5,1.527,0.921,1.527,2.339v6.726c0,1.454-0.293,1.802-1.764,2.023v0.385h5.073v-0.385
		c-1.474-0.222-1.782-0.569-1.782-2.023v-2.595c0.331,0.04,0.585,0.061,0.752,0.061c0.185,0,0.422-0.021,0.774-0.061
		c1.522,2.834,2.131,3.734,3.158,4.744c0.863,0.848,2.022,1.345,3.129,1.345C-695.428-3.547-695.188-3.586-694.639-3.751"/>
	<path id="path2566" fill="#ABABAB" d="M-685.722-13.767c-0.882-1.397-1.56-1.839-2.794-1.839h-1.269v8.564
		c0,1.247,0.589,1.781,2.279,2.023v0.385h-5.956v-0.385c1.619-0.275,2.148-0.793,2.148-2.023v-8.564h-1.267
		c-1.099,0-1.804,0.459-2.813,1.839l-0.348-0.205l0.606-2.7c1.639,0.44,2.113,0.495,4.595,0.495c2.447,0,2.92-0.055,4.559-0.495
		l0.646,2.66L-685.722-13.767z"/>
	<path id="path2568" fill="#ABABAB" d="M-674.894-10.242c0,3.075-1.433,5.094-3.603,5.094c-2.356,0-4.138-2.447-4.138-5.645
		c0-3.05,1.434-5.125,3.546-5.125C-676.678-15.918-674.894-13.494-674.894-10.242 M-672.999-10.498c0-1.838-0.683-3.514-1.895-4.725
		c-1.012-0.994-2.263-1.449-3.917-1.449c-3.382,0-5.736,2.518-5.736,6.174c0,3.549,2.41,6.121,5.736,6.121
		C-675.373-4.377-672.999-6.876-672.999-10.498"/>
	<path id="path2570" fill="#ABABAB" d="M-671.785-4.633v-0.385c1.466-0.222,1.765-0.569,1.765-2.023v-6.971
		c0-1.409-0.276-1.756-1.639-2.035v-0.366h4.945v0.366c-1.469,0.237-1.786,0.586-1.786,2.035v6.971c0,1.454,0.317,1.802,1.786,2.023
		v0.385H-671.785z"/>
	<path id="path2572" fill="#ABABAB" d="M-661.711-4.377c-0.997,0-1.677-0.162-3.182-0.771l-0.259-3.031l0.384-0.185
		c0.461,1.215,0.735,1.707,1.27,2.277c0.592,0.623,1.343,1.013,1.985,1.013c1.07,0,1.952-0.883,1.952-1.986
		c0-0.773-0.333-1.229-1.397-1.949c-1.599-1.064-2.171-1.488-2.796-2.095c-0.737-0.698-1.014-1.34-1.014-2.354
		c0-1.91,1.38-3.213,3.442-3.213c0.789,0,1.378,0.125,2.646,0.625l0.385,2.666l-0.385,0.181c-0.298-0.53-0.589-1.011-0.848-1.415
		c-0.608-0.899-1.357-1.357-2.208-1.357c-1.007,0-1.764,0.737-1.764,1.762c0,0.513,0.236,1.16,0.625,1.6
		c0.479,0.515,0.977,0.885,2.926,2.153c0.492,0.308,0.88,0.606,1.136,0.883c0.48,0.495,0.757,1.248,0.757,2.06
		C-658.055-5.7-659.583-4.377-661.711-4.377"/>
	<path id="path2574" fill="#ABABAB" d="M-741.719-92.768c0,0-11.32-2.986-17.813,14.654c-4.485,10.118-3.722,9.356-6.325,14.798
		c-2.795,5.841-5.461,7.921-4.66,7.513c0,0,9.78,1.702,17.896-14.74c4.478-9.072,5.871-20.223,11.261-22.237"/>
	<path id="path2576" fill="#ABABAB" d="M-772.376-52.972c0.578-0.621,0.898-1.038,0.898-1.038c-7.335,3.903-8.602,1.665-9.195-1.064
		c-0.589-2.73,3.304-12.876,6.236-22.433c2.933-9.563-0.902-12.876-3.478-12.49c-2.578,0.393-7.3,1.563-7.3,1.563
		s1.589-0.194,2.821,3.123c0.97,2.606-5.357,20.677-5.357,20.677s-4.09,11.709,0.175,15.444
		C-781.732-45.221-775.078-50.572-772.376-52.972"/>
	<path id="path2578" fill="#ABABAB" d="M-658.54-67.648c-25.626-4.698-50.813-1.248-72.401,4.963c-0.424,1.269-0.81,2.43-1.16,3.465
		C-688.154-71.583-658.54-67.648-658.54-67.648"/>
	<path id="path2580" fill="#ABABAB" d="M-743.762-58.556c-30.035,10.717-50.451,25.19-50.451,25.19
		c17.453-9.722,34.053-16.78,49.275-21.889c0.094-0.267,0.188-0.525,0.278-0.784C-744.355-56.891-744.054-57.728-743.762-58.556"/>
	<path id="path2582" fill="#ABABAB" d="M-736.288-35.186c-3.525-3.526,1.15-15.425,2.642-19.53c0.289-0.791,0.833-2.372,1.545-4.504
		c0.351-1.035,0.736-2.196,1.16-3.465c2.026-6.091,4.805-14.565,7.397-22.519c2.642-8.74,0.138-12.239-5.256-12.239
		c-3.819,1.177-9.839,2.349-9.839,2.349s6.899,0.147,4.109,8.957c-1.705,5.394-4.737,14.899-9.232,27.582
		c-0.292,0.827-0.594,1.665-0.897,2.518c-0.091,0.259-0.185,0.518-0.278,0.784c-3.347,9.511-6.771,22.403,2.497,26.029
		c6.754,2.645,17.46-3.76,23.329-11.245C-727.918-34.453-732.764-31.66-736.288-35.186"/>
</g>
</svg>
