<svg viewBox="0 0 782 782" xmlns="http://www.w3.org/2000/svg" xmlns:serif="http://www.serif.com/" fill-rule="evenodd" clip-rule="evenodd"><path serif:id="Plan de travail1" d="M0 0h781.111v781.111h-781.111z" fill="none"/><g serif:id="Calque 1"><path fill="#fff" d="M142.783 79.013h-16.26v213.592h16.26zm215.95 144.038c0 13.676-3.104 25.931-9.309 36.77-6.213 10.843-14.864 19.264-25.96 25.273-11.097 6.005-23.731 9.009-37.907 9.009-14.072 0-26.715-3.004-37.907-9.009-11.193-6.009-19.893-14.43-26.102-25.273-6.205-10.838-9.309-23.094-9.309-36.77v-144.299h16.26v142.249c0 11.718 2.363 21.998 7.096 30.836 4.73 8.842 11.434 15.701 20.114 20.585 8.68 4.884 18.631 7.321 29.848 7.321 11.022 0 20.898-2.438 29.627-7.321 8.734-4.884 15.464-11.743 20.193-20.585 4.725-8.838 7.096-19.118 7.096-30.836v-142.249h16.26v144.299zm189.267-129.952h-63.872v199.237h-16.26v-199.237h-63.58v-14.355h143.711v14.355z"/><path fill="#02b7a3" d="M650.493 421.035h-68.818v68.826h68.818z"/><path fill="#ee287c" d="M650.493 335.754h-68.818v68.835h68.818z"/><path fill="#ee8b29" d="M650.493 250.477h-68.818v68.843h68.818z"/><path fill="#cedd45" d="M650.493 165.217h-68.818v68.818h68.818z"/><path fill="#9c4b9d" d="M650.493 78.441h-68.818v68.818h68.818z"/><path d="M223.605 701.659h-95.437v-157.225h11.972v146.658h83.465v10.568zm130.461 0h-95.437v-157.225h95.437v10.568h-83.465v62.113h71.064v10.568h-71.064v63.409h83.465v10.568zm155.476 0h-11.972l-90.691-136.736v136.736h-11.972v-157.225h11.972l90.691 136.198v-136.198h11.972v157.225zm145.021-42.17c0 6.471-1.204 12.418-3.609 17.847-2.409 5.43-5.896 10.03-10.463 13.801-4.567 3.775-10.172 6.688-16.822 8.738-6.651 2.046-14.001 3.071-22.052 3.071-7.48 0-14.309-.721-20.489-2.154-6.184-1.438-11.863-3.704-17.039-6.796-5.175-3.088-10.138-7.009-14.88-11.755l8.409-8.409c4.738 4.746 9.301 8.463 13.68 11.163 4.38 2.692 9.08 4.6 14.105 5.713 5.025 1.117 10.626 1.671 16.806 1.671 8.255 0 15.397-1.275 21.431-3.829 6.03-2.55 10.697-6.288 13.997-11.213 3.304-4.921 4.959-10.73 4.959-17.414 0-9.634-2.875-17.006-8.613-22.11-2.659-2.296-5.6-4.042-8.834-5.23-3.229-1.188-7.859-2.246-13.893-3.179l-18.306-2.804c-11.918-1.796-21.26-5.642-28.011-11.538-8.259-6.901-12.384-16.535-12.384-28.902 0-6.613 1.163-12.597 3.496-17.956 2.338-5.35 5.588-9.88 9.755-13.584 4.163-3.704 9.305-6.542 15.405-8.517 6.109-1.979 12.826-2.967 20.152-2.967 9.555 0 17.781 1.346 24.677 4.042 6.901 2.696 13.759 6.992 20.585 12.889l-7.796 7.763c-5.534-4.959-11.113-8.626-16.747-11.001-5.634-2.371-12.759-3.559-21.377-3.559-11.343 0-20.247 2.913-26.706 8.734-6.463 5.825-9.692 13.734-9.692 23.727 0 9.13 2.688 15.96 8.076 20.489 2.942 2.371 6.551 4.438 10.822 6.2 4.271 1.763 8.488 2.929 12.655 3.504l16.906 2.696c7.276 1.079 12.959 2.371 17.064 3.884 4.109 1.508 7.78 3.663 11.022 6.467 4.459 3.667 7.863 8.109 10.205 13.322 2.342 5.213 3.509 10.943 3.509 17.197m-251.53-325.942h-2.709v35.599h2.709zm28.931 35.347h-2.538v-14.943c0-2.329-.571-4.109-1.713-5.346-1.138-1.238-2.779-1.854-4.93-1.854-1.433 0-2.659.279-3.675.842-1.017.558-1.796 1.383-2.334 2.463-.533 1.083-.804 2.384-.804 3.896v14.943h-2.538v-24.098h2.538v2.854c1.808-2.1 4.175-3.15 7.105-3.15 2.704 0 4.834.767 6.396 2.296 1.663 1.579 2.492 3.809 2.492 6.692v15.405zm26.463-6.862c0 1.45-.396 2.713-1.188 3.796-.788 1.083-1.913 1.913-3.371 2.492-1.458.575-3.159.867-5.096.867-4.109 0-7.367-1.15-9.78-3.442l1.763-1.758c1.875 1.967 4.517 2.954 7.921 2.954 2.346 0 4.142-.413 5.392-1.233 1.246-.821 1.867-2.046 1.867-3.675 0-1.238-.371-2.179-1.121-2.834-.75-.65-1.913-1.05-3.492-1.196l-4.004-.367c-4.85-.388-7.276-2.488-7.276-6.296 0-1.371.354-2.571 1.063-3.604.708-1.033 1.717-1.829 3.021-2.392 1.304-.563 2.838-.842 4.596-.842 1.696 0 3.267.225 4.717.671 1.45.45 2.7 1.071 3.742 1.867l-1.708 1.708c-1.854-1.367-4.1-2.05-6.738-2.05-1.988 0-3.509.408-4.567 1.221-1.058.817-1.588 1.954-1.588 3.421 0 1.267.396 2.225 1.183 2.867.792.642 2.033 1.038 3.725 1.183l3.884.342c2.246.196 3.984.75 5.213 1.663 1.229.908 1.842 2.459 1.842 4.638m16.258 6.861h-2.192c-1.217 0-2.263-.267-3.138-.804-.879-.538-1.538-1.279-1.983-2.225-.446-.942-.671-2.033-.671-3.271v-15.893h-3.296v-1.904h3.296v-7.717h2.538v7.717h5.446v1.904h-5.446v15.943c0 2.671 1.229 4.004 3.688 4.004h1.758v2.246zm10.262.252h-2.538v-24.098h2.538v24.098zm.608-34.049c0 .525-.179.975-.533 1.35-.358.379-.8.567-1.321.567-.521 0-.967-.188-1.342-.567-.375-.375-.563-.808-.563-1.3 0-.525.183-.971.55-1.342.367-.367.8-.55 1.304-.55.538 0 .992.183 1.358.55.363.371.546.8.546 1.292m17.648 33.797h-2.192c-1.217 0-2.263-.267-3.138-.804-.879-.538-1.538-1.279-1.983-2.225-.446-.942-.671-2.033-.671-3.271v-15.893h-3.296v-1.904h3.296v-7.717h2.538v7.717h5.446v1.904h-5.446v15.943c0 2.671 1.229 4.004 3.688 4.004h1.758v2.246zm25.904-.001h-2.538v-2.859c-1.804 2.1-4.171 3.15-7.096 3.15-2.696 0-4.825-.763-6.388-2.292-1.675-1.596-2.509-3.825-2.509-6.692v-15.405h2.538v14.943c0 2.325.571 4.109 1.708 5.346 1.142 1.238 2.784 1.854 4.934 1.854 1.433 0 2.659-.279 3.675-.842 1.017-.563 1.792-1.383 2.329-2.467.538-1.079.808-2.379.808-3.892v-14.943h2.538v24.098zm18.312.001h-2.192c-1.217 0-2.263-.267-3.138-.804-.879-.538-1.538-1.279-1.983-2.225-.446-.942-.671-2.033-.671-3.271v-15.893h-3.296v-1.904h3.296v-7.717h2.538v7.717h5.446v1.904h-5.446v15.943c0 2.671 1.229 4.004 3.688 4.004h1.758v2.246zm-248.806 48.452c0 2.279-.517 4.321-1.554 6.13-1.033 1.804-2.475 3.209-4.325 4.209-1.846 1.004-3.954 1.504-6.317 1.504-2.346 0-4.45-.5-6.317-1.504-1.867-1-3.317-2.404-4.35-4.209-1.033-1.808-1.55-3.85-1.55-6.13v-24.048h2.709v23.706c0 1.954.396 3.667 1.183 5.138.788 1.475 1.904 2.617 3.35 3.434 1.45.813 3.109 1.221 4.975 1.221 1.838 0 3.484-.408 4.938-1.221 1.454-.817 2.575-1.958 3.367-3.434.788-1.471 1.183-3.184 1.183-5.138v-23.706h2.709v24.048zm28.394 11.549h-2.538v-14.943c0-2.329-.571-4.109-1.713-5.346-1.138-1.238-2.779-1.854-4.93-1.854-1.433 0-2.659.279-3.675.842-1.017.558-1.796 1.383-2.334 2.463-.533 1.083-.804 2.384-.804 3.896v14.943h-2.538v-24.098h2.538v2.854c1.808-2.1 4.175-3.15 7.105-3.15 2.704 0 4.834.767 6.396 2.296 1.663 1.579 2.492 3.809 2.492 6.692v15.405zm12.004.247h-2.538v-24.098h2.538v24.098zm.613-34.049c0 .525-.179.979-.538 1.354-.358.375-.796.563-1.317.563-.521 0-.971-.188-1.346-.563-.371-.375-.558-.813-.558-1.304 0-.525.183-.971.546-1.338.367-.371.804-.554 1.308-.554.538 0 .988.183 1.354.554.367.367.55.796.55 1.288m25.006 9.7l-8.788 24.098h-2.517l-8.788-24.098h2.784l7.251 21.093 7.251-21.093h2.809zm20.898 10.548c-.05-1.188-.121-2.046-.221-2.575-.096-.529-.3-1.183-.608-1.967-.504-1.238-1.338-2.221-2.492-2.954-1.154-.733-2.409-1.1-3.759-1.1-1.383 0-2.638.363-3.763 1.088-1.121.725-1.95 1.713-2.488 2.967-.308.783-.517 1.467-.625 2.05-.104.588-.183 1.417-.229 2.492h14.184zm2.563 2.05h-16.747c0 3.063.671 5.409 2.013 7.046 1.342 1.633 3.284 2.45 5.825 2.45 1.4 0 2.596-.217 3.588-.658.992-.438 2.017-1.188 3.075-2.246l1.904 1.517c-1.283 1.283-2.579 2.221-3.888 2.804-1.308.588-2.917.879-4.817.879-2.209 0-4.075-.467-5.596-1.404-1.521-.933-2.675-2.321-3.463-4.163-.788-1.838-1.183-4.1-1.183-6.788 0-1.95.221-3.688.663-5.213.438-1.521 1.067-2.8 1.888-3.842.821-1.042 1.842-1.85 3.059-2.417 1.221-.571 2.571-.858 4.05-.858 1.513 0 2.85.263 4.021.783 1.171.521 2.179 1.292 3.025 2.309.846 1.017 1.488 2.25 1.925 3.696.438 1.45.658 3.1.658 4.959v1.146zm23.634-10.594l-1.829 1.854c-.75-.746-1.442-1.25-2.075-1.513-.638-.258-1.467-.392-2.492-.392-.979 0-1.875.192-2.7.575-.821.383-1.513.917-2.075 1.6-.558.683-.979 1.454-1.254 2.317-.279.863-.417 1.8-.417 2.809v14.847h-2.538v-24.098h2.538v3.196c.7-1.108 1.692-1.967 2.979-2.575 1.283-.613 2.646-.917 4.075-.917 1.188 0 2.242.171 3.163.513.921.342 1.796.938 2.625 1.783m22.12 15.238c0 1.45-.396 2.713-1.188 3.796-.788 1.083-1.913 1.913-3.371 2.492-1.458.575-3.159.867-5.096.867-4.109 0-7.367-1.15-9.78-3.442l1.763-1.758c1.875 1.967 4.517 2.954 7.921 2.954 2.346 0 4.142-.413 5.392-1.233 1.246-.821 1.867-2.046 1.867-3.675 0-1.238-.371-2.179-1.121-2.834-.75-.65-1.913-1.05-3.492-1.196l-4.004-.367c-4.85-.388-7.276-2.488-7.276-6.296 0-1.371.354-2.571 1.063-3.604.708-1.033 1.717-1.829 3.021-2.392 1.304-.563 2.838-.842 4.596-.842 1.696 0 3.267.225 4.717.671 1.45.45 2.7 1.071 3.742 1.867l-1.708 1.708c-1.854-1.367-4.1-2.05-6.738-2.05-1.988 0-3.509.408-4.567 1.221-1.058.817-1.588 1.954-1.588 3.421 0 1.267.396 2.225 1.183 2.867.792.642 2.033 1.038 3.725 1.183l3.884.342c2.246.196 3.984.75 5.213 1.663 1.229.908 1.842 2.459 1.842 4.638m10.255 7.107h-2.538v-24.098h2.538v24.098zm.613-34.049c0 .525-.179.979-.538 1.354-.358.375-.8.563-1.321.563-.521 0-.967-.188-1.342-.563-.375-.375-.563-.813-.563-1.304 0-.525.183-.971.55-1.338.367-.371.804-.554 1.308-.554.538 0 .988.183 1.354.554.367.367.55.796.55 1.288m17.647 33.803h-2.192c-1.217 0-2.263-.267-3.138-.804-.879-.538-1.538-1.279-1.983-2.225-.446-.942-.671-2.033-.671-3.271v-15.893h-3.296v-1.904h3.296v-7.717h2.538v7.717h5.446v1.904h-5.446v15.943c0 2.671 1.229 4.004 3.688 4.004h1.758v2.246zm21.829-8.4v-3.1h-7.509c-4.109 0-6.163 1.621-6.163 4.859 0 1.596.508 2.775 1.525 3.538 1.021.767 2.617 1.15 4.784 1.15 1.321 0 2.459-.117 3.413-.354.954-.238 1.821-.738 2.604-1.5.9-.833 1.346-2.363 1.346-4.592m2.538 8.401h-2.538v-2.396c-1.013 1.013-2.063 1.713-3.154 2.1-1.092.392-2.492.588-4.205.588-1.158 0-2.188-.075-3.084-.221-.896-.146-1.667-.383-2.313-.708-.642-.325-1.217-.746-1.721-1.267-1.158-1.204-1.738-2.767-1.738-4.688 0-2.217.75-3.929 2.238-5.142 1.492-1.213 3.55-1.817 6.175-1.817h7.801v-2.713c0-1.983-.533-3.463-1.604-4.43-1.067-.971-2.8-1.454-5.196-1.454-1.696 0-3.042.233-4.038.696-.992.463-1.871 1.25-2.638 2.359l-1.833-1.613c.683-.963 1.425-1.7 2.221-2.221.8-.521 1.717-.896 2.75-1.125 1.033-.229 2.209-.342 3.525-.342 6.234 0 9.351 2.629 9.351 7.888v16.505zm12.092.244h-2.538v-24.098h2.538v24.098zm.613-34.049c0 .525-.179.979-.538 1.354-.358.375-.8.563-1.321.563-.521 0-.967-.188-1.342-.563-.375-.375-.563-.813-.563-1.304 0-.525.183-.971.55-1.338.367-.371.8-.554 1.308-.554.533 0 .988.183 1.354.554.367.367.55.796.55 1.288m24.43 11.704l-1.829 1.854c-.75-.746-1.442-1.25-2.075-1.513-.638-.258-1.467-.392-2.492-.392-.979 0-1.875.192-2.7.575-.821.383-1.513.917-2.075 1.6-.558.683-.979 1.454-1.254 2.317-.279.863-.417 1.8-.417 2.809v14.847h-2.538v-24.098h2.538v3.196c.7-1.108 1.692-1.967 2.979-2.575 1.283-.613 2.646-.917 4.075-.917 1.188 0 2.242.171 3.163.513.921.342 1.796.938 2.625 1.783m20.412 8.545c-.05-1.188-.121-2.046-.221-2.575-.096-.529-.3-1.183-.608-1.967-.504-1.238-1.338-2.221-2.492-2.954-1.154-.733-2.409-1.1-3.759-1.1-1.383 0-2.638.363-3.763 1.088-1.121.725-1.95 1.713-2.488 2.967-.308.783-.517 1.467-.625 2.05-.104.588-.183 1.417-.229 2.492h14.184zm2.563 2.05h-16.747c0 3.063.671 5.409 2.013 7.046 1.342 1.633 3.284 2.45 5.825 2.45 1.4 0 2.596-.217 3.588-.658.992-.438 2.017-1.188 3.075-2.246l1.904 1.517c-1.283 1.283-2.579 2.221-3.888 2.804-1.308.588-2.917.879-4.817.879-2.209 0-4.075-.467-5.596-1.404-1.521-.933-2.675-2.321-3.463-4.163-.788-1.838-1.183-4.1-1.183-6.788 0-1.95.221-3.688.663-5.213.438-1.521 1.067-2.8 1.888-3.842.821-1.042 1.842-1.85 3.059-2.417 1.221-.571 2.571-.858 4.05-.858 1.513 0 2.85.263 4.021.783 1.171.521 2.179 1.292 3.025 2.309.846 1.017 1.488 2.25 1.925 3.696.438 1.45.658 3.1.658 4.959v1.146zm-237.184 38.293h-10.647v33.207h-2.709v-33.207h-10.597v-2.392h23.952v2.392zm21.704 19.657c-.05-1.188-.121-2.046-.221-2.575-.096-.529-.3-1.183-.608-1.967-.504-1.238-1.338-2.221-2.492-2.954-1.154-.733-2.409-1.1-3.759-1.1-1.383 0-2.638.363-3.763 1.088-1.121.725-1.95 1.713-2.488 2.967-.308.783-.517 1.467-.625 2.05-.104.588-.183 1.417-.229 2.492h14.184zm2.563 2.05h-16.747c0 3.063.671 5.409 2.013 7.046 1.342 1.633 3.284 2.45 5.825 2.45 1.4 0 2.596-.217 3.588-.658.992-.438 2.017-1.188 3.075-2.246l1.904 1.517c-1.283 1.283-2.579 2.221-3.888 2.804-1.308.588-2.917.879-4.817.879-2.209 0-4.075-.467-5.596-1.404-1.521-.933-2.675-2.321-3.463-4.163-.788-1.838-1.183-4.1-1.183-6.788 0-1.95.221-3.688.663-5.213.438-1.521 1.067-2.8 1.888-3.842.821-1.042 1.842-1.85 3.059-2.417 1.221-.571 2.571-.858 4.05-.858 1.513 0 2.85.263 4.021.783 1.171.521 2.179 1.292 3.025 2.309.846 1.017 1.488 2.25 1.925 3.696.438 1.45.658 3.1.658 4.959v1.146zm25.392 8.106c-1.283 1.417-2.513 2.384-3.684 2.904-1.171.521-2.592.783-4.267.783-1.608 0-3.059-.283-4.35-.842-1.292-.563-2.413-1.388-3.354-2.479-.942-1.092-1.658-2.409-2.146-3.954-.488-1.546-.729-3.242-.729-5.08 0-2.554.425-4.755 1.279-6.592.85-1.842 2.075-3.254 3.671-4.25 1.592-.992 3.467-1.488 5.63-1.488 1.725 0 3.167.263 4.33.792 1.163.529 2.371 1.496 3.621 2.896l-1.758 1.608c-.667-.763-1.317-1.371-1.954-1.817-.633-.45-1.279-.767-1.938-.954-.663-.188-1.429-.279-2.309-.279-2.784 0-4.917 1.067-6.396 3.2-.588.846-1.008 1.808-1.258 2.892-.254 1.083-.379 2.413-.379 3.992 0 1.579.121 2.9.367 3.967.246 1.067.667 2.046 1.271 2.942 1.479 2.134 3.613 3.2 6.396 3.2 1.271 0 2.367-.225 3.296-.671.929-.45 1.896-1.242 2.904-2.384l1.758 1.613zm26.05 3.397h-2.538v-14.943c0-2.329-.571-4.109-1.713-5.346-1.138-1.238-2.779-1.854-4.93-1.854-1.433 0-2.659.279-3.675.842-1.017.558-1.796 1.383-2.334 2.463-.533 1.083-.804 2.384-.804 3.896v14.943h-2.538v-35.599h2.538v14.355c1.808-2.1 4.175-3.15 7.105-3.15 1.792 0 3.363.363 4.713 1.088 1.35.725 2.384 1.763 3.1 3.113.717 1.354 1.075 2.946 1.075 4.788v15.405zm27.953-.001h-2.538v-14.943c0-2.329-.571-4.109-1.713-5.346-1.138-1.238-2.779-1.854-4.93-1.854-1.433 0-2.659.279-3.675.842-1.017.558-1.796 1.383-2.334 2.463-.533 1.083-.804 2.384-.804 3.896v14.943h-2.538v-24.098h2.538v2.854c1.808-2.1 4.175-3.15 7.105-3.15 2.704 0 4.834.767 6.396 2.296 1.663 1.579 2.492 3.809 2.492 6.692v15.405zm24.88-12.064c0-1.854-.133-3.434-.404-4.738-.271-1.3-.85-2.4-1.75-3.296-1.333-1.367-2.996-2.05-4.988-2.05-2.004 0-3.675.683-5.013 2.05-.896.896-1.479 2.017-1.75 3.359-.267 1.342-.404 2.9-.404 4.675 0 1.758.138 3.317.404 4.675.271 1.358.854 2.488 1.75 3.384 1.371 1.367 3.038 2.05 5.013 2.05 1.958 0 3.621-.683 4.988-2.05.9-.896 1.479-2 1.75-3.309.271-1.313.404-2.896.404-4.75m2.538 0c0 1.288-.079 2.509-.242 3.663-.163 1.154-.467 2.254-.904 3.296-.438 1.042-1.054 1.963-1.85 2.759-1.792 1.758-4.017 2.638-6.684 2.638-2.679 0-4.917-.879-6.705-2.638-.796-.796-1.417-1.713-1.854-2.746-.442-1.033-.738-2.121-.9-3.259-.163-1.142-.246-2.379-.246-3.713 0-2.017.213-3.85.633-5.492.421-1.646 1.213-3.046 2.367-4.2 1.754-1.758 3.992-2.638 6.705-2.638 2.7 0 4.925.879 6.684 2.638.796.796 1.413 1.717 1.85 2.759.438 1.042.742 2.138.904 3.284.163 1.146.242 2.363.242 3.65m16.187 12.064h-2.196c-1.875 0-3.304-.558-4.3-1.671-.992-1.117-1.488-2.642-1.488-4.58v-29.348h2.538v29.298c0 1.4.279 2.425.833 3.079.55.65 1.513.975 2.879.975h1.733v2.246zm21.925-12.065c0-1.854-.133-3.434-.404-4.738-.271-1.3-.85-2.4-1.75-3.296-1.333-1.367-2.996-2.05-4.988-2.05-2.004 0-3.675.683-5.013 2.05-.896.896-1.479 2.017-1.75 3.359-.267 1.342-.404 2.9-.404 4.675 0 1.758.138 3.317.404 4.675.271 1.358.854 2.488 1.75 3.384 1.371 1.367 3.038 2.05 5.013 2.05 1.958 0 3.621-.683 4.988-2.05.9-.896 1.479-2 1.75-3.309.271-1.313.404-2.896.404-4.75m2.538 0c0 1.288-.079 2.509-.242 3.663-.163 1.154-.467 2.254-.904 3.296-.438 1.042-1.054 1.963-1.85 2.759-1.792 1.758-4.017 2.638-6.684 2.638-2.679 0-4.917-.879-6.705-2.638-.796-.796-1.417-1.713-1.854-2.746-.442-1.033-.738-2.121-.9-3.259-.163-1.142-.246-2.379-.246-3.713 0-2.017.213-3.85.633-5.492.421-1.646 1.213-3.046 2.367-4.2 1.754-1.758 3.992-2.638 6.705-2.638 2.7 0 4.925.879 6.684 2.638.796.796 1.413 1.717 1.85 2.759.438 1.042.742 2.138.904 3.284.163 1.146.242 2.363.242 3.65m23.045-.002c0-3.042-.463-5.484-1.392-7.326-.929-1.838-2.734-2.759-5.421-2.759-2.667 0-4.467.921-5.396 2.759-.925 1.842-1.392 4.284-1.392 7.326 0 3.059.467 5.509 1.392 7.351.929 1.838 2.729 2.759 5.396 2.759 2.688 0 4.492-.921 5.421-2.759.929-1.842 1.392-4.292 1.392-7.351m2.538 13.405c0 2.017-.388 3.821-1.171 5.409-.779 1.588-1.913 2.821-3.4 3.709-1.488.888-3.242 1.333-5.259 1.333-1.708 0-3.113-.233-4.221-.696-1.104-.467-2.35-1.3-3.729-2.504l1.692-1.683c1.092.958 2.058 1.638 2.904 2.038.846.4 1.963.6 3.346.6 2.409 0 4.23-.767 5.459-2.296 1.229-1.529 1.842-3.55 1.842-6.055v-4.3c-.683.896-1.392 1.592-2.134 2.088-.738.5-1.525.842-2.367 1.025-.833.188-1.717.283-2.642.283-2.538 0-4.5-.7-5.9-2.1-2.063-2.067-3.096-5.484-3.096-10.255 0-4.755 1.033-8.163 3.096-10.23.65-.65 1.483-1.163 2.5-1.538 1.013-.375 2.146-.563 3.4-.563 1.496 0 2.817.242 3.971.721s2.213 1.371 3.171 2.671v-3.1h2.538v25.444zm12.315-1.096h-2.538v-24.098h2.538v24.098zm.613-34.049c0 .525-.179.975-.538 1.35-.358.379-.8.567-1.321.567-.521 0-.967-.188-1.342-.567-.375-.375-.563-.808-.563-1.304 0-.525.183-.971.55-1.338.367-.371.804-.554 1.308-.554.538 0 .988.183 1.354.554.367.367.55.8.55 1.292" fill="#fff"/><path d="M544.271 475.342c-.05-1.188-.121-2.046-.221-2.575-.096-.529-.3-1.183-.608-1.967-.504-1.238-1.338-2.221-2.492-2.954-1.154-.733-2.409-1.1-3.759-1.1-1.383 0-2.638.363-3.763 1.088-1.121.725-1.95 1.713-2.488 2.967-.308.783-.517 1.467-.625 2.05-.104.588-.183 1.417-.229 2.492h14.184zm2.563 2.05h-16.747c0 3.063.671 5.409 2.013 7.046 1.342 1.633 3.284 2.45 5.825 2.45 1.4 0 2.596-.217 3.588-.658.992-.438 2.017-1.188 3.075-2.246l1.904 1.517c-1.283 1.283-2.579 2.221-3.888 2.804-1.308.588-2.917.879-4.817.879-2.209 0-4.075-.467-5.596-1.404-1.521-.933-2.675-2.321-3.463-4.163-.788-1.838-1.183-4.1-1.183-6.788 0-1.95.221-3.688.663-5.213.438-1.521 1.067-2.8 1.888-3.842.821-1.042 1.842-1.85 3.059-2.417 1.221-.571 2.571-.858 4.05-.858 1.513 0 2.85.263 4.021.783 1.171.521 2.179 1.292 3.025 2.309.846 1.017 1.488 2.25 1.925 3.696.438 1.45.658 3.1.658 4.959v1.146z" fill="#fff"/></g></svg>