<?xml version="1.0" encoding="utf-8"?>
<!-- Generator: Adobe Illustrator 16.0.0, SVG Export Plug-In . SVG Version: 6.00 Build 0)  -->
<!DOCTYPE svg PUBLIC "-//W3C//DTD SVG 1.1//EN" "http://www.w3.org/Graphics/SVG/1.1/DTD/svg11.dtd">
<svg version="1.1" id="Layer_1" xmlns="http://www.w3.org/2000/svg" xmlns:xlink="http://www.w3.org/1999/xlink" x="0px" y="0px"
	 width="122.854px" height="135.674px" viewBox="0 0 122.854 135.674" enable-background="new 0 0 122.854 135.674"
	 xml:space="preserve">
<path fill="#00A9FF" d="M111.04,30.783L68.352,6.134c-2.143-1.235-4.523-1.868-6.915-1.91V4.223c-0.004,0-0.006,0-0.009,0
	s-0.007,0-0.01,0v0.001c-2.39,0.042-4.772,0.675-6.915,1.911L11.814,30.78c-4.434,2.561-7.165,7.29-7.165,12.411v49.292
	c0,5.12,2.731,9.852,7.165,12.409l42.688,24.649c2.143,1.234,4.523,1.867,6.915,1.91l0,0c0.003,0,0.007,0,0.01,0s0.005,0,0.009,0
	l0,0c2.39-0.043,4.772-0.675,6.915-1.911l42.688-24.646c4.434-2.561,7.165-7.29,7.165-12.411V43.192
	C118.205,38.072,115.474,33.34,111.04,30.783z"/>
<path opacity="0.07" fill="#262626" d="M61.25,131.42c2.396-0.039,4.785-0.672,6.934-1.912l42.688-24.645
	c4.434-2.561,7.166-7.291,7.166-12.412V43.16c0-5.12-2.732-9.852-7.166-12.409L68.184,6.102c-2.148-1.238-4.535-1.872-6.934-1.911
	V131.42z"/>
<path id="XMLID_12_" fill="#FFFFFF" d="M93.521,48.241c-2.352,1.028-4.896,1.724-7.561,2.038c2.723-1.601,4.809-4.142,5.793-7.175
	c-2.545,1.487-5.363,2.57-8.367,3.151c-2.396-2.519-5.82-4.094-9.615-4.094c-7.264,0-13.166,5.806-13.166,12.963
	c0,1.018,0.117,2.004,0.34,2.955c-10.947-0.544-20.652-5.706-27.146-13.547c-1.125,1.915-1.783,4.146-1.783,6.52
	c0,4.494,2.33,8.462,5.867,10.789c-2.16-0.066-4.195-0.65-5.971-1.62c0,0.052,0,0.111,0,0.159c0,1.66,0.318,3.24,0.895,4.701
	c1.613,4.064,5.238,7.139,9.676,8.018c-1.109,0.289-2.279,0.459-3.477,0.459c-0.844,0-1.672-0.088-2.484-0.244
	c1.686,5.148,6.545,8.906,12.307,9.002c-4.512,3.484-10.178,5.555-16.361,5.555c-1.064,0-2.1-0.059-3.135-0.178
	c5.828,3.676,12.75,5.822,20.186,5.822c20.583,0,33.24-14.262,36.578-29.059c0.59-2.615,0.9-5.252,0.9-7.827
	c0-0.558-0.014-1.12-0.043-1.675C89.527,53.123,91.76,50.841,93.521,48.241z"/>
</svg>
