<svg xmlns="http://www.w3.org/2000/svg" width="122.854" height="135.674" viewBox="0 0 122.854 135.674"><path fill="#00A9FF" d="M111.04 30.783l-42.688-24.649c-2.143-1.235-4.523-1.868-6.915-1.91v-.001h-.019v.001c-2.39.042-4.772.675-6.915 1.911l-42.689 24.645c-4.434 2.561-7.165 7.29-7.165 12.411v49.292c0 5.12 2.731 9.852 7.165 12.409l42.688 24.649c2.143 1.234 4.523 1.867 6.915 1.91h.019c2.39-.043 4.772-.675 6.915-1.911l42.688-24.646c4.434-2.561 7.165-7.29 7.165-12.411v-49.291c.001-5.12-2.73-9.852-7.164-12.409z"/><path opacity=".07" fill="#262626" d="M61.25 131.42c2.396-.039 4.785-.672 6.934-1.912l42.688-24.645c4.434-2.561 7.166-7.291 7.166-12.412v-49.291c0-5.12-2.732-9.852-7.166-12.409l-42.688-24.649c-2.148-1.238-4.535-1.872-6.934-1.911v127.229z"/><path fill="#fff" d="M93.521 48.241c-2.352 1.028-4.896 1.724-7.561 2.038 2.723-1.601 4.809-4.142 5.793-7.175-2.545 1.487-5.363 2.57-8.367 3.151-2.396-2.519-5.82-4.094-9.615-4.094-7.264 0-13.166 5.806-13.166 12.963 0 1.018.117 2.004.34 2.955-10.947-.544-20.652-5.706-27.146-13.547-1.125 1.915-1.783 4.146-1.783 6.52 0 4.494 2.33 8.462 5.867 10.789-2.16-.066-4.195-.65-5.971-1.62v.159c0 1.66.318 3.24.895 4.701 1.613 4.064 5.238 7.139 9.676 8.018-1.109.289-2.279.459-3.477.459-.844 0-1.672-.088-2.484-.244 1.686 5.148 6.545 8.906 12.307 9.002-4.512 3.484-10.178 5.555-16.361 5.555-1.064 0-2.1-.059-3.135-.178 5.828 3.676 12.75 5.822 20.186 5.822 20.583 0 33.24-14.262 36.578-29.059.59-2.615.9-5.252.9-7.827 0-.558-.014-1.12-.043-1.675 2.573-1.831 4.806-4.113 6.567-6.713z"/></svg>