<svg xmlns="http://www.w3.org/2000/svg" width="799" height="532.998" viewBox="240.5 133.171 799 532.998" enable-background="new 240.5 133.171 799 532.998"><path fill="#F0F0F0" d="M240 133.333h800v533.339h-800z"/><path fill="#D80027" d="M690 133.328h-100v216.665h-350v100h350v216.666h100v-216.666h350v-100h-350z"/><path d="M855.289 492.746l184.711 102.619v-102.619zm-128.332 0l313.043 173.913v-49.178l-224.52-124.735zm229.659 173.913l-229.659-127.6v127.6z" fill="#0052B4"/><path fill="#F0F0F0" d="M726.957 492.746l313.043 173.913v-49.178l-224.52-124.735z"/><path fill="#D80027" d="M726.957 492.746l313.043 173.913v-49.178l-224.52-124.735z"/><path d="M381.158 492.743l-141.158 78.422v-78.422zm171.886 22.117v151.797h-273.214z" fill="#0052B4"/><path fill="#D80027" d="M464.52 492.746l-224.52 124.735v49.178l313.044-173.913z"/><path d="M424.711 307.24l-184.711-102.618v102.618zm128.333 0l-313.044-173.912v49.178l224.52 124.734zm-229.659-173.912l229.659 127.6v-127.6z" fill="#0052B4"/><path fill="#F0F0F0" d="M553.044 307.24l-313.044-173.912v49.178l224.52 124.734z"/><path fill="#D80027" d="M553.044 307.24l-313.044-173.912v49.178l224.52 124.734z"/><path d="M898.843 307.243l141.157-78.421v78.421zm-171.886-22.115v-151.799h273.214z" fill="#0052B4"/><path fill="#D80027" d="M815.48 307.24l224.52-124.734v-49.178l-313.043 173.912z"/></svg>