<?xml version="1.0" encoding="utf-8"?>
<!-- Generator: Adobe Illustrator 16.0.0, SVG Export Plug-In . SVG Version: 6.00 Build 0)  -->
<!DOCTYPE svg PUBLIC "-//W3C//DTD SVG 1.1//EN" "http://www.w3.org/Graphics/SVG/1.1/DTD/svg11.dtd">
<svg version="1.1" id="Capa_1" xmlns="http://www.w3.org/2000/svg" xmlns:xlink="http://www.w3.org/1999/xlink" x="0px" y="0px"
	 width="799px" height="532.998px" viewBox="240.5 133.171 799 532.998" enable-background="new 240.5 133.171 799 532.998"
	 xml:space="preserve">
<rect x="240" y="133.333" fill="#F0F0F0" width="800" height="533.339"/>
<polygon fill="#D80027" points="690,133.328 590,133.328 590,349.993 240,349.993 240,449.993 590,449.993 590,666.659 690,666.659 
	690,449.993 1040,449.993 1040,349.993 690,349.993 "/>
<g>
	<polygon fill="#0052B4" points="855.289,492.746 1040,595.365 1040,492.746 	"/>
	<polygon fill="#0052B4" points="726.957,492.746 1040,666.659 1040,617.481 815.48,492.746 	"/>
	<polygon fill="#0052B4" points="956.616,666.659 726.957,539.059 726.957,666.659 	"/>
</g>
<polygon fill="#F0F0F0" points="726.957,492.746 1040,666.659 1040,617.481 815.48,492.746 "/>
<polygon fill="#D80027" points="726.957,492.746 1040,666.659 1040,617.481 815.48,492.746 "/>
<g>
	<polygon fill="#0052B4" points="381.158,492.743 240,571.165 240,492.743 	"/>
	<polygon fill="#0052B4" points="553.044,514.86 553.044,666.657 279.83,666.657 	"/>
</g>
<polygon fill="#D80027" points="464.52,492.746 240,617.481 240,666.659 240,666.659 553.044,492.746 "/>
<g>
	<polygon fill="#0052B4" points="424.711,307.24 240,204.622 240,307.24 	"/>
	<polygon fill="#0052B4" points="553.044,307.24 240,133.328 240,182.506 464.52,307.24 	"/>
	<polygon fill="#0052B4" points="323.385,133.328 553.044,260.928 553.044,133.328 	"/>
</g>
<polygon fill="#F0F0F0" points="553.044,307.24 240,133.328 240,182.506 464.52,307.24 "/>
<polygon fill="#D80027" points="553.044,307.24 240,133.328 240,182.506 464.52,307.24 "/>
<g>
	<polygon fill="#0052B4" points="898.843,307.243 1040,228.822 1040,307.243 	"/>
	<polygon fill="#0052B4" points="726.957,285.128 726.957,133.329 1000.171,133.329 	"/>
</g>
<polygon fill="#D80027" points="815.48,307.24 1040,182.506 1040,133.328 1040,133.328 726.957,307.24 "/>
</svg>
