<?xml version="1.0" encoding="utf-8"?>
<!-- Generator: Adobe Illustrator 16.0.0, SVG Export Plug-In . SVG Version: 6.00 Build 0)  -->
<!DOCTYPE svg PUBLIC "-//W3C//DTD SVG 1.1//EN" "http://www.w3.org/Graphics/SVG/1.1/DTD/svg11.dtd">
<svg version="1.1" xmlns="http://www.w3.org/2000/svg" xmlns:xlink="http://www.w3.org/1999/xlink" x="0px" y="0px"
	 width="122.854px" height="135.674px" viewBox="0 0 122.854 135.674" enable-background="new 0 0 122.854 135.674"
	 xml:space="preserve">
<g id="Layer_1" display="none">
	<path display="inline" fill="#4569AC" d="M111.04,30.783L68.352,6.134c-2.143-1.235-4.523-1.868-6.915-1.91V4.223
		c-0.004,0-0.006,0-0.009,0s-0.007,0-0.01,0v0.001c-2.39,0.042-4.772,0.675-6.915,1.911L11.814,30.78
		c-4.434,2.561-7.165,7.29-7.165,12.411v49.292c0,5.12,2.731,9.852,7.165,12.409l42.688,24.649c2.143,1.234,4.523,1.867,6.915,1.91
		l0,0c0.003,0,0.007,0,0.01,0s0.005,0,0.009,0l0,0c2.39-0.043,4.772-0.675,6.915-1.911l42.688-24.646
		c4.434-2.561,7.165-7.29,7.165-12.411V43.192C118.205,38.072,115.474,33.34,111.04,30.783z"/>
	<path display="inline" opacity="0.07" fill="#262626" d="M61.25,131.42c2.396-0.039,4.785-0.672,6.934-1.912l42.688-24.645
		c4.434-2.561,7.166-7.291,7.166-12.412V43.16c0-5.12-2.732-9.852-7.166-12.409L68.184,6.102c-2.148-1.238-4.535-1.872-6.934-1.911
		V131.42z"/>
	<path id="XMLID_24_" display="inline" fill="#FFFFFF" d="M66.201,54.996v-5.133c0-2.5,1.67-3.084,2.838-3.084
		c1.172,0,7.205,0,7.205,0V35.786l-9.92-0.044c-11.01,0-13.51,8.203-13.51,13.455v5.799h-6.365v7.759v5.083h6.42
		c0,14.549,0,32.094,0,32.094h12.838c0,0,0-17.723,0-32.094h9.527l0.461-5.045l0.711-7.796H66.201z"/>
</g>
<g id="Layer_2">
	<g>
		<path fill="#DB0C0B" d="M110.934,30.782L68.244,6.133c-2.143-1.235-4.523-1.868-6.914-1.91V4.222c-0.004,0-0.006,0-0.01,0
			c-0.002,0-0.006,0-0.01,0v0.001c-2.389,0.042-4.772,0.675-6.915,1.911L11.708,30.78c-4.434,2.561-7.165,7.29-7.165,12.411v49.292
			c0,5.119,2.731,9.852,7.165,12.408l42.688,24.648c2.143,1.236,4.524,1.869,6.915,1.91v0.002c0.004,0,0.008,0,0.01,0
			c0.004,0,0.006,0,0.01,0v-0.002c2.389-0.041,4.771-0.674,6.914-1.91l42.689-24.646c4.434-2.559,7.164-7.289,7.164-12.41V43.191
			C118.098,38.071,115.367,33.34,110.934,30.782z"/>
		<path opacity="0.07" fill="#262626" d="M61.525,131.451c2.396-0.039,4.785-0.672,6.934-1.912l42.688-24.646
			c4.434-2.559,7.166-7.289,7.166-12.41V43.191c0-5.12-2.732-9.852-7.166-12.409L68.459,6.133c-2.148-1.238-4.535-1.872-6.934-1.911
			V131.451z"/>
		<path fill="#FFFFFF" d="M92.502,56.604c0,0-0.623-4.616-2.545-6.642c-2.441-2.664-5.178-2.678-6.436-2.833
			c-8.986-0.673-22.457-0.673-22.457-0.673h-0.029c0,0-13.477,0-22.457,0.673c-1.258,0.155-3.991,0.17-6.436,2.833
			c-1.92,2.026-2.548,6.649-2.548,6.649s-0.64,5.407-0.64,10.829v0.652v4.422c0,5.422,0.64,10.836,0.64,10.836
			s0.628,4.617,2.548,6.643c2.444,2.664,5.658,2.582,7.079,2.855c5.137,0.518,21.827,0.682,21.827,0.682s13.486-0.029,22.473-0.703
			c1.258-0.154,3.994-0.17,6.436-2.834c1.922-2.025,2.545-6.643,2.545-6.643s0.643-5.414,0.643-10.836v-4.143v-0.932
			C93.145,62.018,92.502,56.604,92.502,56.604z M71.76,69.305l-17.333,9.363l-0.008-14.416v-4.386l7.818,4.261L71.76,69.305z"/>
	</g>
</g>
</svg>
