<svg xmlns="http://www.w3.org/2000/svg" width="122.854" height="135.674" viewBox="0 0 122.854 135.674"><path fill="#DB0C0B" d="M110.934 30.782l-42.69-24.649c-2.143-1.235-4.523-1.868-6.914-1.91v-.001h-.02v.001c-2.389.042-4.772.675-6.915 1.911l-42.687 24.646c-4.434 2.561-7.165 7.29-7.165 12.411v49.292c0 5.119 2.731 9.852 7.165 12.408l42.688 24.648c2.143 1.236 4.524 1.869 6.915 1.91v.002h.02v-.002c2.389-.041 4.771-.674 6.914-1.91l42.689-24.646c4.434-2.559 7.164-7.289 7.164-12.41v-49.292c0-5.12-2.731-9.851-7.164-12.409z"/><path opacity=".07" fill="#262626" d="M61.525 131.451c2.396-.039 4.785-.672 6.934-1.912l42.688-24.646c4.434-2.559 7.166-7.289 7.166-12.41v-49.292c0-5.12-2.732-9.852-7.166-12.409l-42.688-24.649c-2.148-1.238-4.535-1.872-6.934-1.911v127.229z"/><path fill="#fff" d="M92.502 56.604s-.623-4.616-2.545-6.642c-2.441-2.664-5.178-2.678-6.436-2.833-8.986-.673-22.457-.673-22.457-.673h-.029s-13.477 0-22.457.673c-1.258.155-3.991.17-6.436 2.833-1.92 2.026-2.548 6.649-2.548 6.649s-.64 5.407-.64 10.829v5.074c0 5.422.64 10.836.64 10.836s.628 4.617 2.548 6.643c2.444 2.664 5.658 2.582 7.079 2.855 5.137.518 21.827.682 21.827.682s13.486-.029 22.473-.703c1.258-.154 3.994-.17 6.436-2.834 1.922-2.025 2.545-6.643 2.545-6.643s.643-5.414.643-10.836v-5.075c0-5.421-.643-10.835-.643-10.835zm-20.742 12.701l-17.333 9.363-.008-14.416v-4.386l7.818 4.261 9.523 5.178z"/></svg>