<svg xmlns="http://www.w3.org/2000/svg" width="326.5" height="396" viewBox="0 0 326.5 396"><g fill="#fff"><path d="M205.207 379.495c-.903 1.059.809 1.174.9.799.418-.684-.9-.799-.9-.799zM60.554 376.626v.07l.152-.225c-.075.001-.152.001-.152.155zM60.215 374.644c-.241 0-.729 1.126-1.113 1.443l1.147.765c0-.683.149-1.452.075-2.063-.024-.101-.061-.145-.109-.145zM41.391 366.11c-.798 0-1.914.642-2.024.699l.537 2.19h1.685s-.077-.359-.077-.589c-.077-.458-.23-.901-.077-1.362.077-.227.765-.297.688-.527-.136-.308-.409-.411-.732-.411zM209.54 355.127c-.105.039-.166-.139-.217-.316-.064-.207-.12-.415-.242-.293-.613.609.459 1.451-1.07 1.533-.86.058-1.135-.159-1.279-.375-.235-.341-.146-.684-1.55.067-.998.534-.919 1.299-2.83 1.683-.519.13-1.154.039-1.722-.048-.441-.072-.841-.139-1.11-.105 0 0-1.914.913-1.985.913-.539 0-1.15-.303-1.608-.605-.151-.077-.077-.538-.306-.615-.192-.072-.403-.02-.605.038-.199.058-.39.115-.541.039-.459-.231.23-1.15-.613-1.15-3.287-.148-.688 1.76-3.287 2.145-.689.077-.921-1.452-1.073-1.684-.304-.384-.688.766-1.068 1.073-.308.303-.764.38-.997.688-.227.308-.378.684-.378.99 0 .231.303.309.227.539 0 .23-.459.38-.459.688-.075.308 1.762 2.293 1.914 2.37.371.169.766.044 1.158-.086.333-.106.666-.212.982-.145 1.681.462 2.751 1.914 4.285 2.448.17.071.343.062.515.053.196-.016.384-.024.553.1.384.155.536.688.843.919.229.154.46.23.688.308.709.284 1.352.256 1.975.227.721-.034 1.416-.063 2.153.385.996.61 1.227 2.293 2.143 2.678 2.142.99 1.454.457 3.061.308.678-.038 1.086.158 1.349.356.3.226.403.451.488.326.229-.379-.077-.99 0-1.452.076-.38.151-.841.379-1.222.231-.384.616-.615.996-.841.153-.153.462-.076.382-.23-.229-.611-1.146-.919-1.301-1.529-.077-.231.077-.384.077-.533.127-.304.164-.188.236-.077.055.091.134.178.3.077.459-.309-1.069-.309-1.378-.765-.765-1.072 2.525-9.03 3.518-9.563-.303-.207-.531-.29-.724-.29-.586-.004-.843.743-1.879.973zM154.471 348.171l.188-.054c-.176.034-.304.054-.188.054zM155.462 347.718l-.804.399c.284-.053.746-.163.804-.399zM252.367 349.622c-.385-.077-.154-.765-.154-.842-.151-.461-.459-.841-.688-1.222-1.683 2.218-1.298 4.434-.688 3.131.153-.303-.23-.842 0-.99.459-.385.23 1.375.765 1.529.308.077.61-.303.918-.303.536.071.766.836 1.376.303.84-.688-1.144-1.529-1.529-1.606zM109.808 344.211l-.84-.211h-.075c-.461 0-1.148.365-1.148.75 0 .303.307.866.687.866.461 0 .765.023 1.375-.51l.001-.895zM108.279 342.131c0-.385-.534-.692-.534-.692l-.688.076c-.615.154-.766.535-1.071.919-.305.457-.766 1.149-.078 1.452.383.23 1.529-.38 1.76-.841.154-.38.611-.457.611-.914zM279.748 345.262c.079.153.232-.227.384-.227.226.153.459.38.537.611 0 .153-.312.225-.231.379.457.539 2.523 2.068 3.288.842 1.376-2.293-2.063-1.145-2.904-1.761-.767-.532-.615-2.827-.615-2.903-.226-.38-.764-.38-1.066-.688-.077-.076 0-.229.073-.307 0-.077.151-.154.075-.226-.18-.317-.822-.126-1.406.066-.401.135-.776.27-.964.236-.459-.154-.765-.611-1.145-.765-.156-.077-.23.226-.385.226-.303 0-.611-.072-.842-.226-1.298-.688-1.144-1.375-2.447-2.063-.459.226-.918.456-1.377.764-.306.23-.534.457-.842.765l-.762.688c-.154.154-.534.688-.308.611.382-.231.61-.765 1.069-.919.842-.153 5.356 1.99 5.585 2.679l-.154.765c.577.581 1.26.331 1.909.076.469-.178.923-.355 1.303-.23.616.23 1.15.609 1.531 1.072.152.155-.306.379-.306.535zM114.717 338.761c-.707.072-.935.139-.243-2.212-2.369.457-4.739 1.451-6.652 2.903-.077.077-.231.227-.154.304.459.308.993.538 1.529.615.13.033.284-.048.444-.12.219-.105.448-.207.626-.033.381.303.231.995.381 1.528.212.635.33.549.592.457.202-.076.504-.153 1.019.153.38.231.303 1.072.685 1.072.308.077 4.208-3.673 3.672-4.13-.76-.634-1.431-.586-1.899-.537zM120.106 336.054c-1.153 0-1.713.514-.507 1.331.257.174.564.13.863.082.235-.033.464-.071.666-.004 1.069.537 3.137 3.596 1.377-.842-.845-.394-1.726-.567-2.399-.567zM166.098 333.408c-.082-1.951-.314-1.759-.587-1.571-.233.167-.5.336-.716-.952l.385-.457c-.385-.462-1.453-.308-1.606-.842-.153-.538 1.149-.385 1.222-.846.464-1.678-2.904-1.451-3.133-2.52-.69.842-4.895 4.284-6.044 4.207-1.374 0-1.911-1.61-1.988-1.533-.227.229.153.538.077.841l-.688 1.457c-.146 2.39.042 2 .424 1.616.228-.231.531-.463.875-.088.46.534 1.608 4.279 1.3 5.045-.151.308-.611.23-.763.461-.077.077.231.077.231.154 0 .384-.384.841-.153 1.221.105.149.353.14.588.13.262-.015.518-.024.556.178.153.457-.688.688-.765 1.145-.154.538.154.996.077 1.529-.231 1.303-1.298 2.299-.842 3.827.154.457.919.765.919 1.299l-.004.009c.076-.023.156-.038.235-.009 1.45.61-.385 3.441 2.599 2.067 2.142-.996.916-.688 1.377-2.447.077-.385.459-.539.534-.842 0-.23-.764-.539-.534-.539 1.298-.071 2.679.996 3.747 1.381.153.076.079.456.153.307 1.452-2.524 1.149-6.044 1.377-8.567 0-.385.383-.688.383-.995-.153-.842-1.3-.842-.916-1.833.377-1.072 1.756-1.529 1.68-2.833zM163.807 313.065c-.133-.26-.483-.909-.536-.909v.067c.12.36.317.616.48.898.038.017.07.012.056-.056zM162.198 311.916c-.534 0-.918-.61-1.375-.533-.382.076-.382.765-.765.994-.155.077-.329.039-.5 0-.17-.037-.346-.077-.494 0-.382.154-.459.688-.842.765-.072.039-.144-.062-.211-.163-.067-.111-.13-.221-.173-.144-.303.461-.227 1.148-.38 1.683-.153.23-.995 0-.919.307.232.457.996.688.996 1.146 0 .538-.996.691-.917 1.148.152.611 1.301.462 1.373 1.073.078.533-1.146.841-.995 1.451.041.231.365.115.69 0 .324-.11.651-.23.69 0 .077.611-1.149.919-1.149 1.529-.077.538.841.688 1.072 1.148.154.304-.309.611-.154.842.442.735.851.683 1.351.635.279-.028.586-.058.945.053.228.072-.079 2.294.993 1.227.385-.462.154-1.154.385-1.688.151-.227.61-.227.61-.534.034-.067-.057-.062-.168-.048-.13.01-.291.023-.291-.101l.459-.159c.842-.918.46-2.293.46-3.289 0-.918 1.3-1.913 1.223-3.212 0-.456 0-2.14-.23-2.673l-.13-.251c-.151-.053-.558-.509-.558-.745 0-.842 1.072-2.903 0-3.673-.305.616-.918 1.072-.996 1.684-.076.538.461 1.528 0 1.528zM221.243 306.03c-.271-.038-.558-.019-.847 0-.287.021-.572.034-.836 0-.142 0-.279-.317-.36-.317l-.024.011c-.151.076-.151.456 0 .533.255.087.536.052.822.02.23-.024.471-.054.707-.02.458.076.995.23 1.534.538l.226.457c1.036.548 1.574.528 2.104.505.799-.028 1.574-.067 4.017 1.865.534.385 1.222.77 1.912.919l-.151-.534c-.919-1.528-2.371-.995-4.057-2.297-.459-.381-.612-1.068-1.146-1.223-.308-.154-.688.154-1.072.23l.385.15c.153.081.306.538.153.538-1.227-.076-2.145-1.225-3.367-1.375zM82.088 194.777l1.072 2.376c1.452-.692.309-1.302-1.072-2.376zM187.359 195.663c1.227-.304 2.219-1.068 2.068-1.222-.231-.534-.919-.61-1.072-1.149-.154-.456.918-1.067.457-1.221-.227-.077-.479-.058-.736-.039-.26.019-.524.039-.793-.038-.277-.072.141-1.024-.01-1.024l-.065.028c-.306.386-.993.765-.918 1.227l.146.14c-.329-.146-.611-.207-.683.014-.227.688.076 1.529-.074 2.217.536.379 1.07 1.297 1.68 1.067zM180.171 189.586c-.151-.693-1.303-.711-1.837-1.244l-.283-.018c-.217-.006-.452-.029-.558.178-.38.611.612 1.133 1.071 1.825l-.076-.087c-.915-.76-2.524-.993-3.594-1.912-.762 1.375-1.604 1.527-1.378 1.682.308.307.842.456 1.227.687.534.309.841 1.071 1.452 1.148.458.077.73-.615 1.113-.688.232-.081 1.191 0 1.191 0v.073l.109-.073c.077-.229.242-.384.477-.538.074-.153.282-.384.514-.533l-.034-.085h.528c.078-.001.078-.338.078-.415zM217.798 188.171c.08.227.233.533.767.913.154.083.154-.226.077-.303-.234-.306-.538-.461-.844-.61zM84.458 185.142c-.379.077-.762.077-1.146.303-.305.235-.382.77-.685 1.073-3.294 2.985 1.985 2.22 1.831-1.376zM156.996 178.458l-.039-.101c-.031 0-.017.355.039.712v-.611zM69.738 175.833c-.253.125-.493-.034-.702-.256l.086-.028c-.309-.384-.613-.995-1.07-1.144-.307 0 .075.683-.077.842-.382.379-.996.919-1.301.61-.307-.533 1.604-1.304 1.07-1.683-.919-.611-2.145-.538-3.212-.842-.265-.067-.527-.245-.74-.245l-.102.014c-3.979 1.838-.69.535-.995 1.838l-.612.385c.233.225.917.759.536.842-.164.028-.368-.064-.574-.16-.277-.125-.551-.244-.724-.071-.23.303.996.764.688.918-.168.054-.477-.135-.822-.317-.611-.332-1.337-.659-1.625.317-.23.919 1.298.99 1.606 1.145.076 0 .076.154.076.23 0 .153-.23.462-.076.462.376.029.579-.12.693-.27.19-.24.157-.485.302.034 0 .066.25.053.521.033.364-.029.753-.053.626.12-.383.462-.842.923-1.455 1.15 0 .076-2.293-.154-2.448.532-.076.616.69 1.227.458 1.76-.037.115-.524-.37-1.094-.851-.605-.515-1.303-1.023-1.657-.832-.381.23-.381 1.149-.842.996-.458-.154-.153-.996-.381-1.529-.384-.995-3.979-.995-4.667-.842-.687.153.077.077 0 .385-.154.381-.917.765-.61 1.067.148.153.379-.058.61-.265.227-.211.46-.422.616-.273.377.461-.312 1.153-.312 1.687.079.078.847.842.384 1.149-.108.106-.347.097-.557.088-.243-.011-.445-.021-.359.139.055.259.483.173.945.091.784-.139 1.663-.278 1.043 1.212-.077.149-.23.227-.385.227-.611 0-1.224-.457-1.76-.303-.611.153-.992.688-1.297 1.221l.228.385c-.074 0-3.212-.918-1.529 1.298.61.919 2.755-.076 3.135 1.299.382 1.303-1.221 1.226.382 1.688 1.686.457 3.214.149 3.289.38l-.533.385c0 .144.295.134.483.13.113-.005.185-.01.128.024-.537.303-1.147.532-1.758.532-.115.04-.194-.096-.266-.226-.08-.134-.154-.27-.27-.235-.381.077-.534.461-.764.77-.308.304-1.301.61-.996.995.154.227.842.072.688.227-.23.076-.457.153-.609.308-.383.38-.46.912-.765 1.227-.069.028-.168.004-.27-.024-.128-.029-.26-.067-.344.024-.61.226-1.07.61-1.681.912l-.767.077c.306.154 2.525-.307 2.525-.307.075.076-.077.229 0 .385.151.225.381.456.69.533.15.038.302-.02.446-.077.145-.059.279-.11.392-.077.162.054-.077.25-.192.395l.318.044c-.12.038-.258.109-.353.101-.049-.024-.016-.082.035-.145-1.106-.158-2.07-.317-2.098-.317-.308.077-.308.538-.615.688-.217.096-.491.087-.755.082-.404-.01-.788-.015-.925.303-.308.61 1.452 2.145.839 1.837-.611-.309-1.07-.995-1.758-.995-.537-.077-1.608-.154-1.988.077l-.155.456c-.071.039-.223-.023-.36-.086-.159-.072-.293-.146-.252-.063.459.611 2.754 1.755 2.832 1.679.152-.072-.077-.38 0-.534.382-.226 1.452.303 1.147.534-.384.385-1.072.307-1.606.385-.23.053-.519.043-.808.033-.579-.015-1.156-.033-1.259.429 0 .225.384.456.154.605-.106.072-.287-.015-.467-.106-.208-.105-.411-.211-.449-.043-.079.765.457 1.832 1.146 1.986.154 0 3.594-.457 3.669-.381.308.381-.993.458-1.452.611-.423.178-.587.057-.707-.053-.139-.14-.227-.274-.591.053-.08.077.154.154.154.23 0 .149-.154.231-.309.231-.995.303-1.221.38-1.148.38 1.183.124 2.235.071 2.969.019.647-.043 1.051-.092 1.084-.019.154.077.462.077.385.23-.308.688-3.215 1.528-2.907 1.985.151.154 1.988-.071 2.447-.23.627-.11.308.153.055.418-.24.25-.417.5.327.429.537-.077.995-.539 1.606-.616.231-.033.688.174 1.185.385.496.211 1.032.424 1.417.385.229-.076.077-.538.229-.692.231-.077.459.077.613.231.154.076.077.385.229.385.308-.077.459-.539.688-.693.382-.23.921-.23 1.15-.533.15-.38-.686-1.222-.229-1.299.647-.102.808.299.93.697.152.496.243.99 1.136.529.459-.308.685-.995 1.221-1.227.308-.077.459.381.767.381 0 0 1.378-.304 1.452-.688 0-.231-.459-.539-.307-.611 1.072-.385 1.457.231 2.604.309.099.033.271-.04.428-.106.202-.091.377-.179.334-.048 0 .154-.38.154-.304.303.211.265.847.105 1.453-.053.464-.12.913-.241 1.149-.173l.611.609c.342.135.56.116.721.054.193-.082.298.178.426.178h.151c.077-1-.151-1.188 0-1.727.077-.303.461-.398.615-.547.457-.385 3.132-4.295 3.364-4.986.305-.992 0-1.611-.08-2.607l.157-.458c-.077-.387-.69-.689-.459-.997.075-.149.265-.058.466.038.199.097.412.191.527.038.151-.308-.459-.611-.382-.914 0-.462.615-.691.615-1.077 0-.533-.538-.841-.615-1.375 0-.61.382-1.221.308-1.836 0-.304-.841-.458-.616-.689.208-.134.51-.134.8-.128.364 0 .717 0 .885-.25.176-.174.024-.375-.164-.583.119.097.248.174.397.174 1.375.23.99-.996 1.529-1.534.202-.226.577-.201.995-.173.839.048 1.861.101 2.065-1.891.228-3.058-1.146-2.063-2.45-1.759 0 0 1.991-1.149 1.683-1.985-.445-1.419-.587-1.126-.707-.838-.13.309-.24.611-.671-1.076 0-.149.311-.231.311-.457.153-.616 0-1.38-.311-1.913-.041-.125-.191-.092-.357-.063-.147.029-.304.058-.404-.015-.459-.153-.767-.688-1.301-.764-.459-.076-.839.308-1.378.308-.197.034-.413-.082-.632-.192-.276-.14-.565-.289-.822-.115-.464.22-.616.989-1.073 1.22zM206.328 162.471c-.23.083-.536 0-.688.236-.69.918-.154 1.298-.309 2.216-.382 2.068-1.91 3.212-2.063 5.429 0 .231.303 3.669.457 3.669.996-.072.688-3.058.765-3.438.233-1.606 1.302-6.886 1.838-8.112zM170.307 160.788c-.614 0-.92 1.077-1.454 1.375-.536.235-1.224.082-1.757.307-1.609.919-1.227 3.366-2.984 4.207-.629.265-1.389.237-2.148.202-.808-.023-1.621-.057-2.29.26-1.452.534-2.829 5.274-.307 5.353.082 0-.378-2.141-.303-2.217 1.024-2.712.848-2.241.942-1.77.043.236.153.472.512.317.228-.154.074-.615.305-.688.536-.154 1.146-.23 1.757-.154l.613.384c.536-.081.995-.538 1.531-.691.608-.148 2.904-.688 2.371 0 .533 0 .915.534 1.373.691 1.379.458 2.144-3.672 1.913-4.514-.385-1.15-.916-.462-.765-1.53.076-.691 1.838-1.532.691-1.532zM215.734 155.59c-.213.034-.439.015-.67-.005l-.423-.024c-.201 0-.399.024-.592.106-.303.154-2.597 3.822-2.521 4.207 0 .534.459.919.536 1.453l-.308 1.379c0 .149.767 1.068.841 1.601 0 .077 0 .309.077.309.078 0 .153-.153.231-.231-.231.539-.842 1.149-.611 1.611.229.457.763-.692.993-1.073.611-1.148-.08-1.148 1.07-1.99 1.453-1.149-.309-.308.687-1.452.308-.308.919-.385.919-.841 0-.688-1.914-.077-1.07-2.067.691-1.602 1.681-1.757.841-2.983zM237.015 146.922c-.152-.083-.332-.165-.429-.165h-.009l.572.27c.238.135.082.015-.134-.105zM235.004 145.725c-1.755.533-2.903-.154-3.437 1.682-.044.125-.155-.043-.284-.207-.106-.144-.227-.284-.332-.254-.456.229.23 1.456-.229 1.456-.536 0-1.301-1.071-1.455-.615-.226.539.996.77 1.072 1.38.077.308-.761.457-.61.764.226.535.919.688 1.376.919.105.072.244.043.369.015.147-.029.277-.063.317.063.157.842-1.605 1.452-.687 2.523.307.309.844-.461.995-.84.153-.617 0-1.303 0-1.914 0-.077 0-.154.076-.154.382-.231.919-.385 1.378-.612.151-.076.151-.384.306-.384l.226-.009c.327.009.851.02 1.149-.755.079-.303-.153-.688 0-.842.039-.077.145.015.25.105.087.083.173.16.207.126.385-.385-.072-1.375.385-1.453.226-.028.377.121.478.265l-.019-.037c-.072-.14-.036-.184.041-.188-.637-.319-.773-.487-1.572-1.034zM84.843 153.095c.154.308.078.764.078 1.221 0 .616.307 1.38-.078 1.837-.187.222-.553.177-.904.129-.375-.048-.737-.096-.855.178 0 0 2.601 1.375.537 1.837-.309.078-.595-.058-.874-.192-.276-.13-.542-.265-.812-.192-2.138.534.082 1.452-.227 2.222-.068.134-.495.042-.985-.043-.625-.111-1.361-.227-1.615.115-.614.918 4.204.847 3.52 1.149-.539.231-1.149-.076-1.763-.076-.228 0-.842-.226-.762 0 .077.384.229.687.38.918-.151-.077-.303-.231-.38-.384-.231-.227-.385-.534-.538-.837-3.44 1.144 1.377.303.153 1.909-1.202 1.629-1.164 1.337-1.351 1.043-.11-.173-.298-.351-.865-.124-.077 0-.154.23-.077.307.537 1.067 3.597 0 4.207-.539.152-.148-.153-.302-.23-.457-.154-.076-.229-.153-.308-.308.69.308 1.608-.534 2.603-1.067.46-.231.383-.385.917-.764.23-.231.842-.616.688-.385-.151.462-.913.534-.913.995 0 .164.345.154.637.14.25-.01.464-.02.358.086-.082 0-3.214.538-2.681 1.61.229.38 1.07.38 1.07.759 0 .222-.227.043-.489-.139-.199-.134-.421-.274-.582-.24-.382.076-.767.533-.918.994-.229.534 0 1.914-.306 2.525-.305.533-1.832.841-1.375 1.221.192.12.352-.125.517-.37.161-.23.33-.466.553-.394 1.07.23-1.15 1.529-.993 1.836.072.192.323.154.572.116.245-.039.495-.076.572.116l-1.606 1.375-.764 2.216c-.231.385-1.301.995-.842 1.227.611.23 1.301 0 1.837-.308.154-.077-.303-.38-.231-.534.231-.61.842-.918 1.073-1.534.074-.148-.077-.456 0-.683 0-.23.151-.461.303-.61.231-.235.842-.154.923-.461.151-.842-.844-1.914-.233-2.448.233-.231 3.291-1.914 3.365-1.836.233.303-.074.765-.074 1.145-.077.615-.308 1.226-.077 1.688 0 .148 3.822 1.985 1.298.836-.687-.303-1.298-1.067-1.606-.379l-.231 1.837c-.071.23-.533.23-.457.457.077.153 1.531 1.914 1.226 2.447-.153.309-.69.309-.921.538-1.223 1.11-.995 1.015-.707.919.286-.096.63-.192-.363.913-1.07 1.227-1.377 1.073-1.303 2.832.082.38-1.755 0-.993.462 1.341.788 1.613.543 1.714.298.118-.298-.028-.601 1.193.996.308.466.689 1.688.995 1.226.765-1.226-.687-2.52.385-2.294.839.154.839 1.304 1.221 1.76.077.077.229.154.308.077.151-.153.072-.688.303-.614.231.081-.23.461-.151.691.075.148.306.148.459.077.384-.154.611-.539 1.069-.688.173-.039.363.009.555.053.227.053.459.105.668.019l1.147-.918c.382-.072.689.308.996.385.166.029.418-.015.661-.058.419-.076.811-.154.717.135-.151.533-.995.688-1.606.841-.154.077-.078-.308-.231-.385-.077 0-2.601 2.524-2.525 3.443l.919 1.913c.077.458-.688 1.299.231 1.606.134.038.288-.13.425-.298.174-.202.33-.409.414-.236.229.611-.685 2.063 0 2.063 1.07-.077 1.989-2.141 2.065-.99.077.609-.61.99-.841 1.523-.228.539.382.309.308.77 0 .37-.428.313-.87.26-.649-.076-1.333-.159-.735 1.116.151.461 1.07.461 1.221.917.077.38-.688.154-.99.38-.385.309-.842.693-.924 1.149-.077.438-.024.952.13 1.408-.442-.129-.779-.101-.817.044-.148.539.688 1.38.231 1.683-.457.309-.611-.841-.995-1.22-.455-.409-.722-.223-1.084-.045-.252.13-.546.255-.979.192-.536-.071-.842-.687-1.377-.764l.079.538c-1.072.38-1.532.154-2.067.154-.231.071-.534.149-.842.38l-.23-2.756c-1.909.616-.765.919-.305 2.525.077.153-.382.461-.152.461.197 0 .395-.058.592-.168-.12.086-.243.216-.362.398l-.229.837c-.995.765-2.601.842-2.447 1.38.293 1.74.875 1.101 1.554.462.548-.51 1.154-1.024 1.735-.308.457.456.765 3.438.611 3.745-.457 1.073-2.904 3.135-4.13 3.443-.382.076-.765-.309-1.145-.309-.536.077-.615.842-1.073.996-.112.047-.442.005-.843-.039-.964-.096-2.368-.197-2.368.881 0 .538-.154 1.149.151 1.604.229.309 2.373.381 2.143.462-.154.024-.342.006-.532-.01-.381-.033-.771-.066-.92.236-.153.308.534.769.916.842.459.153 1.07 0 1.526-.154.154-.154.082-.61.308-.61 1.146-.332 1.308-.217 1.399-.105.055.066.084.135.286.105l.306-.304c.076.227.226 2.597.381 2.674.354.183.801-.023 1.234-.236.49-.23.966-.466 1.293-.144.685.687.534 1.985 1.295 2.523 2.296 1.299 1.837-.307 3.748-.841.231-.076.385.303.611.303.384-.072.767-.153 1.148-.303.309-.23 2.756-1.837 2.297-1.303-.459.538-4.132 2.832-4.208 2.985-.231.457-.079 1.222-.536 1.606-1.452 1.144-3.366-.842-4.817-1.072-2.352-.418-2.789.197-3.001.813-.171.51-.185 1.015-.979.948-.303-.077-.613-.688-.918-.612-.533.231-.456 1.986-.685 2.295-.382.456-1.073.533-1.453.918l-.384.61c-.106.034-.241-.011-.382-.053-.166-.053-.333-.105-.459-.024-.535.385-.688 1.072-1.226 1.53-.064.032-.166.008-.267-.016-.128-.033-.257-.066-.344.016l-.151.461c-.23.303-.537.609-.842.687-.077 0-3.137.154-3.137.688 0 .842 1.837.304 2.293 1.072.308.381.077 1.375.539 1.453.305 0 1.223-1.913 1.375-2.294.077-.077.154-.077.231-.077.534 0 1.069.304 1.529.149.303-.149.151-.837.535-.913 1.071-.308 2.373.609 3.288.841.495.115.459-.057.344-.231-.114-.172-.305-.341-.114-.229.614.307 2.217 2.524 3.135 2.144 1.149-.538 1.991-4.207 1.991-4.207 1.375-.539 4.284.154 5.279 1.148.38.304.762.611.914.991.077.23-.229.842-.077.688.229-.381.077-.946.538-1.179.38-.152 1.606 1.041 1.988 1.041h.074c.231 0 .613.182.688-.045.077-.461-.688-1.057-.457-1.437.062-.095.819-.015 1.697.101 1.263.159 2.77.303 2.813-.146.08-.461-.839-1.002-.531-1.387.226-.231.916 1.294 1.834 1.603.091.033.097-.185.106-.401.011-.308.036-.617.351-.213l-.077.687c.116.039.231-.076.347-.188.113-.116.229-.231.341-.197.231 0-.303.231-.303.461.077.155.303.304.458.231.152-.231-.076-.918.382-.611.765.535-.307.228-.23.611.144.533 1.76.356 3.043.174.726-.102 1.351-.203 1.546-.174.685.149 1.911 1.452 2.599 1.452.461 0 .615-.615.995-.765.842-.384 1.606-.154 2.451-.688.425-.273.459-.087.569.102.105.173.284.351.959.125.382-.154.151-.919.459-1.145.765-.384 2.14-.077 2.371-.842.077-.609 0-1.148.151-1.683.08-.308.842-.688.537-.765-.654-.26-1.298-.101-1.938.053-.486.12-.964.245-1.428.179-2.216-.385 1.073.148 0-.842-.303-.231-.611-.539-.918-.462l-.082.024.009-.024c.072-.995-2.145-.308-2.221-.308-.231-.149.384-.379.612-.456.311-.111.739-.087 1.185-.068.758.044 1.565.082 1.953-.543.228-.385.457-.995.151-1.303-.151-.183-.546-.135-.888-.092-.375.053-.688.102-.567-.135.308-.462 1.224-.308 1.837-.384l.153.153c.227.153.38.308.611.23 3.061-.842-.536-.462.154-1.836.082-.207.327-.029.606.153.23.148.485.298.693.226 1.3-.457 3.06-3.899 3.288-5.196.765-4.132-3.44-5.28-6.039-5.665-1.608-.226-.462.769-1.994 1.76-.225.153-.611-.227-.839-.456-.231-.232-.306-.688-.611-.919-.071-.067-.24-.044-.392-.015-.18.028-.339.063-.298-.063.767-1.914 1.224-.688 2.295-1.76 1.375-1.452-1.376-4.355-1.376-4.741.035-.822.376-.663.646-.504.26.148.458.298.27-.414-.306-1.067-1.757-2.831-1.452-4.054.076-.457.918-.457.918-.918 0-1.529-1.072-.765-1.453-1.605-.384-.61-.153-1.53-.61-2.063-1.303-1.605-.998-.919-2.375-1.76-.308-.154-.535-.538-.837-.61-.074-.039-.146.043-.211.125-.07.091-.134.182-.174.101-.461-1.145-.995-6.809-1.071-8.179 0-.463 0-1 .076-1.457 0-.231.154-.385.077-.538-.23-.303-.689-.376-.995-.688-.534-.611-.766-2.524-1.299-2.904-.307-.308-3.214-2.448-3.366-2.371-.308.154-.382.688-.688.919-.69.457-1.991-.539-2.602-.693-.236-.029-.322.043-.31.105.017.091-.294.179-.294.049v-.837c5 .38.762-.615 3.133-.995.148-.024.46.115.767.254.629.284 1.424.567 1.581-.563.077-.533-.91-.688-1.139-1.227-.064-.191.542-.778.056-.898.193.01.406.005.64-.015.992-.081 4.208-4.591 4.818-5.741.08-.077-.077-.227 0-.38.08-.379.231-.764.459-1.071l1.76-1.756c.151-.461.074-.918-.077-1.379-.688-1.529-4.972-1.453-6.27-1.837-.539-.154-.996-.688-1.534-.765-1.07-.231-2.139.692-2.981.765-.459 0-.842-.308-1.222-.225-.154 0 .227.225.152.379-.382.457-1.837 0-1.224-1.376.13-.306.211-.235.361-.163.11.058.252.105.481.01.23-.077.457-.385.767-.309l.151.535c.38-.073.534-.458.765-.683.302-.231.995-.538.688-.692-.337-.265-.953-.168-1.407-.067-.584.13-.907.254-.046-.389.916-.688 5.736-3.597 5.89-3.976l.152-1.38c.229-.457 1.223-.837.844-1.222-.239-.284-.655-.188-1.077-.091-.265.063-.529.125-.76.091-1.534-.231-4.133-.688-5.28-.38-.305.073-.457.919-.764.683-.382-.303.153-1.298-.308-1.452-.178-.024-.313.082-.427.216l.047.091c0 .384-1.072 1.073-.764.842.303-.208.478-.659.717-.933-.171-.496-1.052-.918-1.481-1.135-.309.461-.765.842-.842 1.38-.077.23.457.38.457.61 0 .086-.111.01-.236-.062-.108-.063-.231-.125-.298-.092-.077.154.303.462.154.615 0 0-1.15-.995-.768.303.152.457 1.223.841.916 1.226-.379.457-1.221 0-1.755-.231-.23 0-.461-.611-.461-.384-.077.539.615 1.226.308 1.759-.077.192-.366.077-.633-.033-.266-.115-.517-.236-.517-.043-.076.995.765 1.073.534 2.062 0 .082-.072 0-1.296-.683-.92-.538-.079 1.222-.69 1.375-.223.077-.36-.231-.48-.543-.127-.321-.242-.645-.437-.529-1.678.696.846 3.379.922 3.528zM143.383 145.19c.38-.765.077-1.606-.08-2.371l-.151.154c-.153.914-.61 3.746.231 2.217zM77.652 149.421c.614 0 .69-1.067 1.224-1.375.082-.081.209-.008.344.063.113.068.238.13.344.092.458-.232-.151-1.838.307-1.53.38.379.308 1.221.842 1.297.995 0 1.07-2.138 1.147-2.519.156-.461 1.223-1.077 1.608-1.688-.157-.38 0-1.067-.385-1.145l-.094-.005c-.495 0-.928.563-1.358.924-.076 0-.076.226-.153.302-.265.029-.436-.052-.577-.134-.28-.158-.452-.313-.953.288-.231.231.231 1.375.154 1.375-1.072-.226-1.608-1.986-2.293-.072-.077.303 0 .611.152.914l.228.082c-.154.148-.765.071-.688.302.23.611 1.529.688 1.301 1.226-.12.312-.519.226-.923.135-.382-.087-.767-.168-.916.091-.306.459.153 1.377.689 1.377zM234.01 141.978c-.152-.076-.361-.024-.572.04-.208.057-.419.115-.572.033-.231-.148 0-.535-.154-.688-.038-.077-.115-.096-.202-.096l-.255.019c-.153.461-.305 1.375-.995 1.529-.536.153-2.217.384-1.68.461.53.153 1.906-.154 2.213.688 0 0 .077 1.836.919 1.375 2.83-1.606.691-.38 1.299-1.832.154-.307 2.599.001-.001-1.529zM144.146 137.54l.041-.038.006-.02-.047.058zM144.758 137.54c0-.148-.229-.23-.379-.38v.15c0 .068-.116.13-.193.193-.523 1.115 1.02 3.22.572.037zM305.493 268.042c-.063.042-.13.09-.199.052-.151-.076-.306-.231-.306-.457l.306-.077c-.384-1.456-1.224-2.067-2.907-1.456-.841.308-1.145 1.38-1.911 1.759l-1.452.386c-.766.456.305.688.305.764.077.385-3.211.227-3.519-.076-.308-.231-.23-.688-.46-.918-.088-.088-.199-.073-.31-.063-.081.01-.159.02-.224-.015-.305 0-.305-.538-.536-.687-.23-.155-.688 0-.765-.308-.077-.304.534-.38.534-.688.076-.841-1.298-2.755-1.452-3.597-.457-1.908.23-4.054-.304-5.962-.691-2.985-6.505-6.654-8.645-8.723-1.298-1.299-1.606-3.212-3.212-4.355-.842-.688-1.528-1.148-2.602-.61 0-.146 0-.424.063-.583l-.289.654-.081.231c-.61.153-1.221.538-1.604.994-1.454 1.914 1.531.231-.536 2.217-1.072 1.073-4.59.919-5.967 2.371-.303.308-.688 2.447-1.836 2.067-.837-.231-1.681-1.837-2.904-1.76-.688.077-1.147.687-1.838.919-.596.148-1.495-.011-2.383-.169-.932-.164-1.848-.337-2.358-.14-.153.076-.229.457-.379.457l-2.376-.918c-.15 0-.15.234-.225.385-.535 1.447-.991 1.754-1.223 1.605-.918-.765.306-.611-.688-1.298-.153-.077-.385-.231-.615-.231-.303.076-.534.457-.842.385l-.99-1.38c-.125-.081-.271-.004-.418.067-.12.063-.245.126-.349.086-1.224-.455-.075-1.297-1.835-1.374 0-.615-.385-1.149-.229-1.684.076-.533.764-.688.994-1.221.229-.462.152-.996.229-1.534.074-.751.583-1.799.527-2.563l.772.121c.385 0 .765-.153 1.146-.077l.382.304c-.52-1.631-.5-1.381-.619-1.136-.092.192-.263.389-.832-.317-.308-.308.308-.841.226-1.222-.226-.764-.992-1.375-1.144-2.216-.231-.615 4.433-9.257 5.048-9.795 1.375-1.148 2.217.538 2.448-2.216 0-.611-1.529-1.99-1.609-2.063-.379-.769 1.378-.691 1.147-.918-1.222-.918-3.438-2.37-4.131-3.827-.15-.38.154-.919 0-1.375l-1.145-1.453c-.615-1.379.994-3.976-.533-5.202-.615-.456-1.378-.688-2.067-.765-.077-.038-.154.039-.231.115-.074.077-.153.154-.226.116-2.219-.842 2.599-4.9 3.135-5.434.075-.077.227-.227.227-.38-.227-4.207-3.592-7.799-4.97-11.699.921.606 3.138-.614 3.748-.922.272-.102.485.12.697.336.262.27.524.544.906.202l.995-1.375c.227-.141.483-.11.736-.082.166.015.334.033.488.005.384-.153-.688-.995-.383-1.303.383-.457 1.147-.304 1.686-.533 1.221-.688-.459-.616.381-1.458.229-.302 1.99-1.144 2.141-.148.074.23-.306.38-.306.61-.076.688 1.452.154 1.606-.23.688-1.679-1.683-1.222-1.683-1.529-.077-.303.688-2.447.688-2.524l-.688-2.14c0-.077.303-.077.303-.23.483-1.481.524-1.366.664-1.256.122.106.329.207 1.021-.884.382-.462 0-1.227.308-1.76.189-.27.574-.212.963-.155.393.059.794.116 1.024-.148.227-.307-.076-.769 0-1.077.154-.226.534-.226.61-.456.167-.582-.502-.438-1.137-.303-.53.119-1.105.235-1.066-.077.074-1.149 1.086-2.145.086-3.294v-.072c1-.414 1.527-2.515 2.51-2.447.385 0 .648.46.951.46.232 0 .097-.538.248-.614.205-.068.447-.015.675.038.292.067.576.135.789-.038 0 0 .386-2.293.537-2.525.151-.457 1.606-1.605 1.606-1.683.614-2.216-1.605-4.284-2.906-5.351-.533-.385.54-1.073-.532-1.226-.192-.04-.269.095-.441.23-.168.135-.437.27-.437.226v-.38l-.02-.307c0-.534.104-1.067.027-1.606-.076-.226-.635-.154-.635-.38 0-.995 1.824-1.605-.7-2.524-.308-.077-.775-.077-1-.302-.231-.309.15-.847-.158-.996-.307-.23-.616.149-.993.225.151-.384-.384-1.451-.157-1.678.156-.153.532-.153.614-.384l-.232-.457c-.075-.154-.075-.385 0-.539.438-.361.685-.361.857-.361.185 0 .284 0 .447-.481.071-.226-.615-.077-.846-.307-.534-.535-.227-.919-.38-1.453-.079-.226-1.302-.919-1.529-1.145-.614-1.072.072-.615.072-1.606 0-1.379-1.53-2.832-1.755-4.207-.078-.841.842-1.457 1.068-2.067l.075-1.914c0-.379-.302-.841-.075-1.149.768-1.605 2.064-.913.229-2.062-.077.307-.229.615-.765.917-.688.457-7.878.539-9.103.384-.226 0-.382-.384-.689-.307-1.45.307 1.84 1.149-.608.842-.385-.077-.459-.919-.842-.842-.307.077.23.688.077.996-.23.457-.69.912-1.149 1.148-.764.38-1.605.535-2.447.38-.305-.077-.533-.688-.765-.534-.379.226.534 1.067.154 1.144-.765.232-3.061.308-3.52 1.453l.459 1.073c-.382.611-2.678.457-2.983 1.149-1.073 2.904.919 1.072 1.375 2.293.23.688-.918 1.529-.611 2.221.309.842 1.529 1.678 1.684 1.986.46.687-.302 1.452.688 1.99.192.078.404.02.611-.038.211-.058.418-.116.61-.04.385.077.615.842.997.612.536-.304.536-3.212 2.143-1.298.153.226-.385.458-.385.764l.309 1.837c0 1.529-.614.688-.462 2.063.076.154.081.385.081.611.304 1.606 2.291 3.823 1.832 5.583-.229 1.072-2.065 3.289-3.209 3.442-.465.077-.767-.385-1.149-.462-.284-.082-.483-.058-.646-.038-.274.028-.442.066-.731-.419-.533-.765-.533-1.837-1.221-2.447-.689-.688-2.296-.996-3.063-1.683l-.457-1.606c-.688-.308-1.223.765-1.838 1.149-.764.611-1.836.765-2.523 1.529-1.834 1.909-.227 4.131-.916 6.044-.234.76-1.225 1.067-1.454 1.832-.154.461.229.924.229 1.453 0 .538-.229 1.072-.076 1.533 0 .077.076.149.153.149-.767.918.458 3.212.913 4.285.078.153.083.23.154.303.537 1.994-.379.769.381 2.678.081.158.156.307.307.462-.074.071-.074.154-.074.154-.232.609.306.999.383 1.608.076.77-.077 2.303-.383 2.303h.074c.231 0 .309-.691.385-1.307 0-.303.077-1.27.077-2.106.383.534.688 1.205.765 1.815l-.154 1.404c.078.153.046-.366.197-.366.306-.077.275.547.275.777v.304c0-.077.415-.38.644-.38.228.076.282.456.513.61.918.534 2.474.462 3.47.765.154.076-.063.308.089.308 1.148 0 2.226-.995 3.298-.692.305.082.157.692.46.918.039.044.117.005.204-.033.083-.038.181-.077.258-.038.308.148.616.38.843.687.459.765-1.133 2.818.525 5.106l-.062.091c-3.521 2.063-13.848 2.448-18.206 1.838-1.379 1.452-3.518 2.294-5.277 1.606-1.529-.611-1.222-2.068-1.684-2.986-.151-.227-.688-.836-.38-.765.229 0 .457 0 .61.077-.382-.227-.841-.457-1.298-.534-2.754-.456-5.815 1.985-7.881 3.212-.688.385-1.528.231-2.064.688-1.301 1.15-1.606 2.986-1.989 3.06-2.828.691-5.505 1.912-8.183 2.984-.688.304-1.149 1.146-1.837 1.298-.19.078-.383.021-.574-.033-.19-.058-.383-.114-.57-.043-.689.385.914 2.067.229 2.222-.229.071-.537 0-.992-.154l-.334-.222.17-.008c-.98-.183-1.082-.408-1.247-.842-.229-.611-.557-1.227-.632-1.837 0-.231.484-.611.255-.688-.611-.153-1.247.231-1.782.231-.69.071-.933-.996-1.391-1.376l-.998-.462c-.309-.461-.003-1.528-.539-1.528-.154 0-.541.077-.921.154-.916-.308-1.909-.688-2.063-.538-.462.538-.539 1.379-.995 1.912-.381.462-.997.688-1.455 1.227-.076.077 0 .457.078.683-.461-1.067-1.533-.836-2.527-.303-.685.385-.916 2.294-1.3 2.525-1.683 1.144-.841-1.072-1.605-1.145-.616 0-1.072.759-1.683.687-2.905-.307 2.447-2.37 1.379-4.36-.538-.919-2.067.842-2.145.842-.194.076-.75-.284-1.309-.646-.535-.346-1.066-.691-1.293-.658-.532.078-.532 1.38-1.068 1.148-.46-.153.384-.994.305-1.451-.038-.355-.451-.159-.889.043-.409.183-.84.37-1.025.111-.303-.385.768-.615.924-.995.148-.385.226-.842 0-1.227-.041-.073-.156-.039-.27.004-.115.034-.23-.081-.27-.157-.153-.073.154-.456.306-.456h.151s-.074-.386-.303-.535c-.381-.23-.918-.154-1.453-.23-.232-.076-.537.038-.767-.115-.075-.149.151-.516 0-.516-.161.039-.283.178-.403.317l-.137-.24c.238-.313.51-.641.771-.747.138-.033.334.136.505.299.209.202.378.409.335.241-.078-.616-.535-1.148-1.071-1.529-.101-.066-.276-.013-.444.034-.207.067-.395.135-.395-.034.154-.841 1.529-1.148 1.529-1.99 0-.229-.382-.308-.459-.533-.151-.385-.231-.842-.151-1.303 0-.231.534-.303.456-.534l-.918-.308c0-.072.796-.221 1.401-.438l-.026.058c.154.61.919.919 1.152 1.452 0 .077.533 2.37.762 2.37.611 0-1.299-1.683.611-.688 1.224.688-.914.534-.305.991.232.23.612-.154.842-.154.611.154 1.145.616 1.761.692 2.827.302 1.375-3.212.919-4.054-.217-.427-.077-.293.08-.158.236.202.516.404-.312-1.294-.231.155-.308.688-.61.61-.537-.075-.768-.764-1.227-.994-.841-.303-1.453.815-2.296 1.046-.226 0-.306-.717-.61-.717h-.203v.127c0-.61-1.499-.303-1.73-.841-.154-.534 1.008.307 1.544.307 1.071 0 1.69-.687 2.075-1.683.229-.456.154-4.438.842-4.206.613.23.615 1.226 1.149 1.528.612.308 2.45-2.75 2.3-3.361-.261-1.173-.955-.985-1.664-.798-.355.092-.711.188-1.019.105-.38-.072-.456-.765-.763-.836 0-.083.08-.154.08-.309.072-.461-1.534-.769-1.074-.841.119-.034.281.015.439.053.236.067.461.13.555-.053.152-.385-.458-.765-.458-1.149-.077-.534.308-1.067.153-1.53 0 0-1.834-.457-2.219-.687-.306 0-.689-.154-.994 0-.384.23-.384.918-.687 1.226-.154.149.229-.539.071-.688-.226-.23-1.143-.307-1.451 0-1.453 1.068-.303.53-.38 2.29 0 .308-.615.539-.46.841.037.122.172.024.313-.071.142-.097.296-.192.375-.077.23.303-.229.76-.077 1.145 0 .076.077.076.229.076-.533.154-1.145.457-1.453.077-.307-.386 1.532-2.909-.076-2.448-.152 0-3.44 3.978-4.131 2.371-.228-.38.078-1.144-.379-1.303-.767-.303-.461 2.986-.384 3.14-.077 0-.231.077-.303.154-.385.303.072.913 0 1.375 0 .456-.153.995-.23 1.533 0 .227-.155.836.077.76.38-.076.305-.76.687-.913.229-.154.305.303.38.457.153.307 1.683 3.365-.688 2.216l-.154-.148c0 .99-.762 1.909-.534 2.751.382 1.374 2.37.61 3.058 1.297.307.309.079.996.153 1.453 0 .538.462 1.148.154 1.528.308.308-.307.65-.307 1.03-.072.461-.072 1.102-.072 1.102h-.005c0 1 .077 1.269.308 1.803.152.308 1.912 2.275 1.912 2.43-.161 1.067-.839 1.049-1.498 1.002-.284-.02-.565-.029-.798.037-.151 0 .537.315.384.47l-.536.158c.136.515.822.4 1.387.285.356-.072.666-.144.754-.058.688.842-.382 2.988-.461 3.675-.151 1.067 1.609.688 1.838.688.124.02.178.101.281.14-.35-.1-.727.024-1.109.154-.363.115-.731.235-1.082.163-.305 0-.691 0-.92-.153-.229-.072-.229-.533-.383-.533-1.758 0-.534 5.279-1.147 5.509-1.911.761-2.219-2.755-2.676-3.597-.079-.076-.306-.153-.385-.153-8.717-.23 2.983.227-2.751.456-.384 0-.843-.456-1.226-.229-.609.308-2.295 2.683-1.68 3.442.074.081.151.154.306.154.154 0 .379-.073.534.077.689 0 1.38-.15 1.072.153-.231.309-.458.457-.688.538-1.532.756-1.683-2.067-2.981-2.375-1.149-.227-7.193 1.072-7.878 2.146-.384.455-.536.917-.844 1.297l-.7.539.763-.467c-.169.213.014.053.226-.105.173-.131.363-.26.398-.197.077.153.231.308.231.462l-.458 1.528c0 .347.458.289.954.231.5-.059 1.035-.116 1.188.227.23.532-.996 1.071-.842 1.61.153.533.77 1.038.301.759-1.248-.74-2.938 2.356-3.397 2.356l-.957-.365c-.154-.23.827-.736.981-.967.457-.456-.75-.941-.37-1.48.307-.539 1.149-.385 1.683-.766 1.222-.918-2.142.371-1.375-2.308l.676-.519-.752.457c-.539.153-1.149-.077-1.683-.077-.229 0-.461-.154-.535-.077-.997 1.227-.691 3.674-1.147 4.972-.457 1.145-1.376 2.448-2.22 3.366-.305.384-.536.841-.916 1.072-.101.066-.254.048-.407.028-.198-.028-.392-.048-.434.125-.154.457.533 1.067.305 1.529-.767 1.221-3.138.61-2.604.918.616.38 1.072.919 1.763 1.221.149.039.3-.058.447-.153.142-.096.279-.188.395-.148.305.072.841.533.611.76-.176.106-.474-.005-.748-.12-.332-.14-.63-.284-.63-.029.077.683 2.067.61 1.683 1.145-1.149 1.529-2.217-1.298-2.675-1.376-1.454-.379-2.83-.153-2.599.381 0 .077 2.371 1.688 2.826 1.61.154 0 .077-.308.231-.462.309-.229.611.309.917.38.132.067.291.048.454.033.219-.028.443-.052.621.126.151.149.303.38.379.61.154.304.231.606 0 .76-.151.081-.61-.226-1.069-.61-.385-.38-.841-.688-.993-.76-.385-.077-.462.61-.844.61-1.302 0-.53-.77-2.059-.995-.382-.077-.292-.077-1.292.077v-.005c-2 .537-3.834 2.221-5.208 2.601l-.042.077c-.842.154-1.738.231-2.656.308-.689.073-3.206.227-3.511 1.149-.154.38-.76 4.049-.76 4.587 0 .231.381.231.381.38 0 .077-.075.043-.168 0-.097-.033-.214-.072-.286 0-.153.154-.23.533-.153.77.077.457.918.683.69 1.145-.23.456-1.074.384-1.531.61-.534.309-.918.765-1.452.996-1.38.764-6.5.913-7.265 2.139-1.07 1.837-.308 2.376.534 2.524-.383 0-.688 0-.993.077-1.301.38-.919 1.38-2.676 1.148-.385-.082-.616-.614-.996-.841-1.071-.533-2.523-.77-3.673-1.227-1.331-.494-.601-.158-.168.183.365.279.529.563-.899.356-.079 0-.92-2.452-.689-2.678.151-.154.382-.077.459-.232.152-.302.303-.764 0-.841-.533-.303-1.148 0-1.759 0-.155 0-.38.154-.535.077-.612-.148-1.148-.456-1.759-.764-.077-.078-.231-.534-.231-.385.077.538.385 1.071.385 1.61 0 .149-.385.227-.385.457-.077.461 0 1.071.154 1.528.153.231.61.231.688.462.228.38.077.996.228 1.375.037.077.171.059.297.039.124-.021.24-.039.24.038 0 .61-.458 1.226-.611 1.756-.076.312.074.385.231.385-.231.537-.384 1.071-.538 1.605-.227.847 1.529 1.451 1.377 2.292-.151.463-1.07-.225-1.528-.225-.229-.039-.44 0-.652.038-.207.039-.418.077-.649.034-.459-.072-.536-1.678-.918-1.145-.38.533-.077 1.528-.61 1.76-1.837.764-1.227-1.908-1.911-2.217-.385-.154-.691.457-1.075.684-.531.229-.991.307-1.45.615-.155 0-.155.384-.23.303-.305-.611-1.529-3.9-1.911-3.592-.231.153-.231.688-.459.533l-.458-1.227c-.386-.225-.919.236-1.378.236-.228 0-.536-.461-.689-.308-.457.308-.15 1.298-.606 1.452-.538.153-.923-.841-1.454-.841l-.383.994-.692-1.221c-.534-.158-1.07.457-1.603.533-1.838.534.073-.462-.768-.462-.685 0-3.212.996-3.289.996-1.014 2.615.543 2.168 1.764 1.716.708-.259 1.304-.522 1.222-.188-.077.458-1.304.309-1.15.765.231.539 1.15.385 1.686.692.226.149-.459-.153-.767-.153-.197-.033-.395-.024-.586-.015-.252.015-.495.023-.712-.063l-.079-.077c.458.764 1.146 1.837 1.146 1.99 0 .149-.38-.153-.534-.153-.764 0-1.529-.076-2.293.077-.154 0-.385.226-.307.303.61.386 1.605.153 1.836 1.072.151.534-.308 1.375.151 1.683.458.385 1.226-.077 1.759-.308v-.533c1.912-.155.691.764 1.687 1.528.132.135.317.087.509.033.139-.028.276-.066.404-.033.461.231 1.072 1.227 1.529 1.529.342.217.423-.024.575-.265.115-.187.191-.38.561-.346 1.609.153.599 1.144.599 2.14v.077c0-.077.167-.154.243-.231.533-.227 1.189.231 1.805.231.229-.077.325-.309.558-.309l.086.385c.036.039.177 0 .289-.038l.179-.038c-.459.307-1.376.538-1.222 1.148.029.153.563.111 1.184.067.938-.067 2.074-.203 2.029.395-.087 1.69-2.991 2.69.144 2.69h.077c-.077 0-.077.605.078 1.141 0 .076 1.836.575 1.529 1.262-.151.304-1.684 1.091-1.377 1.854.23.534.611 1.082.918 1.539l.382.081c.308.385.384 2.066.459 2.297.733 1.423.807 1.145.983.867.135-.218.327-.438.928.129l.231.842c.122.082.269.029.416-.023.122-.044.243-.087.349-.058.308.234.379.847.765.995l.154-.457c.23-.077.611-.077.611.077l-.459 1.605c0 .462.537.842.459 1.304-.077.61-.765.913-.919 1.528-.151.61 1.529 1.376.996 1.684-.458.226-.996.072-1.456-.077.459.303.842.688 1.147 1.072.461.533.996 1.068 1.303 1.678.611 1.149-.231 2.986.38 3.977.308.385.842.539.996.996.074.307-.154.842-.537.917-.228.077.08-.61 0-.842l-.762-1.297c-.767-2.448.687-.309-.384-2.602-.305-.765-1.375-2.447-1.684-2.294-.842.611-1.683 5.121-1.988 6.348-.151.764-1.301 1.985-.536 2.217.197.08.315-.164.43-.415.111-.229.225-.46.412-.427.461.077.995.692.765 1.072-.087.216-.339.092-.601-.029-.202-.097-.414-.192-.546-.125-.382.154-.536.688-.69 1.072-.837 2.294-1.76 9.636-3.977 10.708-.308.149-.611.231-1.066.303-1.456.384-3.598.457-4.593-.076-.38-.227-.611-.766-1.07-.991-.146-.11-.358-.062-.574-.02-.243.054-.491.102-.649-.057-.919-1.073.533-1.305-1.681-.996-.307.077-.613.154-.767.385-.151.148.231.688 0 .688-.611 0-2.293-1.605-2.907-1.765.08-.072.151-.226.151-.303-.457-.919-2.063-.765-2.673-.842-.308 0-.611-.077-.918 0l-.308.462c-2.522.76-7.492-1.688-9.405-2.98-.111-.077-.271.005-.428.086-.171.092-.336.183-.414.063-.154-.077.303-.308.152-.462-.239-.24-.606-.226-.965-.216-.327.01-.654.02-.87-.163-.456-.385-.536-1.305-1.072-1.452-.611-.154-1.145.61-1.755.61-.461 0-.69-.463-1.149-.61-.231-.039-.597 0-.967.033-.375.044-.755.082-1.024.039-2.14-.304-.991-.381-3.136-.919-.191-.034-.327.158-.461.352-.135.187-.265.379-.456.341-1.912-.457-1.76-4.055-3.823-4.055-.614 0-.995 1.073-1.606.992-.384-.072.38-.992.076-1.222-.687-.457-1.454.534-2.144.842-1.836.765-4.511 2.447-6.498 2.601-.272.033-.517.011-.777-.019-.322-.034-.67-.068-1.135.019-.077 0-.384.149-.308.308.101.067.303.063.479.048.216-.009.404-.024.363.102-.077.385-2.218-.38-1.76 2.145.303 1.827 1.212 1.684 2.005 1.538.801-.14 1.476-.283 1.284 1.597-.077.457-.765.534-.993.918-.233.309-.079.688-.233.996-.029.028-.156-.096-.298-.221-.236-.208-.51-.409-.465.066.078.304.306.688.611.842.161.063.439-.005.701-.072.373-.096.719-.192.676.072-.151.538-1.145.303-1.606.61-.304.303-.153.995.229.919l1.377-.616c.23-.071-.077.309-.231.385-.534.457-1.68.231-1.832.919-.077.153.226.456.074.533-.074.077-.216-.005-.333-.087-.135-.091-.241-.173-.199-.054 0 .611.839.77.685 1.77h.005c-.157 1-2.067 1.135-1.609 1.822.305.385 1.225.227 1.377.684.077.201-.156.166-.433.143-.248-.034-.531-.06-.64.086-.457.687-.382 3.977-.231 4.817 0 .229.384.306.384.614-.076 1.298-.61 2.063-1.148 3.13-.228.462-1.221 1.457-.688 1.38l1.072-1.452c.379-.076.61.688.457.99-.379.539-1.452.308-1.836.919-.535.917-.842 1.99-1.453 2.908-.229.381-.688.611-.611.991 0 .385.688.538.841.924l-.192-.155c-.134-.114-.305-.23-.419-.153-.384.226-.538.841-.841 1.299-.767 1.226-1.608 2.754-2.524 3.827-.23.303-.69.38-.995.759-.077.078.382.309.231.386-.265.066-.556.004-.832-.053-.371-.082-.712-.164-.929.053-.384.385.306.995.154 1.451-.23.77-2.524 3.977-2.298 4.746.156.534.538.99.841 1.529.767 1.298.462 1.913.462 1.913.611.154 1.298.072 1.909 0 .307 0 .461-.384.767-.308l.844.534c.105.038.161-.179.207-.395.053-.245.089-.49.176-.37.229.384-.156.919 0 1.226.229.303 1.295.457.992.611-1.159.558-1.279-.01-1.461-.583-.146-.446-.322-.894-1.063-.797-.461.081.534.692.69 1.071.075.462 0 .996-.079 1.534-.155.991-1.453 1.909-1.453 2.674l.457.841c.077.539-.762 1.53-.228 1.683.151 0 .689-.229.536-.076l-.765.308-.534 2.447c-.305.61-2.142 3.136-1.991 3.977.077.308.61-.308.918-.308.227-.034.459-.015.69 0 .228.023.459.043.686 0 .23 0 .459-.227.687-.153 1.227.307 5.203 2.866 5.737 2.79.231 0 2.601-1.264 2.754-1.264h.997c.99 0 2.37.272 2.675.427.382.226.539.862.997.784.154 0 .235-.056.235-.214v.158l2.135 1.986c.309.38.647.765.878 1.226.229.457.018 1.376.555 1.453.305.077.563-.212.81-.495.25-.289.504-.578.807-.501.692.154-2.289 1.534-2.289 1.534-.079 2.218 1.072.688 1.302 1.985l-.23.457c.033.073.149.063.263.053.135-.009.273-.02.273.102.091.414-.286.168-.603-.081-.207-.164-.392-.327-.392-.298.151.764.918 3.283 1.454 3.821l.919.231c.382.308.458.841.765 1.221.228.231.688.309.995.534.226.153.226.691.457.616.611-.231.996-.842 1.453-1.227.172-.126.392-.034.567.047.135.072.24.14.274.106.688-.99.538-1.606 1.913-2.294.921-.461 1.793-.254 2.597-.053.668.168 1.287.337 1.839.13.844-.384 1.301-1.528 2.22-1.76.841-.153 5.351.534 6.346.918l1.378.765c.469.073.945-.009 1.407-.091.512-.091 1.017-.183 1.5-.063.687.076 2.293 1.375 2.98 1.149.536-.154.767-.77 1.227-.919 1.159-.308 1.808.188 2.291.679.469.48.772.961 1.226.697 2.446-1.227 2.446-4.208 4.82-5.736 1.375-.919 3.287-1.684 4.895-1.227.38.082.763.461 1.145.461.615.077 1.454.154 1.683-.379.153-.539-1.067-.77-1.067-1.381.073-2.447 1.449-.687 2.063-2.216.228-.457-.231-1.145.077-1.611.23-.374.841-.071 1.145-.374.23-.309 0-.924.308-1.304.078-.077.212-.038.351 0 .145.038.299.077.414 0 .305-.23.154-.765.382-.996.537-.38 1.223-.456 1.834-.609.154 0 .385.229.536.071.157-.071.157-.456.309-.61.536-.385 1.836-.533 2.37-.99.69-.462-2.142-2.068-2.37-2.375-.69-.991-1.53-4.664-.919-5.81 1.377-2.831 4.205-4.971 6.349-7.188.765-.769 1.067-2.067 1.986-2.754.156-.078 2.526-.611 2.526-.842.075-.539-1.075-.462-1.3-.995-.154-.688.916-1.072 1.452-1.529 2.068-1.684 6.729-1.149 9.333-1.914.688-.153 1.375-1.298 1.834-1.605.611-.539 1.914-.842 2.753-1.148.918-.381 4.208-1.684 4.59-2.525.767-1.298-.459-3.058-.151-3.365.379-.38 1.375-.262 1.529-.872.154-.461-.154-1.261-.536-1.261h-.003c-.458 0-.918-.729-1.073-1.187-.534-1.528.459-1.132.083-2.507-.083-.23-.616-.145-.616-.372.077-.846 1.073-1.298 1.226-2.062 0-.23-.384-.536-.233-.69.921-1.298 2.449-.989 3.214-1.375l2.905-2.441c.766-.462 1.533.534 2.144.837.229.154 2.905.457 2.98.765.078.309-.992 1.914 1.456.919.185-.083.151-.178.019-.304.116.087.263.14.441.154.533.071 1.148-.154 1.528-.539.231-.307-.613-1.148-.154-1.227.536-.071 1.378.386 1.378.996-.075.615-1.453.386-1.532.995-.072.461.842.308 1.303.308.306 0 .611-.533.765-.308.304.384-.077 1.149.304 1.529.384.385.998.308 1.531.462.305 0 .536-.077.767 0 1.069.533.536.914.536 1.067.074.153.302.153.533.153.229.077.537.077.688-.077.152-.148-.918-.61.075-.533 1.534.077.995 1.146 1.686.919.611-.231 1.069-.919 1.76-1.073.199-.029.43.011.666.044.385.063.774.12 1.014-.121.309-.226-.382-.687-.302-.994.152-.38.762-.457.995-.766.226-.227.072-.61.303-.687.154-.078.326-.015.495.042.176.054.346.111.5.034.379-.308.305-.918.611-1.149.188-.11.418-.091.639-.072.222.02.429.035.585-.081.295-.217-.037-.717.141-.957l.02-.043c.307-.293.836-.375 1.291-.447l.08.38c.151 0-.08-.308 0-.38.151-.154 1.449-.615 1.528-.615 1.147-.154 2.905-.077 3.901-1.068.61-.538.99-1.764 1.528-2.298.231-.23.842-.154 1.07-.456.228-.231 0-.692.152-.996.153-.309 2.144-1.457 2.447-1.457.768 0 2.37.77 2.755 1.227.076.153.305.23.457.153.154-.076-.074-.456.077-.456.61 0 2.524 1.985 2.755 2.14.533.38.996.841 1.605.99.229.077-.23-.61 0-.61.381 0 .615.461.991.61.082.077.156-.149.233-.149.23.076.536.149.69.386 1.908 1.754.762 3.822 2.37 6.115.842 1.299 1.069 1.832.842 3.366 0 .457-.614 1.145-.23 1.298.273.106.58.067.876.034.358-.044.706-.092.96.12.38.23-.309.842-.078 1.148.307.457 1.068.227 1.453.534.305.23.305.688.536.995l.61.153c.229.227 1.146 1.222.688 1.838-.151.148-.762.38-.531.456.635.255 1.166.246 1.674.235.712-.019 1.375-.033 2.226.684.84.688.84 1.985 1.684 2.673.074.044.19.005.306-.034.112-.037.229-.077.305-.042.539.312 1.072.614 1.529.995 1.072.842 0 .615.918 1.99.461.534 1.299.61 1.836 1.066l1.147 1.611c.46.304 1.834.149 2.37.611.459.457.383 1.452 1.07 1.606.611.153 1.148-.765 1.837-.919.765-.077 1.375.765 2.063.919.289.062.173-.154.097-.371-.111-.308-.146-.61 1.053-.169.765.309 2.37 2.756 2.678 3.674.072.231-.154.611.072.688 1.126.15 1.443-.057 1.553-.259.184-.337-.206-.674 1.511.566.765.534-.919 1.76-.693 1.837.89.318 1.462-.101 1.96-.523.699-.592 1.253-1.183 2.325.293.308.457.766.995.842 1.605.081.611-.842 1.149-.534 1.683.308.534 1.226.304 1.683.534.462.231.839.615 1.147.919.076.153-.075.385 0 .385 2.295-.154 2.982-1.606 4.132 1.298.916 2.294-.539 1.072.836 3.135.157.153.462.153.539.308.38.458.688.996.918 1.606.457.989.151 2.293.766 3.212.61.842 2.139 1.071.841 2.602-.539.765-2.372 0-2.678 1.375-.077.462.689.687.765 1.145.076.384-.231.691-.309 1.077-.071.379-.071.836-.303 1.144-.382.385-1.149.309-1.452.765-.462.842.38 2.832 1.145 3.058 3.825 1.073 2.524-2.601 4.361-4.207.764-.61 1.528-.303 1.76-1.452.308-1.375-.996-2.524 0-3.673 1.374-1.603 4.434-.99 4.51-2.597.154-2.755-.841-.765-.918-2.904 0-.308.461-.615.308-.846-.153-.304-.611-.149-.919-.304-.841-.384-1.451-1.303-2.37-1.605-.319-.087-.55-.02-.755.043-.341.111-.608.222-1.082-.351-1.298-1.683.23-1.605.539-3.059.072-.308-.309-.533-.309-.765 0-.153 1.915-3.977 2.065-4.212 1.455-1.524 2.294.235 3.825.771.472.163 1.132.095 1.793.028.929-.092 1.856-.184 2.261.355 1.221 1.602.229 2.981 2.599 3.899.46.226.993.457 1.3.226.309-.152.077-1.678.229-2.062.23-.688.921-.381.615-1.376-.768-2.678-3.215-2.447-4.133-3.75-.23-.227.077-.765-.23-.995-.763-.611-3.284-.996-4.207-1.376-1.145-.379-1.529-1.221-2.525-1.755-2.827-1.456-6.649-1.303-9.403-3.14-2.91-1.985 2.831-2.75.917-4.895-.689-.765-1.837.077-2.37.153-2.447.381-6.35 1.067-8.414-1.072-.154-.148.076-.61-.154-.764-.38-.38-1.07-.462-1.528-.765-1.379-1.072-3.136-2.524-3.978-4.131-.842-1.528-2.293-7.572-3.365-8.491-.996-.837-1.301-.457-2.37-1.067-1.072-.614-6.426-4.438-6.886-5.203-.226-.456-1.222-4.586-1.067-4.972.533-1.297 2.371-.456 1.911-2.601-.077-.533-.844-.765-1.3-1.145-.154 0-.306.154-.385.077-.073-.154 0-.308.153-.384.308-.232 0-.842-.153-1.146-.082-.081-.141.029-.201.145-.053.101-.112.197-.18.159-.308-.149 0-.996-.382-.996-.077 0-.077.077-.151.154.151-.23.379-.535.457-.765.153-.308-.153-.765.153-.842.171-.13.37-.058.582.01.159.053.321.101.487.067 1.225-.23 2.22-1.452 3.289-1.914.193-.057.395-.057.59-.052.273 0 .533.005.711-.174.309-.308-.077-1.149.309-1.374.687-.309 2.14-.155 2.14.609l-.034.097c.799-1.033.751-1.602 2.173-.25.309.384.309.688.154 1.072-.154.38-.61.608-.996.992-.076 0-.076-.083-.076-.083h-.688c.078 1 .612 1.228.842 1.762l-.153.23c.076.612-.076 1.267.23 1.723 0 0 .077.02.077.097-.308.458.919 1.006 1.299 1.539.307.456.538 2.453.917 1.995.386-.456.612-1.068.92-1.607.076-.227.152-.456.152-.687 0-.077-.23 0-.23-.154 0-.071 0-.379.078-.302.307.077.076 1.836.918.457.153-.38.153-.764.153-1.222 0-.077-.153-.154-.153-.307l.048.081c.028.054.065.11.105.071.611-.307.074-2.37.765-2.37 2.217-.152 1.452.688 2.827 1.837l.995.227c1.376 1.605-.23 3.597 1.301 5.279.459.533 1.76 1.683 2.294 2.067.613.303 2.526.61 1.914.837-.354.1-.811-.072-1.249-.245-.886-.351-1.711-.702-1.504 1.24.071.919 3.595 2.908 4.127 3.596l-.226-.076-.23-.077c.456.308 2.445.918 2.521 1.149.154.533-.303 1.375.077 1.831.231.154 2.602-.682 2.679-.759 1.528-.308.456.303 2.37.996.276.066.569.057.868.048.354-.011.709-.024 1.046.101.839.308 1.375 1.896 2.293 2.353 1.072.462 1.76.29 2.068 1.29h.071c.154 0 .308-.372.385-.213.305.533-.154.427.534.729.23-.23.765-.284.841-.587.385-.994-2.907-2.32-3.211-2.858l-.38-1.618c-.231-.309-.768-.233-1.15-.388-1.605-.995-2.601-2.836-3.977-3.979-.461-.308-2.221-2.069-2.755-2.3-.105-.033-.226.009-.349.057-.142.054-.29.105-.416.019-.38-.385.534-1.226.534-1.375-.072-.309-.456-.386-.688-.61-.61-.919-.842-2.145-1.683-2.909-.306-.381-.916-.381-1.299-.688-.308-.231-.842-4.665.842-4.593.763 0 2.065 1.684 2.755 2.067.913-.077.763-1.528 1.222-2.14.505-.601.847-.394 1.274-.183.278.136.596.274 1.021.183.307-.081.307-.688.611-.923 0 0 .457.463 1.76.842.151.081.382.153.61.081.152 0 .231-.308.46-.385.442-.033 1.158.218 1.892.467.777.265 1.573.529 2.085.452.23 0 .461-.153.538-.38.227-.154.151-.692.457-.692.457-.077.765.385 1.223.538.842.227-.15-.385.306-.538.459-.149.996-.149 1.452 0 .309.078.536.538.844.538l.229-.538c1.76.078 1.302 1.99 2.14 2.145.539.077.998-.077 1.38-.23-.689-.765.46-.385.765-.92.075-.075.075-.229 0-.302-.994-.994-.305-1.381-.229-2.37.028-.148.328-.014.677.12.554.216 1.222.438 1.082-.505-1.072 0-2.294-.308-3.212-.919-.382-.308.303-.462.303-.532 0-.236-.765-.386-.303-.847.026-.024.118.019.227.062.178.078.413.154.462-.135.038-.428-.361-.379-.763-.331-.385.048-.768.091-.768-.284.152-1.755.46-1.297-.841-3.135l-.059-.115c.572-.077.712-.197 1.664-1.26.099-.097.213-.01.365.076.202.116.467.231.859-.076.689-.534 1.146-1.452 1.987-1.909 1.76-1.148.304 0 1.606.072l2.142-.838 1.145.157h-.003c.309 1 .537 1.146.996 1.371.459.385 1.149.422 1.605.73.459.379.731 1.277 1.265 1.586.152.148-.27-.252.73-.328v.153c0 .457-.193 2.294.035 2.679.996 1.76 3.804 1.374 5.26 2.216 1.067.611-.585 1.452-.51 1.913.153.458.895.228 1.279.458.38.308-.78.609-1.239.919-1.028.726-.458.668.316.604.61-.048 1.341-.101 1.511.236.152.303-.001.688.229.842.459.148.917-.077 1.374-.077.382 0 .918-.232 1.302 0 .534.226.84 1.605 1.378 1.222 3.289-1.91-3.981-5.583 4.125-1.529.768.385-1.755.461-1.831 1.148-.121 1.034.813 1.73 1.908 2.241-.214.533.075 1.206-.151 1.736-.306.456-1.147.384-1.377.918-.537 1.144.918 4.356 1.836 5.125.154.148 3.062 1.529 3.671 1.986.46.462-1.146 3.289-1.377 3.52-1.077.842-1.192.438-1.168.038.023-.514.269-1.024-.972 1.033-.23.381.306.842.38 1.299 0 .384-.074.765 0 1.148.043.087.14.077.238.063.073-.011.155-.019.221.014.233.154.459.309.537.611.384.995-.689 1.145-1.07 1.837 0 .153 2.064 1.76 2.218 1.832l1.376.23c.688.461 1.531 2.237 2.065 2.77.063 0 .171 2.7.131 4.016-2.499.498-.29 1.648-1.173 2.235-.082.082-.278-.01-.375-.102-.092-.076-.224-.158-.296-.125l-.405.765c-.241.164-1.21.135-2.129.102-.817-.03-1.613-.053-1.866.052-1.529.535-.921 1.756-1.763 2.674-.305.23-5.433 1.837-5.967 1.76 0 .996 1.07 1.304.842 2.217-.416 1.577-.742 1.559-1.037 1.539-.25-.016-.48-.029-.724.913 0 0-.459 3.059-.459 3.13-.151.235-2.522 1-2.601 1.534l.995 1.529c.124.375-.14.341-.402.307-.219-.028-.439-.057-.439.154.053 1.395-.347 1.284-1.039 1.174-.291-.048-.64-.096-1.028-.029-.072 0 .081.077 0 .154l-.152.153c.546 1.313 1.287 1.255 1.751 1.202.185-.024.329-.043.394.02.227.231-.23.995.075 1.149.918.764 3.058 1.76 3.901 2.827.152.231 0 .615.229.841.229.154.385.231.536.309-.749 1.846-.421 1.61.108 1.37.282-.13.62-.255.887-.067.383.227.229.914.611 1.221.041.082.127.029.223-.023.08-.038.164-.087.236-.054.459.309.841.766 1.149 1.226.533.842-.309 1.53.533 1.91.077 0 0 .385.152.308.458-.231.994-.615 1.303-1.072.15-.153-.151-.765.073-.688.46.23.688 1.528 1.53 1.299 1.454-.38 2.216-1.299 3.211-1.684.238-.102.854.043 1.511.178.822.178 1.711.356 2.01.053.306-.23-.229-.841-.077-1.149.992-1.76.077 1.381 1.452 1.458.459 0 .23-1.227.615-1.149.611.077.762.995 1.295 1.298.45.212.794.105 1.09-.005.356-.125.643-.254.98.163.38.458.457-.461.611-.461l.151.461c.142.067.353.024.526-.019.2-.054.355-.105.315.019-.498 1.366-1.508 1.231-2.21 1.097-.597-.11-.975-.226-.621.582.08.201.35.193.611.183.236-.01.465-.019.534.125.081.385-.534.765-.836.688-.768-.076-1.227-.995-1.991-1.145-1.298-.385-2.756-.23-3.977-.691-.842-.303-1.606-1.453-2.679-.765-1.528.994-.38 1.071-1.221 1.913-.616.611-1.378-.154-2.145-.154l.076.309c-.153 0-.305-.462-.305-.309-.383 1.458.229 2.141-.993 2.987-.045.085-.163.071-.271.061-.082-.008-.156-.019-.19.011-1.066 1.456.995.847 1.455 1.303.382.385.075 1.068.382 1.453.087.125.194.019.311-.092.097-.087.2-.169.303-.14.992.309 2.98 1.837 2.907 3.063-.153 1.755-1.073.457-.921 1.602.156.847.536 1.765 1.227 1.688.073 0 .305 0 .305.149.076.538-.537 3.063 1.683 2.066 1.298-.609-1.987-4.13 1.684-3.288.456.077.612.765.838 1.149.386.533.616 1.068 1.075 1.529l.38.071c.615.842-.61 2.756 1.301 2.986.23.077.23-.462.151-.688-.151-.919-.303-2.524-.229-2.679 1.914-2.678 2.447.38 3.748 1.376.113.082.247.019.371-.034.124-.058.242-.115.317-.038l.381.765c.309.072.845.072.995-.154.152-.61-1.603-1.605-1.68-1.76s.229-.385.229-.534c-.076-.153-.383-.23-.383-.461 0-.087.13-.072.274-.063.24.015.528.033.337-.395-.305-.692-1.224-2.371-1.531-2.909l-.763-.226c-.077-.231.151-.539.077-.842-.308-.538-2.832-2.452-2.222-3.294.384-.456 1.226 0 1.837 0 .077 0 .308 0 .385.082.151.227 0 .61.227.684.307.076 1.148.153 2.218.076.69 0 2.373-.149 1.914-.688-.767-.913-2.22-.457-3.058-1.299-.23-.23 0-.688-.156-.995-.074-.148-.459-.148-.459-.384 0-.227.689-.38.459-.458-.534-.225-1.452 0-1.681-.533-.229-.384 2.373-1.149 3.289-1.452.536-.153 0-1.303.992-.994.765.226 1.606 1.759 2.145 2.139.072.039.133-.038.188-.11.058-.077.118-.154.192-.119.078 0 .993.609 1.073.764.076.153-.08.385.076.538.228.077.534.227.688 0 .841-1.302-.154-1.605-.534-2.293l-.077-1.149c-.077-.304-.539-.534-.539-.919 0-.538 1.304-.153.462-1.072-.798-.903-1.256-.842-2.063-.783-.284.023-.606.043-.998.023-1.224-.082-.919-1.303-1.224-1.456-.27-.188-.594-.02-.928.153-.337.174-.684.342-.985.154l-.38-1.457c-.24-.115-.501.053-.768.221-.248.159-.507.317-.767.241-.457-.077-.378-.842-.836-.995-.537-.227-1.153-.077-1.761-.077-.15.077-.308.23-.46.154-.228-.154-.228-.612-.535-.612s-.459.381-.688.458c-.231.077-.918-.149-.689-.231 1.454-.61 2.523-.688 3.596-1.601 1.301-1.149-.382-1.149-.916-1.529-.233-.153-.156-.538-.384-.615-.154-.077-.039.308-.195.38-.537.082.494-1.067.494-1.602v-.688c0-.038.811.289 1.568.62.828.361 1.664.721 1.742.602.615-.919-3.299-2.832-3.832-3.366l-.999-1.986c-.842-.918-2.6-1.61-2.833-3.062l.536-2.295c-.078-.379-.842-.461-.763-.842.074-.532.684-.84 1.066-1.226.459-.379 1.303-1.221 1.303-.917 0 1.528-1.607 1.303 0 2.523.842.615 2.981.159 3.592.919 0 0 .536 2.452.767 2.528.611.149 2.602.227 2.756 0 .38-.691-4.744-1.227-2.986-3.139.23-.309.69.076 1.072.076.149.039.304.02.454 0 .151-.015.309-.038.465 0 1.222.615 1.297 1.985 2.521 2.447.536.23.613-1.298.156-1.76-.615-.611-2.602-.303-2.375-1.221.23-1.458 2.678-1.149 3.521-.692 0 0 2.597 3.211 1.985 1-.304-1.154-2.064-1.457-2.906-1.688-.306-.078-.306-.766-.61-.688-.23 0 .076.309.076.462-.076.148-.153.227-.23.227-.303.076-.61.157-.764 0-.611-.611-.534-1.756-1.224-2.14-.229-.155-1.147-.078-.61-.765.817-1.044 1.204-.817 1.689-.597.326.159.701.312 1.291.063 1.685-.77 1.069-2.067 1.914-2.602 1.088-.664 1.326-.293 1.579.082.245.352.505.707 1.558.145.457-.304.841-.688 1.221-1.145 1.606-1.99 1.912-.379 4.362-.23.324.034.959-.146 1.629-.323.89-.235 1.842-.471 2.193-.211 1.224 1.067-1.225 1.145.077 1.837l.077-.842c.536-.308 1.606-2.067 1.681-2.602l-.611-2.216c.305-1.53 1.146-.927 1.988-1.847 1.145-1.375-1.146-3.219-2.828-3.219h-.002c-.681-1 .842-1.061 1.301-1.594.304-.461-.154-1.299.304-1.684.216-.206.519-.218.841-.199.259.02.531.021.767-.081l1.301-1.466c1.76-.913 2.296.457 4.054.837.077.078-.076-.229.077-.305.538-.385.994-1.024 1.605-1.255.459-.148.918-.254 1.377-.254h.152c-.075 0-.304-.358-.534-.665-.38-.309-2.063-1.247-2.14-1.323 0-.154.229-.358.151-.509-.431-1.058-1.526-.837-2.305-.629-.741.191-1.198.395-.525-.505l1.299-1.063c.154-.15-.306-.385-.229-.611.075-.307.459-.384.613-.69 0-.072-.305-.226-.23-.226.385-.23 1.071 0 1.303-.384.226-.381-.231-.991-.308-1.453-.308-1.222-.23-1.985-.384-3.211l-.461-.227c.151-.236.69-.236.768-.538.841-1.684-.992-1.606 1.836-2.371.179-.033.359.063.53.164.191.11.379.226.54.139.534-.303.383-2.063.075-3.972-.383-2.452-1.07-5.125-1.146-5.664 0-.071 1.833-3.058 1.376-3.438l-.13-.058.207-.174c.125-.129.303-.466.273-.533.414 0 .429-1.005.796-1.299.611-.462 2.906-.537 2.981-1.533 0-.303-.075-2.909-.227-3.211-.039-.072-.107-.02-.184.034zm-111.196 14.055c.373-.016.563-.095.622-.213-.059.119-.247.197-.622.213zm70.849 35.109l.025-.206h.003l-.028.206zM191.5 200.101l-.02.001.02.004v-.005zM112.303 129.101l.072-.129-.096-.01-.055.039c-.017.092.016.111.079.1zM148.279 114.292c.302 0 .61-.385.917-.539l-.077.077.228-.148c0-.068-.05-.179-.069-.179l-.007.024c-.075 0-.075.072-.075.154-.384-.083-.767-.231-1.073-.083-.153.156-.076.694.156.694zM161.28 100.599l.993-.149c.079 0 .231-.076.305-.153-.074-.385.154-.917-.226-.996h-.009c-.106 0-.943.342-1.572.688-.789.432-1.244.865.509.61zM213.288 97.926c0-.082 0-.231-.08-.308.08.226.08.462.08.308zM173.742 88.823c-.607.078-1.296.078-.76.154.232.001.457-.076.76-.154zM218.564 77.582c.229.149.46.303.381.226l-.381-.226zM190.259 56.62l.007.008.002-.003-.009-.005zM57.711 54.979l.137.361.031-.015-.168-.346zM187.359 56.699c.154.385.765 0 1.227-.074.227 0 .456.074.762-.079l.152-.304.078.457c.106.073.263.016.402-.047.109-.051.209-.102.255-.077l-.046-.101c-.152-.385.15-.842.15-1.303h-.124c-.067.02-.144.038-.179 0-.066-.264-.191-.884-.273-.884l-.034.042c-.229.537.154 1.378-.302 1.76-.079 0-3.06-1.375-2.068.61zM180.781 56.474l.154.151c.834-.208 2.995-2.439 1.252-2.439-.17 0-.382.02-.641.069-.457.074-.154.916-.306 1.377-.073.303-.304.534-.459.842zM184.225 50.889c.076.459.38-.841.764-.998.172-.111.419-.096.654-.082.4.021.77.045.725-.528 0-.457 1.146-.226-.844 1.378.385.15.691.535.994.458 2.756-1.149.766-1.069.611-1.914l.23-.533c-.293-.277-.615-.394-.937-.394-1.188 0-2.377 1.588-2.197 2.613zM199.443 37.351c3.13-1.453 2.255-2.176.896-2.176-.937 0-2.099.344-2.35 1.027-.152.536 1.074.688 1.454 1.149zM202.12 34.904l-.076-.154c-.074.154 0 .231 0 .385l.076-.231zM204.723 32.302c.053-.052-.044-.107-.136-.107l-.096.032c-.38.153-.842.306-.993.61-.15.385.229.765.306 1.149.307-.537.687-1.07.919-1.684zM208.088 27.405c-.207 0-.341-.031-.363-.031l.055.031h.308zM218.666 27.157c-.048 0-.378.097-.563.097.154 0 .384 0 .538-.075l.025-.022zM209.081 27.485c.228.457-.309.995-.46 1.452 1.837-.308 2.679-.996 3.29-2.676.153-.306.456-.614.535-.918l-.308-.157s.079 0 .079-.071c-.689.457-1.451.688-1.913 1.298l.23.616c-.395.562-.464.191-.577-.179-.086-.283-.197-.567-.495-.437v.534c-.23 0-.23-.38-.382-.458-.309-.076.535.765.228.996-.228.153-.379-.385-.688-.385-.074 0 .077.154.077.231.156 0 .309.074.384.154zM220.248 21.135c-.133-.762-.985-1.194-1.662-1.194-.876 0-1.444.73.287 2.418.38-.457 1.451-.61 1.375-1.224zM143.994 131.728c.23-.077.536-.38.918-.764-.077.076-.154-.227-.382-.458.151.149.229.303.306.384 0 .073.077.073.077.073.611-.684 1.299-1.454 1.452-.612-.61.304-1.683.458-1.683 1.15 0 .308.996 1.452 1.53.914-.078.384-.229.692-.534.765-.644.216-1.236.196-1.678.178-.502-.023-.81-.043-.77.283.154.611.382 1.222.611 1.76.918 1.683 1.452-1.683 2.219-1.914.689-.153-.537 1.226-.844 1.837-.304.765.076.534.538 1.375.077.232 0 1.073.228.842.46-.457.309-1.226.614-1.832.226-.307.457-.687.838-.918.156-.154.385.231.536.231-.151.226-.302.456-.228.61 0 .38 1.07.302.995.759-.077.384-.918.159-1.303.384-.15.155-.301.385-.457.688 0 .153.228.384.075.457-.152.116-.323.101-.495.081-.177-.019-.347-.038-.498.078-.229.071-.078.456-.229.61-.077.153-.539.072-.462.153 1.553 1.405 1.434 1 1.854.601.219-.217.592-.422 1.438-.375.229 0-2.906 1.38-2.906 1.457-.077.303.995.303.688.38-.068.033-.149.01-.238-.015-.106-.033-.214-.067-.296.015-.154.077.074.534-.077.461-.382-.082-.615-.918-.996-.691-.539.23-.382 1.226-.841 1.61-.14.105-.413.014-.666-.073-.291-.105-.558-.212-.558-.004 0 .226.229.38.459.533.306.154.611.304.765.535.23.384-.154 1.379.385 1.379.99.077.61-2.298 1.603-2.601.614-.153 1.529 0 1.76.611.151.534-1.146.688-1.224 1.302 0 .688.152.688.459.304.209.211.786.116 1.31.014.606-.115 1.149-.23.984.14-.231.534-1.148.308-1.604.611-.384.154-.768.379-.919.764-.079.227.762.078.61.227-.307.384-1.451.231-1.377.77l.382 1.144c-.153-.154-.304-.303-.456-.154-.385.154-.459 1.15-.767.918-.612-.226-.152-1.529-.763-1.677-.539-.154.075.995 0 1.452-.154.534-.693.842-.693 1.299-.074.538.844 2.524 1.378 2.833.305.153.767 0 .995.229.458.304.993 1.679 1.911 2.063.459.23.919.534 1.377.458.382-.077.308-.76.614-.842.305-.073.839.23.765.538-.231.534-2.756 1.375-1.455 1.985.611.232 1.224.462 1.834.385.461 0 .92-.995 1.146-.611.157.458-1.146.765-.839 1.145.305.385.919-.457 1.453-.457 1.072 0 .841.688 1.605.226l.536-.457c.141-.073.334-.024.531.019.227.053.452.1.616-.019.382-.303.154-1.299.688-1.453.264-.077.421.212.567.496.14.288.274.577.505.5.61-.077.533-1.072.995-1.456.074-.073.17 0 .264.082.097.071.193.148.27.071.075-.077 2.068-2.447 2.448-2.98l-.154-.458c.168-.707.38-.317.606.072.283.496.591.995.849-.765.074-.303-.918-.38-.688-.687.382-.38 1.377 0 1.757-.458.23-.231-.61-.538-.534-.84.232-.765 2.295-.919 2.217-1.15-.227-.533-1.221-.841-.993-1.375.229-.38.919.458 1.302.687.303.227-.078.997.303.997 3.214 0 .767-.841 2.067-1.683.229-.155-.153.842.154.842.61 0-.077-1.304.458-2.299.152-.148.307.309.458.309s.151-.227.151-.309c.461-1.067 0-.226-.609-1.832-.156-.384.307-1.072.152-1.375-.229-.539-.996-.923-.918-1.533.076-.386.84.307 1.072.691.151.38-.078.919 0 1.375 0 .077.076.154.151.154 1.913-1.303-1.376-3.673.536-3.673.533 0-.154.995-.078 1.453l.536 2.22c0 .077.075.208.075.362-.152-.154-.303.742.152 1.742 0 0 .458-1 .458 0 0 0-.458.706-.226.937 1.245 1.168 1.668.821 1.977.5.313-.332.5-.673 1.313.605.227.304.688.906.382 1.137-.074.076-.074.073-.155.073-.191.034-.434-.069-.68-.17-.34-.144-.673-.284-.848-.058 0 0 .916 3.438.992 4.356 0 .534-.765 1.913-.307 2.37 1.571 1.573 2.071.909 2.412.245.295-.566.473-1.124 1.106-.321.995 1.221-1.144 3.899-.991 5.048 0 .462-.08.996.15 1.298.115.116.303.101.49.077.18-.014.351-.034.428.077.533.841.074 2.679.459 3.366.229.384.536.842.918 1.15.152.076.46 0 .534.148l-.228.308c0 .076.918 1.302 1.071 1.683l.075.995 1.227.765c.453.534.303 1.606.914 1.837.111.029.242.014.377.005.223-.024.444-.048.543.149.305.534.536 1.298.153 1.832-.115.227-.418.197-.735.168-.334-.028-.678-.063-.799.217-.303.61 1.838 1.529 1.228 1.759-.313.14-.702-.101-1.065-.336-.436-.289-.832-.577-.998-.202-.154.153.193.924.804 1.914-1.112-.22-2.387-.492-3.386.469l.011.017-.048.053.053-.023c-.137.201-.273.351-.344.634-.152.38 1.071 0 1.148.457.23 1.073.69 3.823-.688 2.679-.307-.23.689-.616.766-.996.385-2.37-1.451-1.837-2.601-1.837-.383 0-.763-.153-1.145-.303-.233 0-.995-.307-.767-.153.459.303 1.301.153 1.455.688.688 2.371-2.984 1.529-3.67 1.909-.233.076.227.462.378.615 1.226 1.073 1.911.456 1.608 2.679l-.69.533c-.077.23 1.302-.077.842 1.144 0 .083 0 .309.151.309.154.038.326-.019.51-.076.183-.054.369-.111.564-.078.381.078.688.462 1.146.462.152 0 .231-.462.384-.308.382.457.841 1.067.689 1.605-.079.231-.462.078-.77-.076.612.308 1.149.764 1.837.764 1.913-.076.076-1.226 0-2.063 0-.625 1.341-.52 2.058-.885l.005.044.086-.087.145-.067-.02-.053c.054-.067.172-.106.172-.178.305-.683-.682-.914-1.291-1.294-.385-.235-.606-.336-.159-.834.38-.387.995-.678 1.376-.678h.004c.063 0 .07-.164.07-.242 1.685-1.529.15-1.458.079-3.063 0-.385.379-.729.457-1.036 1.071 1.688 2.446 3.576 2.446 3.576-.153.379-.764.601-.764 1.063-.077.456.385.831.385 1.292 0 0-1.378.229-.844.532.308.153.766-.075 1.069-.075.536.073 1.072.457 1.683.457 1.914 0 1.381-1.299 3.213-1.149.229 0 1.455.765 1.834.385.463-.462.844-.996.921-1.605.077-1.991-2.448-1.073-.458-3.978.227-.384.303-.923.763-1.071.225-.067.479-.02.725.023.336.063.658.121.884-.101.227-.386-.612-.841-.462-1.303.077-.304.534-.073.842-.073.385 0 .688.148 1.072.073.154 0 .839-.15 1.375-.457.097-.029.072.153.06.336-.013.255 0 .51.399.196.383-.379.46-.764 1.227-.836.075 0-.151.304-.077.381 0 0 1.301-.155 1.301.076.072.153-.154.304-.154.457.074.153.306.231.38.153 1.304-1.222 1.381-3.745 1.605-5.351.193-1.308.193-.856.251-.404.058.447.175.894.594-.361l-.229-.769.688-.226c.23-.995-1.069-2.216-.459-2.832.12-.12.291-.086.442-.057.132.028.252.052.325-.015.074-.159-.996-1.841-.845-2.298.077-.61.383-1.227.688-1.76.079-.072.459-.072.382-.226-.303-.384-1.069-.384-1.069-.842-.074-.615.919-.918.919-1.451 0-.616-1.225-.996-1.532-1.381-.154-.154-.456-.457-.229-.457.238-.101.551-.024.863.058.383.097.76.197.974-.058.534-.692-1.146-2.755-1.069-3.135.033-.149.248-.096.467-.038.219.058.446.111.526-.043.228-.38-.383-1.754-.69-1.985-.456-.303-1.987-.077-1.605-.534.385-.461 1.149.38 1.76.38.841 0 .153-.456.462-.764.033-.034.124-.005.216.019.12.035.24.068.24-.019-.534-1.222-1.528-1.53-2.753-1.222-.233 0 0 .458-.151.458-.233.076-.233-.38-.384-.458l-.231.227c-.229 0-.46 0-.534-.149-.307-.692 3.598-.154 3.748-.154.074 0 .151-.154.229-.231.077-.038.192-.019.279 0h.105c0-.23-.613-.23-.462-.307.048-.048.212-.014.393.02.362.067.808.135.604-.477 0-.23-.842-.384-.613-.462.195-.023.408-.013.625 0 .38.024.767.048 1.061-.148 1.375-.997 1.144-4.361 1.144-4.361 1.227-.154.154 2.446.918 2.755.231.154-.379-.693-.15-.842.183-.073.326.221.449.515.135.317.236.639.318.481.225-.538 0-1.226.302-1.76.308-.539.918-.842 1.452-1.149.077-.073.23-.054.354-.04.127.02.219.04.183-.038 0-.535-.459-.991-.688-1.453-.074-.077-.306-.308-.231-.308.254-.096.562-.053.863-.019.418.053.827.105 1.049-.207.233-.385-.533-1.149-.993-1.072-.61.071-.688 1.072-1.224 1.297-.192.116-.423.058-.649 0-.23-.053-.462-.115-.648 0-.309.231 0 1.072-.386 1.226-.532.231-1.069-.154-1.682-.307-.306-.077-.611-.535-.995-.38-.152.077.459.458.308.611-.229.23-.842.379-.996.153-.151-.384.688-.842.46-1.072-.22-.216-.536-.134-.856-.059-.238.068-.476.125-.67.059-.462-.231-.616-1.073-1.072-1.073-.386-.076.536.842.228.996-.368.125-.757-.102-1.153-.327-.349-.197-.708-.395-1.065-.36-.46.153-1.222.765-1.837.385-.151-.154-.533-.385-.38-.462.536-.308 1.224-.308 1.837-.38.226 0 .457.303.536.148.226-.384-.156-1.144.226-1.226.46-.071.537.924.995.924.69 0 .993-.841 1.608-.995.178-.058.62.312 1.154.678.832.582 1.878 1.158 2.438.086.231-.38-.917-.307-1.144-.693l-.386-1.677c-.037-.073-.201-.044-.359-.015-.188.029-.37.057-.327-.063.229-.385.765-.764 1.146-.615.536.23.61.923.918 1.38.077.153 0 .307 0 .38.229.307.69.235.61.769 0 .534-.533 1.683.08 1.683.61 0 1.146-.462 1.681-.54.133-.028.274.02.409.073.182.067.343.134.435.004 0-.077-.462-.764-.385-.841 2.14-.995 1.452-1.683 2.14-2.443.308-.235.385-.692.767-.769.077 0 .762.842.842.077.229-2.063-.613-1.222-1.76-2.524-.306-.23-.075-.918-.459-1.072-.159-.077-.276.111-.385.304-.102.177-.195.351-.304.312-.456-.307-.538-.995-.841-1.452-.231-.308-1.144-.61-.768-.769.21-.068.47.115.715.303.296.221.574.441.74.23 2.067-2.289-1.831-.76-1.911-.76-.151-.076.23-.384.08-.538-.047-.082-.156-.028-.261.024-.086.042-.168.091-.204.057-.459-.308-.916-.616-1.145-1.072-.151-.308.151-.842-.151-.996-.768-.461-2.373 0-3.214 0-.231 0-.074-.538-.306-.616-.067-.028-.154-.004-.224.024-.089.034-.161.063-.161-.024l.308-1.374c-.077-.457-.61-.688-.764-1.068-.078-.154-.078-.385 0-.538.076-.077.456-.077.379-.155 0-.076-.074-.037-.16 0-.087.04-.184.078-.219 0-.155-.302-.078-.687-.155-.995-.15-.303-.15-.687-.15-.991 0-.154.382-.077.306-.23-.078-.308-.69-.385-.614-.766 0-.105.172-.062.354-.014.197.049.414.102.414-.062.226-1.683-2.755-3.29-.995-3.9.283-.105.581.121.867.342.335.26.643.514.89.269.459-.461-.379-1.222-.688-1.76-.041-.039-.112.005-.18.039l-.126.038c-.153-.456-.153-.917-.077-1.38l.46-.909c.074-.61-.077-1.672 0-1.672h.231c.074 0 .458-.159.379-.241-.915-1.067-2.983-1.531-1.757-2.449.456-.304 1.146-.266 1.683-.343.231 0 .61.284.688.058.308-.385 0-1.006.229-1.391.151-.149.079.605.23.605.611.159.229-1.296 0-1.834-.151-.23-.308-.458-.382-.688.303-.082 1.148-.693.918-.231l-.688.303c0 .231.457.308.688.23.23-.072.383-.385.533-.534.386-.538 1.07-.918 1.304-1.534.077-.279-.278-.241-.697-.197-.363.039-.776.073-.988-.105-.305-.231.842 0 1.147-.303.23-.236.076-.769.23-1.072.034-.038.135-.019.221 0 .082.019.161.039.161 0-.074-.231-.612-.307-.459-.456.123-.125.308-.053.48.019.149.064.289.125.361.052.154-.226-.383-.456-.306-.688.074-.153.383-.153.533-.076.152.153-.228.538-.073.538.153 0 .532-.082.458-.23-.076-.308-1.069-.534-.767-.534.245-.039.49.105.727.245.283.173.555.336.803.212.538-.309.613-1.073.69-1.606.074-.458-.386-1.073 0-1.38.146-.106.338.096.53.293.212.226.417.446.539.245.23-.539-.919-1.149-.611-1.606.169-.211.455-.048.754.115.239.13.492.261.699.192.384-.154.307-.769.538-1.071.226-.457 1.146-.351 1.373-.653.228-.154-.074-.884.077-.884h.079s0-.111.071-.111c.116-.077.154.174.192.401.039.23.078.472.193.395.533-.231-.229-1.448.306-1.524.15-.077.15.459.305.459.918-.154 1.072-3.899 1.53-4.817.307-.689 1.912-2.678 1.835-2.75-.61-1.379-3.135-1.534-3.061-3.366.08-1.533 2.371-2.144 1.914-3.519-.229-.616-.688-1.149-1.224-1.53-.062-.033-.173-.014-.282.006-.165.029-.328.053-.328-.082.305-1.149 2.064-.769 2.676-1.149.151-.077-.151-.385-.074-.457.074-.04.134.057.177.153.049.096.09.187.126.149.462-.38-.38-.918-.457-.99-.156 0-.462 0-.383-.077.46-.231 1.531.077 1.378-.385-.153-.841-2.22-.534-2.067-1.375.077-.231.308.38.538.457.457.23.991.307 1.529.461-.076-.077-.153-.154-.153-.231-.154-.461.307-.918.38-1.452.076-.154 0-.307 0-.461 0-.225-.303-.688-.151-.688 1.146.231 1.681 2.068 3.291 1.072.379-.23-.234-1.149.151-1.374.31-.179.671-.073 1.038.028.267.077.539.154.796.125.154 0 .23-.384.385-.461.181-.034.326.121.469.274.151.173.289.541.445.459.309-.156.54-.644.77-.644h-.003c.306-1 .691-1.195 1.758-.579l.765 1.583c.251.168.544.012.847-.094.254-.091.515-.202.763-.135.226 0 .226.448.376.599.188.096.298-.006.395-.103.142-.139.252-.282.529.169.838 1.76.227 3.288.533 4.057.082.255.424.201.77.153.582-.091 1.184-.178.605 1.216-.229.539-.995.384-1.451.691-.457.309-.996.534-1.299.992l-.082.691c-.074.077-.206.02-.331-.038-.124-.059-.24-.116-.276-.04-.229.535-.306 1.222-.306 1.833 0 .385.229.77.077 1.149-.077.688-.996.995-1.149 1.606-.15.461.23.995.077 1.375-.38.846-1.224.693-1.298 1.837-.077.231.38.462.38.766-.229 1.451-2.294 1.225-2.371 2.523-.076.538-.456 1.914-.536 1.99-.306 0-.687-.769-.995-.534-.686.611.385 2.135-.303 2.597-.107.077-.267-.106-.396-.288-.147-.203-.258-.409-.219-.245 0 .38.536.533.689.917.687 2.52-.23.842-1.301 2.063-.228.308.233 1.072-.074 1.072-.462-.076-.23-.991-.61-1.072-.616-.154-1.38.082-1.686.611-1.224 2.067 1.378.615 1.227 1.841-.157.76-2.146 2.063-2.22 2.9-.228 2.985-.158 2.389.092 1.803.173-.413.433-.827.75-.043.077.082-.69 1.453-.077 1.837.036.038.094-.034.154-.111.055-.076.11-.159.15-.115.157.226-.076.765.229.836.154.082-.154-.687.079-.687.227-.073.306.231.382.461.46 1.227-.076 3.212.151 3.669.151.308.611.154.845.385.303.384.457.841.687 1.221v.539c.154.226.457.226.611.38l-.306.076c-.077.155.074.309.151.458.383.461 1.227.693 1.149 1.226l-1.378.539c-.155.606.763.99.919 1.529.074.226-.308.457-.23.764.074.149.533.149.533.38-.041.519-.267.476-.431.437-.148-.038-.25-.077-.103.328.074.307.459.534.382.769-.04.159-.274.13-.495.097-.2-.029-.387-.053-.424.053-.074 1.986.768 2.221 1.379 3.057.149.155-.611.309-.46.54.077.38.231.687.46.995 1.68 2.216.381-.082 1.987-.385.308 0-.308.841 0 1.073.46.225.995-.155 1.529-.155.459.078.688.842 1.071.842.381 0 .537-.462.842-.462.154-.072 0 .231.077.308.229.077.38 0 .611-.077.076-.076.076-.533.151-.385.767 1.688-.457 1.996-.151 2.068.151 0 1.914-1.298 2.139-1.452l.309-.534c-.384 1.144-1.375 2.443.458 3.135.143.067.345-.039.542-.145.226-.125.441-.25.528-.086.154.461-1.07 1.145-.61 1.299.459.23.384-1.068.842-1.145.38-.077.077.765-.077 1.067-.229.384-.688.533-1.072.842l-.534.614c2.37-.923 1.452-2.447 2.679-3.211.38-.231-.615.995-.23 1.221.532.308 1.224-.077 1.76-.385.382-.148.533-.764.841-.99.46-.384 2.521-.611 2.751-.919l-.304-.841c.243-.191.58-.167.933-.148.198.009.404.023.597-.006.153 0 .46.077.539-.076.151-.227-.157-.535-.079-.688.079-.154.079.378.23.461.074.072 2.062-1.15 2.219-1.379.071-.078-.308-1.606.457-1.454.153 0 2.98 2.602 2.293-.23-.153-.534-1.529-.611-1.301-1.226.156-.535 1.147-.227 1.686-.073.303.073.303.915.608.765.767-.534-.378-3.135.536-2.601.768.533-1.298 2.446 1.072 1.682 3.668-1.221.536-.461 1.298-1.606l.308.154s.385 0 .46-.154c.076-.153-.229-.688 0-.688.076 0 1.3 1.072 1.685.919.533-.154.914-.611 1.222-.996.077 0 .077-.077.077-.153l-.154-.154c.457-1.755 1.914-3.593 2.83-5.121 2.373-4.207 3.824-9.024 5.43-13.54 1.225-3.29 1.608-4.131 1.761-7.65.074-.534.383-1.145.154-1.684-.611-1.754-7.419-4.278-9.18-5.504-.228-.155 2.522-4.357.612-5.809-.688-.539-2.141 0-2.601-.771-1.988-3.437.46-1.836-.151-2.826-.923-1.38-1.913-.308-3.063-1.683-.991-1.15-.302-1.226.231-2.299.309-.688-1.528-.688-1.528-.995.076-.535.076-3.285.076-3.361-1.605-1.38.304-.539.766-1.073.305-.458-1.606-3.211-1.84-3.517-1.301-1.758-2.753-3.823-4.281-5.354-.231-.23-1.453-1.145-1.681-1.608-1.149-2.138 2.521-7.571 1.069-8.869-.382-.457-1.069-.457-1.534-.765-.836-.61-1.221-1.686-2.063-2.221l-2.755-.38c-.457-.382-.611-.996-.918-1.529-1.679-2.754.307-2.524-.535-4.514-.21-.513-.764-.472-1.153-.438-.305.034-.509.062-.375-.173.385-.688.918-1.147 1.378-1.76-.147-.068-.212-.144-.32-.221l.013-.01c.16.106.301.212.538.308 1.07.385.151-2.904.151-2.981.385-.919 3.292-2.678 1.837-3.899-.428-.382.115-.175.842.033.577.169 1.273.441 1.683.301.918-.303-.153-2.262-.61-2.262h-.231c-.61 0-1.223.122-1.834-.031-.23 0-.074-.666-.156-.511-.151.457-.226.889-.151 1.425 0 .23.613.443.459.524-.308.11-.648.068-.983.026-.334-.033-.661-.077-.928.035-.077.08-.151.152-.229.303.229-.762.38-1.988-.153-2.142-.21-.032-.386.25-.539.528-.185.336-.331.677-.456.466l.691-1.375c-.252-.346-.691-.274-1.139-.201-.241.039-.486.076-.697.048-.077 0-.156-.075-.231-.154-.385-.077-.687-.151-1.071-.151-.309 0-.993.382-.765.23.789-.877 1.805-.873 2.846-.873.774.005 1.561.005 2.277-.351.613-.308.232-1.377.689-1.988.229-.385.765-.459 1.147-.69.155-.154.535-.154.459-.306-.304-.458-.919-.69-1.301-.993-.151-.077-.229-.23-.306-.307-.23-.075-.539-.075-.765-.227-.076-.082.075-.384-.076-.384-.46.077-.842.457-1.302.611-.151.077-.61.151-.532 0 .381-.996 2.218-1.07-.306-1.837-2.84-.885-1.516-.178-.866.524.469.514.582 1.029-1.51.93-.074 0-.992-3.366-2.37-1.606-.303.459-.227 3.058-.151 3.366 0 0 1.146.382.689.839-.079.039-.194.002-.305-.039-.117-.034-.233-.074-.308-.034 0-.081-.077-.153-.152-.233-.221-.141-.51.094-.789.334-.297.258-.583.52-.739.277-.308-.531.61-1.07.837-1.604.081-.384.307-1.145-.074-1.072-.537.154-.763.996-1.225 1.376-.077.156-.61.538-.533.384.228-.461 2.75-3.747 1.832-4.361-1.222-.842-1.682-.309-2.289-.075-.183.108-.399-.091-.587-.291-.148-.164-.276-.321-.351-.321l-.059.077c-.153.536.534 1.146.227 1.683-.11.186-.447.154-.765.13-.341-.031-.654-.06-.61.175 0 .614.919.768 1.452.996.064.034.202.024.322.014.163-.012.303-.027.213.06-.381.459-1.146.538-1.377 1.073-.303.457-.076 1.146-.076 1.683 0 .382.995.61.688.917-.457.383-1.222.765-1.758.383-.459-.229.156-1.226-.151-1.604-.115-.153-.347-.021-.553.111-.215.134-.404.267-.443.116-.076-.534.688-.765.842-1.226 0-.152-.533-2.141-.533-2.141-.842.462-2.066 5.512-2.524 6.809-.231.688.61.154.458.611-.15.382-.384.688-.458 1.149-.077.308.153.764-.077.993-1.301 1.3-1.149-.918-1.149-1.07.077-.459.842-1.149.385-1.3-1.303-.383.995-.688 0-1.377-.108-.07-.265-.024-.42.019-.171.053-.344.106-.421-.019 0-.077.077-.077.226-.077-.072 0-.148 0-.148-.075-.077-.232 1.985-3.978 1.832-4.206-.073-.229-4.28-.614-4.511 0-.154.61.842 1.221.535 1.757-.077.19-.37.029-.655-.127-.308-.166-.605-.334-.647-.099 0 .226 2.371 1.067 2.065 1.757-.151.228-2.447 0-1.909 1.301l.995.611c-.096.096-.324.033-.601-.029-.398-.087-.909-.173-1.313.182 1.76-3.668-2.829-.384-2.447.994.153.459 1.021.689 1.405 1.074.229-.385-.205-.692.795-.995v.15c-1 1.456-.412 1.912-.11 2.371.309.537-.701.381-.701.69 0 .226.337.306.565.379.096.034.208-.004.335-.033.176-.051.322-.097.322.033.079.385-.158.918-.543.995-2.063.155-.768-2.064-1.758-2.37-.385-.154-.923-.077-1.382-.077-.151-.077-.46-.231-.611-.077-.153.077.076.535-.077.535-.534-.155-.842-.843-1.375-.917-.61-.152-2.833.382-2.524 1.603.61 2.222 2.827.308 3.212.308.153-.074.38 1.53.229 2.602 0 .154-.309.154-.309.231.157.379 1.227.992.844.916-.384-.151-.61-.613-.918-.842l-1.226-.689-.226-.611c-.154-.152-.386-.385-.537-.229-.459.537.151 1.681-.459 2.066-.942.629-1.163.148-1.23-.325-.106-.685.11-1.377-1.065 1.243-.457 1.067.69 1.683 1.227 2.142.15.151.763.303.531.458-.212.106-.477.097-.742.087-.306-.01-.616-.021-.859.139-.462.308.229 2.984-1.149 2.524-.533-.151.46-1.07.61-1.606 0-.154.309-4.433 0-4.895-1.144-1.375-1.911 1.914-1.76 2.298.157.457 1.227.38 1.227.837-.041.24-.326.187-.627.142-.277-.046-.565-.094-.677.088-.302.384.077.996 0 1.455-.074.229-.302.611-.455.459 0-.153.689-3.748.153-4.056-.616-.458-1.914.308-2.22.921-1.68 3.594 2.83 3.135 2.22 4.967-.153.307-.383-.688-.616-.914-.456-.385-.993-.308-1.374-.692-.381-.38-.304-1.376-.84-1.376-.536-.077-1.069.611-1.224 1.149-.154.534 2.22 1.375 2.14 1.375-.534.231-1.224.537-1.758.231-.536-.309-.688-2.45-1.069-1.837-.154.382-.309.764-.309 1.224-.076-1.224-.228-2.679-.994-2.446-.457.149-.226 1.145-.686 1.453-.23.116-.5 0-.758-.116-.259-.113-.505-.228-.696-.115-.306.23.841.077 1.145.382.77.993-.991.536-2.063 1.07-.102.07.048.034.244 0 .258-.048.597-.091.597.077.077.534-.765.919-.613 1.376.036.153.305.06.546-.037.238-.096.447-.191.373-.041-.151.616-1.146.691-1.301 1.303 0 .382.687.382 1.072.61.456-.687.61-1.683 1.375-1.987.459-.305.995.151 1.531.151.075-.077.151-.377.151-.914.151.458.536.914.385 1.375l-1.76.688c-.154.687.077 1.529.61 1.913.077.075.457.075.383.152-.383.307-1.301.05-1.301.507 0 .1.034.12.078.123h-.078c-.38 0-.765.488-.765.791.154.995 2.523.437 1.76.896-.536.308-1.226.485-1.837.409l-.765-.598c-.23 0-.459.159-.764.31 0-.38-.231-1.064-.919-1.982-1.299-1.76-.918 1.913-1.146 2.295-.041.082-.104-.028-.176-.139-.063-.101-.137-.197-.207-.168-.229.077-.459.309-.61.611.382-1.678.688-5.121-.919-3.285-2.217 2.371 1.912 1.915.309 3.441l-1.529.612c-.154.306.256.691.181.996-.079.533-.737 1.072-.737 1.606v.307c0-.307.432-.615.737-.923l.747-.685c.231-.229.07-.844.379-.919.382-.076.837-.15 1.219.075l.304 1.15c.456-.306.076-1.301.456-1.684.232-.228.689-.308 1.071-.38-.153.303-.23.688-.077.991.231.461.996.382 1.452.307.308 0 .308-.459.539-.535.151-.074.379.151.379.305.077.154-.379.306-.228.385.262.054.661-.293 1.089-.635.817-.663 1.747-1.322 2.048.789.077.379-.615.379-1.072.458-.307 0-.533-.458-.918-.458-1.375 0 1.759 3.055.308 2.371-2.068-.995.688-2.604-2.601-2.068-.613.077-1.606 0-1.684.615-.154.535.996.378 1.375.686.154.156.154.382.231.614-.61-.539-1.376-1.15-1.761-.921-1.146.537 2.679 3.901 1.761 4.975-.334.398-1.659-1.419-1.989-1.986.145 1.673-1.836.915-3.058 2.137-.079.079.227-.305.075-.382-.381-.305-1.684 0-1.375.461.074.113.341.037.562-.038.219-.077.39-.154.279-.041-.308.306-1.072 0-1.226.459-.227.535-.152 1.378.385 1.606.459.23 1.76-1.375 1.984-1.835l-.074-.458c.152 0 2.521.764 1.988 1.68-.137.177-.65.051-1.151-.074-.608-.15-1.195-.298-1.065.074 0 .041.072.021.143.002l.086-.002c-.076.385-.762-.074-.459.689.533 1.452.918.919 2.068.535.225-.072.84-.457.687-.227-.308.458-1.226.534-1.302 1.067-.152.614.615 1.073.766 1.609.229.611-.615-1.069-1.074-1.532-.303-.302-.686-.456-1.069-.456-.532.077-.993.918-1.302.61-.379-.302 1.15-.765.77-1.072-1.148-.839-1.303 1.454-1.76 2.449-.23.382-1.148.841-.842 1.07.764.459 1.682-.154 2.448-.459.308-.152.459-.688.686-.611.233.074-.46.536-.227.69l.227.226-.151.154c-.381.23.151 1.3-.309 1.3-.457.074.309-1.146-.072-1.3-.615-.308-2.449.767-2.449.841.076.533 1.146.765.918 1.301-.151.537-.992.838-1.607.763-.381-.074-.073-.763-.304-.994-.077-.151-.231.231-.231.305 0 .155-.379 1.76-.455.688 0-.152.38-.457.228-.457-1.911-.611-.308.533-.614.689-.129.065-.35.061-.553.061-.28-.005-.533-.009-.441.167.309.534 2.602 1.302 1.531 1.76-1.911.765-3.061-.458-3.597 2.371-.151.61-.376 1.832.308 1.986.268.043.513 0 .763-.034.247-.039.5-.077.77-.039.226 0 .688 0 .534.072-.46.384-4.588.919-1.914 1.303.408.034.746-.27 1.074-.577.344-.327.676-.649 1.07-.567.151.072.092.529.243.529.076 0 .325-.073.325-.073v.073c0 .307.976.764.593.764-.459 0-.731-.61-1.192-.764-1.072-.227-1.172.764-1.86 1.072-.382.154-2.915-.231-1.694.77.197.153.476.067.758-.024.252-.082.504-.164.686-.057.385.23.307.918.459 1.303.076.307.534.918.306.841-.612-.154-.918-1.149-1.531-1.072-.457 0-1.147 1.76-1.067 2.222.076.302.303.682.531.989l.465.077c-.54.308-1.535 0-1.762.616-.155.303-.155.456-.155.688-.61.072-.61 2.216-.536 2.596.076.231.385-.226.536-.303l1.071-1.226c-.15-.303-.307-.458-.381-.611.533 0 1.227-.154 1.297.077.766 1.298-1.987 1.298-2.139 2.294 0 .307.533-.154.842-.231.381 0 .762.077 1.144 0 .308-.154.919-.913.919-.534-.381 2.217-1.912 1.529-3.056 2.602v.687c-.384.155-2.608 0-2.841.539l.609.149v.076c0-.076.234-.076.31.077.233.308-3.131 2.294-1.986 1.76.386-.154.653-.385.956-.617-.072.155-.244.462-.321.924-.409 1.732.39 1.424 1.032 1.125.438-.207.791-.415.638.019l-1.455.842c-.153.303 1.071.077.915.303-.306.385-.917.539-1.373.385-.768-.304-.998-2.063-1.609-1.683-.611.384-1.762.995-1.377 1.529.23.384 1.226.764.842.841-.271.077-.52-.111-.768-.303-.248-.193-.498-.385-.762-.309-.307.077.764.461.688.765-.154.461-.842.384-1.07.688-.231.308 0 .764-.156.995-.077.164-.266.091-.455.019-.176-.062-.354-.125-.458-.019-.08.23-.154.457-.154.688 0 .154.456.154.306.154-.108.073-.268.028-.418-.015-.172-.057-.344-.105-.424.015-.306.457-.233.99-.306 1.528 0 .155-.077.308.072.308.134.034.39-.034.61-.1.283-.092.516-.178.385-.053-.303.456-.913.456-1.371.687-.846.535-2.528 1.529-1.379 1.986.764.308 1.605-.913 2.139-1.144.08-.077-.302.308-.15.308.074.039.207-.02.314-.077l.145-.077c-.459.38-1.227.457-1.455.99-.15.308.387.54.536.842.154.308 0 .918.383.995.613.159 2.522-1.529 2.907-1.837.381-.302.842-.457 1.226-.683l.227-.153c-.534-.231-1.452.076-1.761-.462-.228-.38.689-.611.994-.841.614-.533 3.367-4.28 3.137-1.226-.075.616-1.453.461-1.76.995-.381.54 1.451.54 1.533 1.149.151.765-2.985.919-3.215 1.914-.037.149.172.077.402 0 .225-.077.475-.153.517 0 .077.611 0 1.453-.534 1.832-.08 0-3.214-.765-3.214-.154-.077.617 1.07 1.078.842 1.688-.231.38-.765-.764-1.224-.841-.133-.034-.281.077-.411.187-.171.145-.311.289-.356.115-.076-.457.616-.688.616-1.149 0-.375-.538-.534-.692-.837-.227-.384 0-1.296-.457-1.149-.613.078-.613.996-1.072 1.452-.382.462-1.221.615-1.221 1.15-.045.245.235.062.54-.122.274-.164.57-.327.681-.188.308.31-.765.31-1.145.462-.23.154-.461.764-.615.534-.38-.457.154-1.452-.303-1.678-.539-.307-2.371.914-2.448 1.602-.24 1.727.233 1.241.784.755.498-.442 1.058-.88 1.205.317.305 2.068-2.753.457-2.831.457-.381-.076-.326.116-.201.309.124.191.312.384.201.303-.23-.073-.764-.529-.615-.303.153.533.308 1.22.844 1.529.304.153.612-.385.992-.458.154-.077-.379.231-.302.303.074.077.283.039.457 0 .173-.039.307-.072.231 0-.134.105-.37.102-.596.102-.284-.006-.551-.006-.551.206.075.616 1.53.842 1.301 1.375-.308.539-1.301-.149-1.683-.534-.308-.226.152-.688 0-.995-.154-.385-.692-.385-.918-.688-.154-.231.077-.765-.154-.688-.457.077-1.067.534-.995.991l.231.308c-.458-.077-.842-.077-1.299 0-.308 0-.538.539-.841.461-.462-.154-.462-.996-.919-1.072-2.067-.231-2.295.303-1.759.918.379.539 1.375.457 1.451 1.072.154.918-3.899 1.452.688 1.375.524 0 1.044-.144 1.633-.366-.832.322-1.852 1.14-1.325 1.587.177.148.473.058.759-.034.327-.105.646-.207.77.034.231.385-.688.77-1.147.691 0-.076-1.147-1.758-1.681-1.451-.307.148.152 1.145-.153.989-.384-.148.074-.917-.231-1.144-.634-.5-1.217-.14-1.632.222-.287.25-.493.496-.587.461l-.228-.457c-.307-.153-.687-.153-.995-.072-.229 0-.536.225-.457.303.305.226 2.371.918 2.75 1.452.307.385.154 1.073.536 1.375.238.173.584.163.907.149.399-.01.767-.03.853.312.082.283-.248.178-.64.082-.349-.091-.752-.183-.964-.005-.156.072-.233.304-.307.458 0-1.221-.155-2.524-1.07-2.371-2.679.462-.993 1.457-.691 2.986 0 .149-.076.458-.302.458-.154 0 .227-.308.227-.458-.154-.461-.534-.769-.765-1.226-.154-.303 0-.918-.306-.995-.685-.148-1.837.385-1.76 1.072 0 .534.151 1.067.536 1.529.231.307 1.375.154 1.224.534-.228.461-.993 0-1.452-.227-.228-.153-.077-.687-.308-.687-.459 0-.229.996-.688 1.144-.074 0 .077-.23.077-.302 0-.54.534-1.226.151-1.534-.302-.308-.151 1.149-.611 1.149-.61 0-.917-1.226-1.528-1.149-.462.077.533 1.303.077 1.379-.459.073-.459-.84-.692-1.226-.151-.229-.919-.533-.919-.229 0 .769 1.534 1.071 1.38 1.764-.154.533-1.38.533-1.298 1.067.075.461.913-.231 1.375-.231l1.067.231c1.072.154 3.445 1.303 3.828 1.222 2.217-.154-1.76-.915.918-.76.308 0 .919.149.685.38-.801.76-1.765.529-2.5.293-.526-.163-.935-.333-1.092-.14-.15.154.763.688.459.688-.382-.077-.539-.841-.918-.765-.308.077-.154 1.298-.382.996l.229-1.149c-.458-.688-1.529-.842-2.37-.842-1.147.077-2.984 2.063-1.757 3.058.211.216.525.216.838.211.245-.004.488-.004.69.096.382.231-1.529.154-1.377.611.253.596 1.469.576 2.346.562.707-.015 1.197-.028.788.279-.915.611-2.216-.307-2.981-.379-.461 0-2.373.842-.764 1.452.38.149.685-.385 1.069-.385.612-.076 1.834-.457 1.761.078 0 .375-.427.265-.893.159-.303-.068-.63-.139-.868-.082-.536.153-1.226.38-1.608.918-.151.231.999 1.53 1.15 1.53.841.23 1.837.076 2.678-.308.151-.072 0-.534.229-.457.612 0 2.984 1.072 3.061.995.151-.154.38-.538.611-1.072l.077.077 1.683.765c.077.076 0 .384.151.307.768-.077 1.685-.307 1.685-.384.152-.38-.461-3.899 1.453-3.135.765.308-1.379 1.144-1.379 1.986 0 .307.079.769.384.846.194.063.491-.077.769-.227.371-.192.718-.384.76-.081.317 1.587-.921 1.346-1.995 1.11-.746-.163-1.419-.322-1.448.116-.077.99 1.914 2.216.459 2.37-1.124.072-1.199-.764-1.205-1.6-.007-.928.077-1.857-1.092-1.54-1.755.461-.762 1.837-1.295 1.611-.536-.23-.615-.995-1.146-1.226-.987-.491-1.917-.072-2.535.35l-.759.567c-.686 0-1.296-1.148-1.833-.764-.385.231-.917 1.985-.23 2.37.533.303 1.528-.457 2.139-.539.157-.071.308.231.231.309-.458.385-1.377.385-1.529.917-.074.154 0 .304 0 .385-.459-.385-.916-.842-1.453-.842-.382.072.994 1.453 1.07 1.602.139.321-.012 1.086.37 1.086zM178.5 177.405l.008-.007-.008-.012zM143.304 142.819c-.074 0-.074-.077-.074-.077s-.077.077-.077.154c.076-.077.076-.077.151-.077z"/></g><circle fill="#FA2A81" cx="120" cy="230.5" r="4"/><text transform="translate(126.833 243.666)" font-family="'Helvetica'" font-size="16">Lens</text></svg>